<?xml version="1.0" encoding="utf-8"?>
<!-- Generator: Adobe Illustrator 25.2.1, SVG Export Plug-In . SVG Version: 6.00 Build 0)  -->
<svg version="1.1" id="Layer_1" xmlns="http://www.w3.org/2000/svg" xmlns:xlink="http://www.w3.org/1999/xlink" x="0px" y="0px"
	 viewBox="0 0 5000 5000" style="enable-background:new 0 0 5000 5000;" xml:space="preserve">
<style type="text/css">
	.st0{fill:none;stroke:#E2B442;stroke-width:0.5;stroke-linecap:round;stroke-miterlimit:10;}
	.st1{fill:none;stroke:#E2B442;stroke-width:0.5;stroke-linecap:round;}
	.st2{fill:none;}
	.st3{fill:none;stroke:#A0C6FF;stroke-width:0.5;stroke-linecap:round;stroke-linejoin:round;}
	.st4{fill:none;stroke:#000000;stroke-width:9.335534e-02;}
</style>
<path id="TRANSITadaf" class="st0" d="M1354.5,2189.1v-356.3c0-9.1,6-17.9,17.1-25.2l154.2-100.9"/>
<path id="TRANSITmkad" class="st0" d="M763.3,4121.7V3011c0-28.3,6.3-55.8,17.9-78.5l161.5-314.6"/>
<path id="TRANSITahkh" class="st1" d="M3396.2,837.3l567.5-1.7c26.1-0.1,49.9,6.9,61.1,17.9l121.5,119.6"/>
<path id="TRANSITkhoj" class="st1" d="M4696.7,2940.4l-12.8-1138.7c-0.6-52.5-10.2-100.1-24.6-122.3L4502.8,1438"/>
<path id="TRANSITojml" class="st1" d="M4645.8,3582.8l3.8,339.8c0.2,15.7-17.1,30.1-44.3,37.1l-296.6,75.9"/>
<path id="TRANSITmlbl" class="st1" d="M3496.4,3937l7.7,680.9c0.4,31.4-24.9,60.2-65.1,74l-435.8,150.3"/>
<path id="TRANSITblmk" class="st1" d="M2327,4715.7l-694.9,6.8c-32,0.3-61.3-17.2-75.2-44.9l-151.3-301.5"/>
<path id="TRANSITafah" class="st1" d="M3222.3,567.5l-1120.2,3.4c-51.5,0.2-98.5,22.3-120.4,57l-238,377.1"/>
<path id="kh03" class="st2" d="M4694.5,872.2c11.7,1.3,21.3,7.7,30.4,15.2c10.6,8.7,25,16.7,25.5,30.4c0.5,13.9-13.4,22.9-23.4,32.6
	c-9.7,9.5-19,22.5-32.5,21.9c-13.3-0.5-21.4-14.1-30.1-24.4c-7.7-9.1-14.8-18.4-16.2-30.2c-1.6-13.4-1.4-28.6,8.2-38.1
	C4666.1,870.3,4681.2,870.7,4694.5,872.2z"/>
<path id="kh02" class="st2" d="M4684.4,1209.2c14.8-2,31.2,3,40.4,14.7c8.7,11,4.9,26.5,3,40.5c-1.5,11.1-6.1,21.6-13.1,30.3
	c-8.4,10.7-16.7,24.8-30.3,24.8s-21.2-14.8-30.4-24.7c-8.7-9.4-20.8-17.6-20.9-30.5s11.6-21.7,20.4-31.1
	C4662.7,1223.4,4670.9,1211.1,4684.4,1209.2z"/>
<path id="kh01" class="st2" d="M4399.1,1059.6c13.8-0.7,28.8-1.6,39.2,7.5c10.8,9.5,15.5,24.7,14.1,39.1
	c-1.2,13.3-10.5,23.9-20.8,32.4c-9.2,7.6-20.6,9.9-32.5,11.3c-14.2,1.7-30.7,7.1-41.2-2.6s-6.8-26.7-5.7-41.1
	c0.9-12.8,2.3-26.2,11.5-35.3C4372.8,1061.8,4386.2,1060.2,4399.1,1059.6z"/>
<path id="kh00_1_" class="st2" d="M4401.4,770.2c12.1-0.8,23.8,3.6,33.2,11.3c10.8,8.7,21.6,19.4,22.5,33.2
	c0.9,14.5-7.7,27.5-17.8,37.9c-10.3,10.5-23.2,19.6-37.9,19.1c-14.4-0.4-26.2-10.5-35.8-21.3c-8.9-10.1-16.2-22.4-14.8-35.8
	c1.3-12.4,12.3-20.5,21.8-28.8C4381.1,778.3,4390.1,771,4401.4,770.2z"/>
<path id="khintro" class="st3" d="M3284.9,2272.5v-388c0.1-25.3,10.6-49.5,29.1-66.8l517.2-487.1c18-16.9,41.9-26.3,66.7-26.2h170.4
	"/>
<path id="af03" class="st2" d="M1507.2,1057.3c12.1-0.8,23.8,3.6,33.2,11.3c10.8,8.7,21.6,19.4,22.5,33.2
	c0.9,14.5-7.7,27.5-17.8,37.9c-10.3,10.5-23.2,19.6-37.9,19.1c-14.4-0.4-26.2-10.5-35.8-21.3c-8.9-10.1-16.2-22.4-14.8-35.8
	c1.3-12.4,12.3-20.5,21.8-28.8C1486.9,1065.4,1495.8,1058.1,1507.2,1057.3z"/>
<path id="af02" class="st2" d="M1789.9,1307.2c11.7,1.3,21.3,7.7,30.4,15.2c10.6,8.7,25,16.7,25.5,30.4
	c0.5,13.9-13.4,22.9-23.4,32.6c-9.7,9.5-19,22.5-32.5,21.9c-13.3-0.5-21.4-14.1-30.1-24.4c-7.7-9.1-14.8-18.4-16.2-30.2
	c-1.6-13.4-1.4-28.6,8.2-38.1C1761.5,1305.2,1776.5,1305.7,1789.9,1307.2z"/>
<path id="af01" class="st2" d="M1782.6,1541.5c14.8-2,31.2,3,40.4,14.7c8.7,11,4.9,26.5,3,40.5c-1.5,11.1-6.1,21.6-13.1,30.3
	c-8.4,10.7-16.7,24.8-30.3,24.8s-21.2-14.8-30.4-24.7c-8.7-9.4-20.8-17.6-20.9-30.5s11.6-21.7,20.4-31.1
	C1760.8,1555.7,1769.1,1543.3,1782.6,1541.5z"/>
<path id="af00_1_" class="st2" d="M1423.7,1505.5c-56.1-31.1-94.6-96.4-84.4-159.7s75.4-115.5,138.3-102.7
	c41.3,8.4,73.5,40.1,100.8,72.2c31.4,37.1,59.8,77,95.7,109.7s81.4,58.1,129.9,58.4c48.6,0.3,99.1-30.3,110.7-77.5
	c13.9-56.5-28.9-110.8-74-147.5c-9.5-7.7-19.6-15.3-31.4-18.5c-15.3-4-31.5-0.2-46.2,5.6c-75.3,29.9-124.4,108.3-201.4,133.4
	c-54.5,17.8-114.2,5.7-168.7-12.3c-48.6-16.1-98.8-39.7-124.6-83.9c-38.6-66.2-3.1-158.2,62.7-197.6c65.8-39.3,150.7-33.8,221.7-4.8
	c10.6,4.3,21.2,9.3,29.3,17.4c12.5,12.5,17.4,30.9,17.7,48.6c1.3,81.3-81.5,148.6-72.3,229.4c5.3,46.3,40.2,83.6,77.3,111.9
	c77.1,58.9,171.9,94.4,268.8,100.6c16.2,1,32.7,1.3,48.3-3.2c30.4-8.6,53.3-33.7,70-60.5c36.7-58.4,51.5-131.8,32.7-198.2
	s-73.3-123.2-140.7-137.8c-86.1-18.5-174.2,32.4-229.7,100.7c-24.3,30-44.3,64.7-47.7,103.8c-2.7,30.6,9.9,63.9-1.7,93.8
	C1578.5,1554.9,1473.4,1533,1423.7,1505.5z"/>
<path id="afintro" class="st3" d="M2762.5,2236.6v-400.2c0-38.2-17.7-73.4-46.2-92l-450.9-293.9c-13-8.6-28.2-13.2-43.8-13.3h-113.7
	"/>
<path id="ad03" class="st2" d="M1159.1,2311.8c12.1-0.8,23.8,3.6,33.2,11.3c10.8,8.7,21.6,19.4,22.5,33.2
	c0.9,14.5-7.7,27.5-17.8,37.9c-10.3,10.5-23.2,19.6-37.9,19.1c-14.4-0.4-26.2-10.5-35.8-21.3c-8.9-10.1-16.2-22.4-14.8-35.8
	c1.3-12.4,12.3-20.5,21.8-28.8C1138.7,2320,1147.7,2312.6,1159.1,2311.8z"/>
<path id="ad02" class="st2" d="M1156.6,2601.3c13.8-0.7,28.8-1.6,39.2,7.5c10.8,9.5,15.5,24.7,14.1,39.1
	c-1.2,13.3-10.5,23.9-20.8,32.4c-9.2,7.6-20.6,9.9-32.5,11.3c-14.2,1.7-30.7,7.1-41.2-2.6c-10.5-9.7-6.8-26.7-5.7-41.1
	c0.9-12.8,2.3-26.2,11.5-35.3S1143.9,2601.9,1156.6,2601.3z"/>
<path id="ad01" class="st2" d="M1431.9,2393c14.8-2,31.2,3,40.4,14.7c8.7,11,4.9,26.5,3,40.5c-1.5,11.1-6.1,21.6-13.1,30.3
	c-8.4,10.7-16.7,24.8-30.3,24.8c-13.6,0-21.2-14.8-30.4-24.7c-8.7-9.4-20.8-17.6-20.9-30.5s11.6-21.7,20.4-31.1
	C1410.3,2407.2,1418.5,2394.8,1431.9,2393z"/>
<path id="adintro" class="st3" d="M2509.4,2229.7v-115.4c0-30-46.3-54.3-103.4-54.3h-243.7c-27.4,0-53.8,5.7-73.1,15.9l-422.8,221.9
	"/>
<path id="ml04" class="st2" d="M3710.2,3596.4c11.7,1.3,21.3,7.7,30.4,15.2c10.6,8.7,25,16.7,25.5,30.4
	c0.5,13.9-13.4,22.9-23.4,32.6c-9.7,9.5-19,22.5-32.5,21.9c-13.3-0.5-21.4-14.1-30.1-24.4c-7.7-9.1-14.8-18.4-16.2-30.2
	c-1.6-13.4-1.4-28.6,8.2-38.1C3681.8,3594.4,3696.8,3594.9,3710.2,3596.4z"/>
<path id="ml03" class="st2" d="M3763.5,3987.1c13.8-0.7,28.8-1.6,39.2,7.5c10.8,9.5,15.5,24.7,14.1,39.1
	c-1.2,13.3-10.5,23.9-20.8,32.4c-9.2,7.6-20.6,9.9-32.5,11.3c-14.2,1.7-30.7,7.1-41.2-2.6c-10.5-9.7-6.8-26.7-5.7-41.1
	c0.9-12.8,2.3-26.2,11.5-35.3S3750.7,3987.8,3763.5,3987.1z"/>
<path id="ml02" class="st2" d="M4070.8,4238.8c14.8-2,31.2,3,40.4,14.7c8.7,11,4.9,26.5,3,40.5c-1.5,11.1-6.1,21.6-13.1,30.3
	c-8.4,10.7-16.7,24.8-30.3,24.8s-21.2-14.8-30.4-24.7c-8.7-9.4-20.8-17.6-20.9-30.5s11.6-21.7,20.4-31.1
	C4049.2,4253,4057.4,4240.6,4070.8,4238.8z"/>
<path id="ml01" class="st2" d="M4012.3,3814.3c12.1-0.8,23.8,3.6,33.2,11.3c10.8,8.7,21.6,19.4,22.5,33.2
	c0.9,14.5-7.7,27.5-17.8,37.9c-10.3,10.5-23.2,19.6-37.9,19.1c-14.4-0.4-26.2-10.5-35.8-21.3c-8.9-10.1-16.2-22.4-14.8-35.8
	c1.3-12.4,12.3-20.5,21.8-28.8C3991.9,3822.6,4000.9,3815.2,4012.3,3814.3z"/>
<path id="mlintro" class="st3" d="M3027.8,2649v781.9c0,36,18.8,68.8,48.3,84.2l320.2,166.9"/>
<path id="bl03" class="st2" d="M2715.7,4621.3c12.2,1.7,19.8,12.6,28.8,21c9.7,9,23.7,15.7,24.8,28.8c1.2,13.6-8.6,26-19.3,34.4
	c-9.6,7.6-22.1,8.2-34.4,8.1c-12-0.1-24.3-1.2-33.7-8.8c-10.6-8.4-19.1-20.2-20-33.8c-0.8-14.3,5.2-28.4,15.7-38.1
	C2688,4623.7,2702,4619.3,2715.7,4621.3z"/>
<path id="bl02" class="st2" d="M2452.9,4343.9c12.1-0.8,23.8,3.6,33.2,11.3c10.8,8.7,21.6,19.4,22.5,33.2
	c0.9,14.5-7.7,27.5-17.8,37.9c-10.3,10.5-23.2,19.6-37.9,19.1c-14.4-0.4-26.2-10.5-35.8-21.3c-8.9-10.1-16.2-22.4-14.8-35.8
	c1.3-12.4,12.3-20.5,21.8-28.8C2432.5,4352,2441.5,4344.6,2452.9,4343.9z"/>
<path id="bl01" class="st2" d="M2722.1,4243.8c13.4,0.4,26.5,3.5,36.8,12.1c11.1,9.4,20.1,22,20.8,36.6c0.7,15.3-5.5,30.2-17,40.4
	c-10.8,9.6-26.2,12.3-40.6,10.5c-12.7-1.7-21.9-11-30.9-20.1s-18.2-18.2-19.6-30.8c-1.6-13.9,1.6-28.9,11.7-38.6
	C2693.4,4244.2,2708.2,4243.4,2722.1,4243.8z"/>
<path id="bl00" class="st2" d="M3022.8,4472.3c13.4,0.4,26.5,3.5,36.8,12.1c11.1,9.4,20.1,22,20.8,36.6c0.7,15.3-5.5,30.2-17,40.4
	c-10.8,9.6-26.2,12.3-40.6,10.5c-12.7-1.7-21.9-11-30.9-20.1s-18.2-18.2-19.6-30.8c-1.6-13.9,1.6-28.9,11.7-38.6
	C2994.1,4472.7,3008.9,4471.9,3022.8,4472.3z"/>
<path id="blintro" class="st3" d="M2762.6,2650v1075c-0.1,23,4.7,45.7,14.1,66.6l154.3,339.1"/>
<path id="ah00" class="st2" d="M3085,819.2c14.2-0.9,29.8,1.3,39.2,12c9.1,10.4,6.4,25.6,5.8,39.4c-0.7,12.8-1.7,25.6-9.5,35.7
	c-8.9,11.4-21.1,23.3-35.5,22c-14-1.3-20.8-17-29.3-28.2c-6.9-9.1-13.7-18.1-14.7-29.5c-1-12.4,1.3-25.3,9.4-34.8
	C3059.1,825.7,3071.8,820.1,3085,819.2z"/>
<path id="ahintro" class="st3" d="M3027.8,2274.5v-824c0.1-21.3,7.5-41.8,21-58.3l189.5-233.4"/>
<path id="oj04" class="st2" d="M4356.6,2954.3c12.1-0.8,23.8,3.6,33.2,11.3c10.8,8.7,21.6,19.4,22.5,33.2
	c0.9,14.5-7.7,27.5-17.8,37.9c-10.3,10.5-23.2,19.6-37.9,19.1c-14.4-0.4-26.2-10.5-35.8-21.3c-8.9-10.1-16.2-22.4-14.8-35.8
	c1.3-12.4,12.3-20.5,21.8-28.8C4336.2,2962.5,4345.2,2955,4356.6,2954.3z"/>
<path id="oj02" class="st2" d="M4392.9,3322.2c12.2,1.7,19.8,12.6,28.8,21c9.7,9,23.7,15.7,24.8,28.8c1.2,13.6-8.6,26-19.3,34.4
	c-9.6,7.6-22.1,8.2-34.4,8.1c-12-0.1-24.3-1.2-33.7-8.8c-10.6-8.4-19.1-20.2-20-33.8c-0.8-14.3,5.2-28.4,15.7-38.1
	C4365.3,3324.5,4379.2,3320.2,4392.9,3322.2z"/>
<path id="oj01" class="st2" d="M4653.8,3196.3c11.7,1.3,21.3,7.7,30.4,15.2c10.6,8.7,25,16.7,25.5,30.4
	c0.5,13.9-13.4,22.9-23.4,32.6c-9.7,9.5-19,22.5-32.5,21.9c-13.3-0.5-21.4-14.1-30.1-24.4c-7.7-9.1-14.8-18.4-16.1-30.2
	c-1.6-13.4-1.4-28.6,8.2-38.1C4625.4,3194.4,4640.5,3194.8,4653.8,3196.3z"/>
<path id="ojintro" class="st3" d="M3285.7,2620.5v31.2c0,79.4,28.8,148.8,69.9,168.5l712.5,341.8"/>
<path id="mk04" class="st2" d="M1026.7,3836.4c12.2,1.7,19.8,12.6,28.8,21c9.7,9,23.7,15.7,24.8,28.8c1.2,13.6-8.6,26-19.3,34.4
	c-9.6,7.6-22.1,8.2-34.4,8.1c-12-0.1-24.3-1.2-33.7-8.8c-10.6-8.4-19.1-20.2-20-33.8c-0.8-14.3,5.2-28.4,15.7-38.1
	C999.1,3838.8,1013,3834.5,1026.7,3836.4z"/>
<path id="mk03" class="st2" d="M1199.5,4122c10.2-0.8,21.5-0.6,28.7,6.6s5.9,18.5,6.1,28.6c0.2,10.4,1.1,21.2-4.9,29.6
	c-7.1,9.8-17.6,18.4-29.8,18.5c-12.2,0.1-23.5-7.7-30.4-17.8c-5.9-8.7-3.3-19.8-2.1-30.2c0.9-8.9,2.1-17.8,8-24.4
	C1181.3,4126.2,1190.3,4122.8,1199.5,4122z"/>
<path id="mk02" class="st2" d="M1548,4076.6c14.8-2,31.2,3,40.4,14.7c8.7,11,4.9,26.5,3,40.5c-1.5,11.1-6.1,21.6-13.1,30.3
	c-8.4,10.7-16.7,24.8-30.3,24.8c-13.6,0-21.2-14.8-30.4-24.7c-8.7-9.4-20.8-17.6-20.9-30.5s11.6-21.7,20.4-31.1
	C1526.2,4090.8,1534.5,4078.4,1548,4076.6z"/>
<path id="mk01" class="st2" d="M1416.7,3732.9c11.7,1.3,21.3,7.7,30.4,15.2c10.6,8.7,25,16.7,25.5,30.4
	c0.5,13.9-13.4,22.9-23.4,32.6c-9.7,9.5-19,22.5-32.5,21.9c-13.3-0.5-21.4-14.1-30.1-24.4c-7.7-9.1-14.8-18.4-16.2-30.2
	c-1.6-13.4-1.4-28.6,8.2-38.1S1403.4,3731.4,1416.7,3732.9z"/>
<path id="mk00_1_" class="st2" d="M970.9,3505.7c12.1-0.8,23.8,3.6,33.2,11.3c10.8,8.7,21.6,19.4,22.5,33.2
	c0.9,14.5-7.7,27.5-17.8,37.9c-10.3,10.5-23.2,19.6-37.9,19.1c-14.4-0.4-26.2-10.5-35.8-21.3c-8.9-10.1-16.2-22.4-14.8-35.8
	c1.3-12.4,12.3-20.5,21.8-28.8C950.5,3513.9,959.5,3506.6,970.9,3505.7z"/>
<path id="mkintro" class="st3" d="M2512.2,2694.5v386.4c0,37.2-28.8,70.4-72.6,83.9l-1130.3,349.6"/>
<circle id="START" class="st4" cx="510.9" cy="589.9" r="9.4"/>
<path id="TRANSITjlintro" class="st4" d="M520.3,563.8c40.4-76,142.5-104.8,224.3-78.4s143.4,97,179.6,175.1
	c55.2,119.1,58.3,261.3,8.4,382.7c-37.9,92.3-115.6,177.5-215,186.2c-99.4,8.8-202.8-93.7-166.8-186.8
	c32.7-84.7,144.8-104.2,234.6-90.4c249.8,38.2,465.1,244.1,514.3,492c22.6,114.1,12.8,231.9,2.7,347.8
	c-35.6,411-72.5,822.8-67.2,1235.3c4,307,36.4,628.5,206.1,884.3c217.7,328,632.4,486.6,1025.9,476.4
	c412.1-10.8,817.3-190.6,1101.7-488.9c433.2-454.4,555.9-1114.6,643.1-1736.4c15.6-111.7,30.8-224.6,19.9-336.8
	c-33.1-341.1-300.7-616.7-596.3-790.3c-197.6-116.1-417.9-201-646.7-213.2c-259.3-13.9-458,110.8-636.7,207.6
	c-171.7,92.9-291.6,193.4-372,261.4c-87.5,74-150.7,128.3-213.7,217.1c-79.4,111.8-123.1,218.4-143.8,317.5
	c-77.3,368.8-141.8,743.3-132.8,1120.1c9,376.7,95.5,758.7,300,1075.1c117.2,181.3,271.8,338.4,451.2,458.6
	c91.9,61.6,191.2,113.9,298.1,142.5c162.2,43.3,335.2,29.9,498.1-10.6c196.3-48.7,380.8-135.3,563.9-221.3
	c182.8-85.9,376-180.9,480-354c95.8-159.4,98.1-357,83.1-542.5c-21.7-268.9-82.5-552.5-272.1-744.5
	c-370.4-375.1-925.2-296.6-979.4-287.3"/>
</svg>
