<?xml version="1.0" encoding="utf-8"?>
<!-- Generator: Adobe Illustrator 22.0.0, SVG Export Plug-In . SVG Version: 6.00 Build 0)  -->
<svg version="1.1" id="Layer_1" xmlns="http://www.w3.org/2000/svg" xmlns:xlink="http://www.w3.org/1999/xlink" x="0px" y="0px"
	 viewBox="0 0 5000 5000" style="enable-background:new 0 0 5000 5000;" xml:space="preserve">
<style type="text/css">
	.st0{fill:none;}
	.st1{fill:none;stroke:#E2B442;stroke-width:0.5;stroke-linecap:round;stroke-miterlimit:10;}
	.st2{fill:none;stroke:#E2B442;stroke-width:0.5;stroke-linecap:round;}
	.st3{fill:none;stroke:#A0C6FF;stroke-width:0.5;stroke-linecap:round;stroke-linejoin:round;}
	.st4{fill:none;stroke:#000000;stroke-width:9.335534e-02;}
</style>
<path id="TRANSITjlintro" class="st0" d="M380.3,553.8c40.4-76,142.5-104.8,224.3-78.4s143.4,97,179.6,175.1
	c55.2,119.1,58.3,261.3,8.4,382.7c-37.9,92.3-115.6,177.5-215,186.2c-99.4,8.8-202.8-93.7-166.8-186.8
	c32.7-84.7,144.8-104.2,234.6-90.4c249.8,38.2,465.1,244.1,514.3,492c22.6,114.1,12.8,231.9,2.7,347.8
	c-35.6,411-72.5,822.8-67.2,1235.3c4,307,36.4,628.5,206.1,884.3c217.7,328,632.4,486.6,1025.9,476.4
	c412.1-10.8,817.3-190.6,1101.7-488.9c433.2-454.4,555.9-1114.6,643.1-1736.4c15.6-111.7,30.8-224.6,19.9-336.8
	c-33.1-341.1-300.7-616.7-596.3-790.3c-197.6-116.1-417.9-201-646.7-213.2c-259.3-13.9-458,110.8-636.7,207.6
	c-171.7,92.9-291.6,193.4-372,261.4c-87.5,74-150.7,128.3-213.7,217.1c-79.4,111.8-123.1,218.4-143.8,317.5
	c-77.3,368.8-141.8,743.3-132.8,1120.1c9,376.7,95.5,758.7,300,1075.1c117.2,181.3,271.8,338.4,451.2,458.6
	c91.9,61.6,191.2,113.9,298.1,142.5c162.2,43.3,335.2,29.9,498.1-10.6c196.3-48.7,380.8-135.3,563.9-221.3
	c182.8-85.9,376-180.9,480-354c95.8-159.4,98.1-357,83.1-542.5c-21.7-268.9-82.5-552.5-272.1-744.5
	c-370.4-375.1-925.2-296.6-979.4-287.3"/>
<path id="TRANSITadaf" class="st1" d="M1214.5,2179.1v-356.3c0-9.1,6-17.9,17.1-25.2l154.2-100.9"/>
<path id="TRANSITmkad" class="st1" d="M623.3,3672v-671c0-28.3,6.3-55.8,17.9-78.5l161.5-314.6"/>
<path id="TRANSITahkh" class="st2" d="M3256.2,827.3l567.5-1.7c26.1-0.1,49.9,6.9,61.1,17.9l121.5,119.6"/>
<path id="TRANSITkhoj" class="st2" d="M4362.8,1428l156.5,241.4c14.4,22.2,24,69.8,24.6,122.3l12.8,1138.7"/>
<path id="TRANSITojml" class="st2" d="M4505.8,3572.8l3.8,339.8c0.2,15.7-17.1,30.1-44.3,37.1l-296.6,75.9"/>
<path id="TRANSITmlbl" class="st2" d="M3356.4,3927l7.7,680.9c0.4,31.4-24.9,60.2-65.1,74l-435.8,150.3"/>
<path id="TRANSITblmk" class="st2" d="M2187,4705.7l-694.9,6.8c-32,0.3-61.3-17.2-75.2-44.9l-151.3-301.5"/>
<path id="TRANSITafah" class="st2" d="M1603.7,995l238-377.1c21.9-34.7,68.9-56.8,120.4-57l1120.2-3.4"/>
<path id="bl02" class="st0" d="M2638.4,4252.4c47.2,44.6,76,106.3,88.2,170c14.9,78.1,3.8,165.3-48.3,225.4s-150.8,81.6-213.9,33.2
	c-47.4-36.4-64.2-99.2-96.4-149.5c-18.6-29.1-43.4-56-50-89.9c-6.9-35.7,9-73.5,36.1-97.7s63.9-35.7,100.2-36.8
	c74-2.4,145.5,36.6,193.8,92.8c48.2,56.2,75.2,128,89.2,200.7c9.5,49.1,10.7,106.9-25.6,141.2c-34.1,32.2-96,27.1-124.5-10.2
	c-22.4-29.5-23-69.4-29.5-105.8c-9.2-51.3-32.2-100-65.9-139.6c-25.5-29.9-64.8-56.3-101.9-43.3c-32.7,11.5-48.4,48.3-55.6,82.2
	c-6.1,28.7-7.4,62.1,12.4,83.7c16.7,18.1,44.9,22.3,68.6,15.4c23.7-7,43.5-23.3,60.4-41.3c31.2-33.1,55.4-74.2,62.5-119.1
	c6.4-40.4-2.3-83.5-27-116.5c-22.6-30.1-74.8-50.8-71-95C2449.3,4145.7,2598,4214.2,2638.4,4252.4z"/>
<path id="bl01" class="st0" d="M2771.6,4482.9c-68.3,21.6-136.7,43.2-205,64.8c-18.1,5.7-36.8,11.8-50.8,24.6
	c-14,12.9-21.8,34.6-12.9,51.3c23.6,13.9,53.6,5.5,79.6-3.2c38.8-13,77.6-26,116.4-39c37.6-12.6,75.7-25.4,108.6-47.5
	c32.9-22,60.7-54.8,67.9-93.8c4.8-25.9-1.4-55.7-22.4-71.5c-16.3-12.3-38.1-14-58.4-13.5c-57.8,1.4-115.1,17.1-165.5,45.5
	c-41.9,23.6-78.9,55.6-122.5,75.9s-98.3,26.8-137.7-0.8c-5.9-4.2-11.7-9.5-13.2-16.6c-2.6-12.3,8.4-22.9,18.5-30.3
	c94.9-70.1,210.2-112.2,328-119.8c19.3-1.2,45.8-10.1,41.5-29c-55.8-17.2-119.4-6.7-166.6,27.7c-47.2,34.3-76.8,91.7-77.5,150
	c-0.6,43.8,106.4,12.7,129.7,2.4c32.5-14.3,54.4-41,84.3-58.6C2790.1,4356.7,2883,4447.8,2771.6,4482.9z"/>
<path id="bl00" class="st0" d="M2466.5,4544.5c20.5,1,39.8,14.5,47.8,33.3c11,25.9,0.1,57.2-20.3,76.6
	c-20.4,19.4-48.3,28.6-75.9,33.8c-25.2,4.7-52.3,6.3-75.7-4.3c-35.6-16.1-53.7-55.7-64.9-93.2c-10.9-36.3-17.6-77.6,1.6-110.3
	c8.5-14.5,21.4-25.8,35.2-35.5c39-27.4,86.5-42.6,134.1-43c18.8-0.2,38.7,2.3,53.5,13.9c23.5,18.4,26.1,52.4,26.7,82.3
	c1.1,51.4,2.1,103.9-12.7,153.1c-7.8,26.1-20,51.1-23.5,78.2c-3.4,27,4.4,58.1,27.8,72c23.3,13.9,54.8,5.9,75.3-11.9
	s32.4-43.4,43-68.4c33.3-79.1,58.3-173.4,15.1-247.6c-42.2-72.6-133.4-98.3-216.5-110.4c-12.1-1.8-24.8-3.3-36.2,1
	c-12.8,4.8-21.8,16.2-29.6,27.5c-49.9,72.6-74,162.5-67,250.3c2.1,26.2,7.1,52.8,20.4,75.5c13.3,22.7,36.2,40.9,62.4,43.2
	c30.8,2.7,59.6-16.6,79.8-39.9c20.3-23.3,34.7-51.2,54.8-74.6c19.1-22.4,43.2-40.5,70.1-52.6c26.5-12,60.3-17,82.4,1.9
	c18.7,16,22,45.1,12.8,68c-9.2,22.8-28.4,40.2-49.1,53.6c-50.5,32.7-113.2,46.1-172.6,36.7c-12-1.9-24.6-5.1-32.9-13.9
	c-8.9-9.4-11-23.2-12.5-36.1C2414.5,4656.8,2383.1,4540.3,2466.5,4544.5z"/>
<path id="blintro" class="st3" d="M2622.6,2640v1075c-0.1,23,4.7,45.7,14.1,66.6l154.3,339.1"/>
<path id="ahintro" class="st3" d="M2887.8,2264.5v-824c0.1-21.3,7.5-41.8,21-58.3l189.5-233.4"/>
<path id="oj02" class="st0" d="M4254.3,3329.6c-9.5-11.8-17.5-25.1-21.3-39.8c-3.8-14.8-3.1-30.5-0.9-45.6
	c14-97.6,87.8-179.8,176.9-222.1c20.1-9.5,41.5-17.5,63.7-18.2c22.4-0.7,44.4,5.8,65.2,14c92.7,36.6,170.8,108.9,214.4,198.5
	c9.2,19,17.1,39.1,17.8,60.2c0.9,25.7-8.8,50.5-18.3,74.4c-31.8,79.9-70,166.9-147.7,203.9c-61.8,29.4-134.4,19.8-201.5,6.2
	c-63.2-12.8-134-34.8-161-93.4c-17.8-38.5-11.5-83.3-4.9-125.2c6.8-43.5,13.7-87,20.5-130.5c1.6-10.5,3.4-21.2,8.7-30.4
	c6-10.4,16.1-17.7,25.9-24.7c48.9-35.1,100.8-71.4,160.7-77.8c96.5-10.3,181.6,58.2,254.2,122.5c25.6,22.7,51.6,45.8,69.6,74.9
	c17.9,29.1,27,65.7,15.9,98c-13.4,38.9-53.3,63.8-93.8,70.7s-82-1-122.1-9.8C4478.9,3414.3,4320,3411.9,4254.3,3329.6z"/>
<path id="oj01" class="st0" d="M4395.2,3097.3c-67.1,75.5-52.7,197.1,2.1,282c28.4,44,72.9,84.7,125.2,82.9c28-1,54.2-14.1,77.3-30
	c40.4-27.7,75.7-66.5,86.9-114.2c4.6-19.7,5-40.2,8.3-60.1c12.1-72,62.8-143.3,37.5-211.8c-4.6-12.5-12.9-25-25.8-28.5
	c-10.1-2.7-20.7,0.6-30.4,4.5c-42.7,17.1-80.9,45.1-110.2,80.6c-20.6,25-37.3,55.2-37.7,87.7c-0.5,32.4,19.1,66.6,50.4,75
	c30,8,60.4-8.1,89.9-18.1c69-23.3,148.4-10.2,207.9,31.3c32.1,22.4,52.4,51.1,0.6,64.2c-20.5,5.2-32,3.9-45.8-12.1
	c-27.5-32-19.5-103.6-32.5-142.8c-23.7-71.5-89.7-113-158.6-137C4559.1,3022.7,4455.6,3029.4,4395.2,3097.3z"/>
<path id="oj00" class="st0" d="M4600.1,3195.4c-6-20.6-28.1-32-49-36.6c-31.1-6.7-66-2.5-90.3,18.1c-10.5,8.9-18.5,20.3-25.8,31.9
	c-42.1,66.4-66.1,144.2-68.8,222.7c-0.8,23.4,1.2,49.2,17.4,66c22,22.9,62.4,18,85.9-3.3s33.1-54,36.9-85.5
	c4.2-34.9,2.4-71.6-12.6-103.5c-26-55.6-90.3-88-151.6-84.4c-9.4,0.6-19.7,2.4-25.3,9.9c-4.1,5.5-4.7,12.8-5.1,19.6
	c-1.4,23.4-2.8,47.2,1.9,70.2c8.9,43.6,39.5,80.7,76.9,104.9c37.4,24.1,81.2,36.5,125.1,43.9c15.9,2.7,34.3,4.1,46.3-6.7
	c9.9-8.9,12.3-23.6,11.7-37c-2.1-48.5-35.1-92-77.3-116c-42.2-23.9-92.3-30.4-140.8-28.5c-12.9,0.5-26.2,1.7-37.7,7.6
	c-13.3,6.9-22.8,19.4-29.8,32.7c-12.3,23.4-18.1,50.2-16.5,76.6c0.3,5.3,1,10.9,4.2,15.3c39.2,53.4,140.4-47.6,171.3-71.4
	C4487.3,3311.1,4619.6,3262.4,4600.1,3195.4z"/>
<path id="ah00" class="st0" d="M2991.1,825.7c5.5,20.7,27.3,32.7,48.1,37.8c30.9,7.4,65.9,4.1,90.7-15.9c10.7-8.6,19-19.9,26.6-31.3
	c43.7-65.4,69.5-142.6,74.1-221c1.4-23.4,0-49.2-15.8-66.4c-21.4-23.4-62-19.5-86,1.2c-24,20.7-34.4,53.2-38.9,84.6
	c-5,34.8-4.1,71.5,10.1,103.8c24.7,56.2,88.2,90.1,149.5,88c9.4-0.4,19.8-1.9,25.5-9.3c4.2-5.4,5-12.7,5.6-19.5
	c2-23.4,3.9-47.1-0.2-70.2c-7.9-43.8-37.6-81.6-74.4-106.7c-36.8-25-80.3-38.4-124-46.9c-15.8-3.1-34.2-4.9-46.4,5.6
	c-10.1,8.7-12.9,23.3-12.6,36.7c0.9,48.5,32.9,92.8,74.5,117.8c41.6,24.9,91.5,32.6,140.1,31.9c12.9-0.2,26.2-1.1,37.9-6.7
	c13.5-6.6,23.3-18.8,30.6-32c12.9-23.1,19.3-49.8,18.3-76.2c-0.2-5.3-0.7-10.9-3.8-15.4c-37.9-54.3-141.5,44.2-173,67.3
	C3106.6,712.7,2973.2,758.2,2991.1,825.7z"/>
<path id="ojintro" class="st3" d="M3145.7,2610.5v31.2c0,79.4,28.8,148.8,69.9,168.5l712.5,341.8"/>
<circle id="START" class="st4" cx="370.9" cy="579.9" r="9.4"/>
<path id="mk04" class="st0" d="M866.1,3648.8c34.3-37.6,88.3-56.4,138.5-48.3c36.2,5.8,69,24.2,100.3,43.1
	c30.2,18.1,60.2,37.5,83.8,63.6c30.4,33.7,48.7,78,50.8,123.4c1.8,38.8-7.8,77.1-17.7,114.7c-25.5,96.9-54.1,195.7-114.3,275.8
	c-4.1,5.5-8.5,10.9-14.5,14.4c-7.2,4.1-15.8,4.7-24,5.7c-58.6,7.9-109.4,47.2-168.1,54.6c-45,5.7-90.5-8.2-131.2-28.4
	c-26.7-13.2-52.6-29.8-71.1-53.3c-25.8-32.8-34.5-75.3-42.3-116.3c-4.9-25.7-9.7-51.9-5.8-77.7c3.7-25.1,15.4-48.1,27-70.7
	c20.1-39.5,41.3-80.4,76.1-107.9c22-17.4,48.3-28.6,74.8-37.6c61.8-21.2,130.8-32.3,191.8-8.6c17.2,6.7,33.7,16.3,45.4,30.6
	c10.1,12.2,16.3,27.4,19.9,42.9c13.4,58-8.8,118.1-36,171.2c-7.1,14-14.8,27.8-25.5,39.4c-21.1,22.8-52.6,34.2-83.6,35.9
	c-31,1.8-61.9-5.2-91.6-14.4c-22.2-6.8-45.7-16.3-57.6-36c-6.9-11.4-9.1-25-8.9-38.4c1.4-57.2,50.1-105.8,105.5-120.2
	c26.6-6.9,55.7-7.1,80.5,4.6c24.8,11.7,44.1,36.8,44.2,64.2c0,27.4-22.5,54.4-50.1,54.8c-23.8,0.3-44.9-18.3-53.6-40.4
	c-8.8-22.1-7.4-47-3.4-70.4c1.7-9.7,3.7-19.9,0.1-29.1c-16-40.7-84.8-37.1-94.2-85.5C802.2,3755.2,834.5,3684.4,866.1,3648.8z"/>
<path id="mk03" class="st0" d="M942.6,4238.1c-71.6,0.4-143.4,0.8-215,1.2c-19,0.1-38.6,0.4-55.8,8.5c-17.2,8.2-31.1,26.6-27.5,45.2
	c18.4,20.3,49.6,21.1,77,20.5c40.9-0.9,81.8-1.9,122.7-2.8c39.6-0.9,79.8-1.9,117.8-13.2c37.9-11.3,74.2-34.4,92.6-69.5
	c12.3-23.3,15.1-53.6-0.2-74.9c-11.9-16.6-32.2-24.6-51.8-30.2c-55.6-15.8-115-17.7-171.6-5.5c-47,10.1-91.8,29.8-139.5,36.2
	c-47.7,6.5-101.8-3.5-131.3-41.5c-4.4-5.8-8.4-12.5-7.7-19.8c1.2-12.5,14.8-19.4,26.6-23.5c111.4-38.9,234-45,348.8-17.4
	c18.8,4.6,46.7,3.9,48.2-15.4c-48.2-32.9-112.1-41.7-167.3-22.8c-55.2,18.8-100.5,64.9-118.4,120.3c-13.5,41.7,97.9,43.6,123.2,40.7
	c35.3-4,64.1-23.1,97.9-31C997.6,4123,1059.4,4237.5,942.6,4238.1z"/>
<path id="mkintro" class="st3" d="M2372.2,2684.5v386.4c0,37.2-28.8,70.4-72.6,83.9l-1096.4,527.6"/>
<path id="mk02" class="st0" d="M713,4009.7c-29.1-41.8-35.6-98.5-16.7-145.8c13.6-34,38.7-62,64.1-88.4
	c24.3-25.5,49.8-50.5,80.5-67.8c39.5-22.3,86.8-30.4,131.6-22.4c38.2,6.8,73.5,24.5,108,42.4c88.9,46.1,179,95.8,243.9,172.2
	c4.5,5.2,8.8,10.7,10.8,17.3c2.4,7.9,1.1,16.4,0.3,24.6c-5.2,58.9,22,117.1,16.3,175.9c-4.4,45.1-27.9,86.5-56.5,121.7
	c-18.8,23.2-40.7,44.8-67.7,57.7c-37.6,18-81.1,17.1-122.7,15.7c-26.1-0.9-52.8-2-77.1-11.4c-23.6-9.1-43.6-25.6-63.1-41.9
	c-34.1-28.3-69.3-58-88.5-97.9c-12.1-25.3-17.2-53.4-20.2-81.2c-7.1-65-2.8-134.7,33.8-189c10.3-15.4,23.4-29.3,39.8-37.6
	c14.1-7.2,30.3-9.9,46.2-10c59.5-0.3,113.3,34.6,159.1,72.8c12.1,10,23.9,20.5,32.8,33.5c17.6,25.6,21.8,58.8,16.6,89.4
	c-5.1,30.7-18.7,59.3-34.2,86.2c-11.5,20.2-25.9,41-47.8,48.3c-12.7,4.2-26.4,3.4-39.4,0.2c-55.5-13.9-92.2-72.2-94-129.4
	c-0.9-27.4,5.3-55.9,22.2-77.5c16.9-21.7,45.6-34.9,72.4-28.9c26.7,6,48.1,34,42.5,60.9c-4.9,23.3-27.8,39.7-51.2,43.4
	c-23.5,3.7-47.5-3.1-69.5-12.1c-9.1-3.8-18.6-8-28.3-6.5c-43.2,6.6-54.8,74.5-104.1,73.1C802.9,4095.4,740.9,4048.3,713,4009.7z"/>
<path id="mk01" class="st0" d="M1245.6,4004.1c-20.5,49.3-55.2,91.2-90.2,131.7c-22.5,26.1-58.8,54.1-87.4,34.9
	c-22.4-15-21.1-48-15.9-74.3c24.5-123.2,80.1-238.1,141.8-347.5c9.5-16.8,19.6-34,35.5-45c15.8-10.9,39.1-13.6,53.6-0.9
	c13.1,11.4,15,30.6,15.7,47.9c7.7,187.4-32,388.9-165.7,520.4c-20.4,20.1-50.6,39.2-75.6,25.5c-29.7-16.2-22.9-60.5-10.3-91.9
	c27.6-68.3,65.3-135.3,124.4-179c59.1-43.8,143.6-59.5,207.3-22.6c21.9,12.7,42.3,38.2,32.3,61.5c-10.2,23.7-42.3,25.9-68.1,24.5
	c-79.2-4.4-158.7-8.8-237.1-21.2c-63.3-10-131.8-29.3-166.8-83c127.7-19.6,257.9-22.9,386.6-10.2c26.6,2.6,54,6.3,77.1,19.8
	s40.9,39.6,36.8,66c-3.6,23.2-23.2,41.4-45.1,49.9s-46,8.9-69.5,8.7c-73.4-0.7-146.8-6.7-219.5-17.7c-65.7-10-137.8-28.7-173.9-84.6
	c-8.9-13.8-15.3-30.7-10.9-46.6c3.6-13.1,13.9-23.2,24-32.1c64.4-55.8,152.9-95.1,238.9-97.3
	C1277.3,3838.7,1273.8,3936.2,1245.6,4004.1z"/>
<path id="mk00" class="st0" d="M1100.3,3860.3c-56.6-83.6-178-99.7-273.8-67.5c-49.6,16.7-100.1,49.8-111.2,100.9
	c-5.9,27.4,0.3,56,10,82.3c16.9,46,45.8,89.8,89.3,112.4c18,9.3,37.7,14.8,56.2,22.9c66.8,29.5,123.4,96.2,196,88.6
	c13.2-1.4,27.4-6.3,34-18c5.1-9.1,4.5-20.2,3.1-30.6c-6-45.6-23.8-89.5-50.9-126.7c-19.2-26.1-44.3-49.8-75.7-58.2
	c-31.3-8.5-69.3,2.1-85.1,30.4c-15.1,27.1-7,60.5-4.6,91.6c5.6,72.6-26.7,146.3-81.6,193.8c-29.6,25.6-62.4,38.2-62.4-15.2
	c0-21.1,4.1-32,23-41.4c37.8-18.8,105.2,6.6,146.4,3.7c75.1-5.3,131.6-59.1,171.9-119.9C1132.2,4037.5,1151.3,3935.5,1100.3,3860.3z
	"/>
<path id="afintro" class="st3" d="M2622.5,2226.6v-400.2c0-38.2-17.7-73.4-46.2-92l-450.9-293.9c-13-8.6-28.2-13.2-43.8-13.3h-113.7
	"/>
<path id="af03" class="st0" d="M1466.3,1193.5c17.9,10,29.2,30.7,28,51.1c-1.7,28.1-25.4,51.3-52.3,59.5c-26.9,8.3-56,4.1-83-3.5
	c-24.7-7-49.6-17.6-65.9-37.6c-24.7-30.3-23.3-73.8-16.6-112.3c6.4-37.4,18.8-77.3,50.5-98c14.1-9.2,30.6-13.6,47.3-16.1
	c47.1-7.2,96.4,0.4,139.2,21.2c16.9,8.2,33.6,19.3,41.7,36.3c12.8,26.9,0,58.5-12.7,85.6c-21.9,46.5-44.4,94-79.5,131.4
	c-18.6,19.9-40.7,36.8-55.9,59.6c-15.1,22.7-21.9,54-7.2,76.8c14.7,22.8,46.4,29.7,72.7,22.9c26.3-6.8,48.3-24.4,69-42.1
	c65-56,129.4-129.3,123.8-215c-5.5-83.8-75.7-147.4-144.7-195.3c-10-7-20.7-14-32.9-15.2c-13.6-1.4-26.7,4.8-38.7,11.4
	c-77,42.8-138.6,112.5-171.5,194.3c-9.8,24.4-17.2,50.4-15.4,76.7c1.8,26.2,14.2,52.7,36.6,66.5c26.4,16.1,60.8,11.7,89.2-0.2
	c28.6-11.8,53.9-30.4,82.3-42.4c27.1-11.6,56.7-17,86.2-15.9c29.1,1.1,61.6,11.6,72.9,38.4c9.6,22.7-0.4,50.2-18.8,66.6
	c-18.4,16.3-43.3,23.3-67.8,26.1c-59.8,6.8-121.9-9.1-170.9-44c-9.9-7-19.8-15.5-23.3-27.1c-3.8-12.4,0.5-25.7,4.9-37.9
	C1369.7,1270.9,1393.5,1152.6,1466.3,1193.5z"/>
<path id="af02" class="st0" d="M1461,1495.3c19.1,9.8,42.6,1.6,60.3-10.4c26.3-18,47.2-46.2,49-78c0.8-13.7-2-27.4-5.4-40.7
	c-19.2-76.2-59.2-147.2-114.3-203.1c-16.4-16.7-36.5-33-59.9-32.8c-31.8,0.2-56,32.9-56.7,64.6s16.4,61.2,36.7,85.6
	c22.4,27.1,50.3,51,83.8,62.1c58.2,19.4,126-5,165.6-51.9c6-7.2,11.8-15.9,10.2-25.2c-1.2-6.8-6.1-12.2-10.7-17.2
	c-16-17.1-32.3-34.5-52.3-46.9c-37.8-23.5-85.7-26.9-129-16.4c-43.2,10.6-82.4,33.8-117.9,60.6c-12.9,9.7-26.6,22.1-27,38.2
	c-0.4,13.3,8.7,25.2,18.8,33.9c36.6,31.8,90.9,37.8,137.4,23.7c46.4-14.2,85.6-46.1,117.6-82.6c8.5-9.7,16.8-20.2,20.4-32.6
	c4.1-14.4,1.6-29.9-3.2-44.1c-8.5-25-24-47.7-44.2-64.7c-4.1-3.4-8.6-6.8-14-7.5c-65.7-8.3-62.1,134.6-66,173.4
	C1454.6,1333.8,1398.9,1463.3,1461,1495.3z"/>
<path id="af01" class="st0" d="M1273.4,1281.2c-67.1,75.5-52.7,197.1,2.1,282c28.4,44,72.9,84.7,125.2,82.9c28-1,54.2-14.1,77.3-30
	c40.4-27.7,75.7-66.5,86.9-114.2c4.6-19.7,5-40.2,8.3-60.1c12.1-72,62.8-143.3,37.5-211.8c-4.6-12.5-12.9-25-25.8-28.5
	c-10.1-2.7-20.7,0.6-30.4,4.5c-42.7,17.1-80.9,45.1-110.2,80.6c-20.6,25-37.3,55.2-37.7,87.7c-0.5,32.4,19.1,66.6,50.4,75
	c30,8,60.4-8.1,89.9-18.1c69-23.3,148.4-10.2,207.9,31.3c32.1,22.4,52.4,51.1,0.6,64.2c-20.5,5.2-32,3.9-45.8-12.1
	c-27.5-32-19.5-103.6-32.5-142.8c-23.7-71.5-89.7-113-158.6-137C1437.3,1206.6,1333.8,1213.3,1273.4,1281.2z"/>
<path id="af00" class="st0" d="M1740.7,1404.8c5.5-1.5,11.3-3.1,15.5-7.2c6.1-5.9,6.9-15.2,6.2-23.7c-5.1-65.1-72.2-103.3-124-143
	c-52.7-40.4-95.9-92.8-125.4-152.2c-5.6-11.3-10.8-24.2-6.7-36.1c3.6-10.3,13.3-17.1,22.8-22.6c42.8-24.7,92.9-38,141.9-32
	s96.2,32.4,122.7,74.1c4.7,7.5,8.8,15.7,8.8,24.6c-0.1,22.5-25,35.3-46.2,43c-139.9,50.8-279.7,101.5-419.5,152.3
	c-20.8,7.6-43.3,15.2-64.4,8.6c-24.9-7.7-39.9-32.9-50.1-56.9c-9.2-21.9-15.4-50.2,1.6-66.9c6-5.9,14-9.2,21.8-12.3
	c26.7-10.8,53.4-21.5,80.1-32.3c17.1-6.9,34.8-13.9,53.1-13.5c34.5,0.9,63.1,27.7,82,56.6c27.1,41.4,41.6,96.6,18.2,140.2
	c-39.7,74-155.9,68.4-207.5,134.6c-23.3,29.8-29,72.4-14.6,107.4s48.4,61.1,86,66c27.3,3.6,54.9-3.5,81.1-11.8
	c7.2-2.3,14.7-4.9,19.7-10.6c9.1-10.4,6.2-26.2,2.3-39.5c-14.2-47.6-35.3-93.2-62.5-134.8c-15.9-24.4-36.8-49.2-65.7-53.4
	c-29.9-4.3-58.7,16-75.4,41.1c-37.1,55.9-27.7,131.5-0.2,192.7c3.8,8.5,8.4,17.4,16.5,22c8.9,5,19.9,3.8,29.9,2
	c75.4-13.4,146.4-50.2,201-103.9c29.1-28.6,63.6-90,102.8-104.4C1632.7,1398,1694.6,1416.5,1740.7,1404.8z"/>
<path id="kh03" class="st0" d="M4502.2,1250.1c-11.6,49.6-49.5,92.3-97.3,109.8c-34.4,12.6-72,12.6-108.6,11.4
	c-35.2-1.1-70.8-3.3-104.2-14.6c-43-14.5-80.6-44.3-104.6-82.9c-20.5-33-30.9-71.1-40.6-108.7c-25.1-97-48.3-197.2-34.9-296.5
	c0.9-6.8,2.1-13.7,5.6-19.6c4.3-7.1,11.5-11.8,18.1-16.7c47.3-35.5,72.4-94.6,120-129.7c36.5-26.9,83-37.1,128.3-39.3
	c29.8-1.5,60.5,0.3,88.1,11.8c38.5,16,66.9,48.9,93.7,80.8c16.8,20,33.8,40.6,43,65c9,23.7,10.1,49.5,11,74.9
	c1.7,44.3,3.2,90.3-13.7,131.3c-10.7,25.9-28.2,48.5-46.9,69.3c-43.6,48.7-98.4,92.1-163.2,101.2c-18.3,2.6-37.4,2.2-54.6-4.5
	c-14.8-5.7-27.6-15.9-38.3-27.7c-40-44.1-50-107.4-52.2-167c-0.6-15.7-0.7-31.5,3-46.8c7.3-30.2,29.2-55.5,55.4-72.1
	c26.2-16.7,56.6-25.7,87-32.2c22.7-4.9,47.8-8.1,67.9,3.3c11.6,6.6,20.2,17.4,26.5,29.2c26.7,50.6,7.9,116.8-33.4,156.4
	c-19.8,19-45.1,33.4-72.5,35.3s-56.5-10.6-69.9-34.5s-6.9-58.5,16.9-72.3c20.6-11.9,48.1-5.9,66.5,9.1s29.4,37.4,37.4,59.8
	c3.3,9.3,6.5,19.2,14.1,25.4c33.8,27.7,92.1-9,123.9,28.6C4505.9,1126,4512.3,1203.6,4502.2,1250.1z"/>
<path id="kh02" class="st0" d="M4305.8,997.7c-20.4,6.8-36.3,25.6-39.8,46.8c-6.8,42,36.5,80,79.1,79.1
	c42.5-0.9,79.7-30.9,103.1-66.5c18.5-28.2,30.5-64.9,16.3-95.5c-20.5-44.4-80.2-50.8-129-48.1c-18.6,1.1-38.6,3-53.1,14.8
	c-14.3,11.6-20.4,30.3-24.9,48.1c-8.6,34.4-13.9,69.7-15.7,105.1c-2.1,41.5,3.7,89.4,37.9,113.1c33.4,23.2,81.8,12.1,111.9-15.2
	s45.6-66.9,57.9-105.7c18.1-57.2,28.1-128.3-15.1-169.9c-22.3-21.5-54-29.6-84.5-34.5c-34.9-5.6-74.1-6.8-101.5,15.4
	c-22.9,18.5-32,48.9-37.3,77.9c-10.6,57.9-10.7,117.6-0.4,175.5c9.2,51.8,30.5,106.8,77,131.4c27.7,14.7,60.3,16.4,91.7,17.5
	c30.5,1,64.1,0.8,87.5-18.9c13.7-11.5,21.8-28.3,28.6-44.8c27.9-68.2,39.5-142.9,33.7-216.4c-4.4-55.6-21.5-114.6-66-148.1
	c-30.3-22.8-69.4-30.6-107.2-31.9c-60.5-2.1-125.5,13.5-165.9,58.6c-44.6,49.8-49.5,122.8-49.2,189.7c0.2,52.4,2.5,106,22,154.6
	c5.1,12.7,11.6,25.3,21.8,34.5c13.5,12.2,31.9,17,49.6,21.5c37.9,9.6,79.4,19,114.9,2.5c22-10.2,38.6-29.2,52.6-49.1
	c36-51.1,58.8-111.4,65.7-173.6c1.9-17,2.5-34.6-2.8-50.9c-5.5-16.7-16.9-30.9-30.1-42.6c-43.6-38.5-105.4-50.6-163.4-46.4
	c-25.1,1.8-52,7.5-68.7,26.3c-14.7,16.6-18.5,40-20,62.1c-4.2,58.1,2.4,117.1,19.4,172.8c5,16.6,11.2,33.3,22.8,46.2
	s29.5,21.3,46.3,17.2c12.3-3,22.1-12,31.1-20.8c43.2-42.1,82.7-87.9,118-136.7c9.8-13.5,19.7-29.8,15-45.8
	C4425.3,1015.4,4334,988.2,4305.8,997.7z"/>
<path id="kh01" class="st0" d="M4516,996.8c23.6,47.9,32.3,101.6,39.7,154.6c4.8,34.1,2,79.9-31.3,88.8c-26,7-50-15.7-66.4-37
	c-76.6-99.6-126.4-217.1-168.1-335.6c-6.4-18.2-12.7-37.1-10.5-56.3c2.2-19.1,15.5-38.4,34.6-40.9c17.2-2.3,32.9,8.9,46.4,19.7
	c146.1,117.6,271.6,280.2,282.5,467.4c1.7,28.6-3.8,63.9-30.6,73.7c-31.8,11.7-60.6-22.6-75.9-52.8
	c-33.2-65.7-58.8-138.2-52.8-211.5s49.8-147.3,119.5-170.9c24-8.1,56.6-6.7,67.5,16.2c11.1,23.3-8.4,48.9-26.4,67.4
	c-55.5,56.7-111.1,113.6-172.1,164.4c-49.2,41-108.9,79.9-172.3,70.8c69.4-109,152.6-209.2,246.9-297.6c19.5-18.3,40.3-36.5,65.7-45
	s56.7-4.7,73.9,15.8c15.1,18,15.9,44.7,7.9,66.8s-23.6,40.5-39.2,58c-48.9,54.8-101.7,106.1-157.9,153.5
	c-50.8,42.9-112.4,84.8-178.2,75.2c-16.3-2.4-33.2-8.7-42.3-22.5c-7.5-11.3-8.3-25.7-8.3-39.2c0.4-85.2,29.1-177.7,84.1-243.9
	C4412.4,864,4483.5,930.9,4516,996.8z"/>
<path id="kh00" class="st0" d="M4210.8,1231.2c-0.5,5.7-0.9,11.7,1.5,17c3.5,7.7,12,11.6,20.2,13.8c63,17.2,121.6-33,176.5-68.3
	c55.8-35.9,119.8-58.8,185.7-66.5c12.5-1.5,26.4-2,36.2,5.9c8.5,6.9,11.6,18.3,13.6,29.1c8.8,48.6,4.3,100.3-17.9,144.4
	c-22.2,44.1-63,79.6-111.2,90.4c-8.6,1.9-17.8,3-26.1,0c-21.1-7.7-24.7-35.5-24.8-58c-0.5-148.8-0.9-297.5-1.4-446.3
	c-0.1-22.1,0.4-45.9,13.7-63.5c15.7-20.8,44.5-26.4,70.5-27.9c23.7-1.3,52.5,2.5,62.4,24.1c3.5,7.6,3.9,16.3,4.2,24.7
	c1.1,28.8,2.2,57.5,3.3,86.3c0.7,18.4,1.3,37.4-5.3,54.5c-12.5,32.2-47.4,50-81,58c-48.1,11.5-105,6.5-138.1-30.3
	c-56.2-62.4-11.6-169.8-56.5-240.8c-20.2-32-58.3-51.8-96.1-50.1s-73.9,24.9-91.2,58.6c-12.6,24.5-15.3,52.8-16.3,80.3
	c-0.3,7.5-0.4,15.5,3.3,22.1c6.7,12.1,22.6,14.7,36.4,15.5c49.6,2.7,99.7-1.7,148-13.2c28.3-6.7,58.8-18,72.5-43.7
	c14.2-26.7,4.8-60.7-13.2-84.9c-40.1-53.8-114.4-70.6-181.3-65.4c-9.3,0.7-19.2,2-26.3,8.1c-7.7,6.7-10.3,17.4-12,27.5
	c-12.9,75.5-2.3,154.8,29.8,224.3c17.1,37.1,63.2,90.3,63.5,132.1C4253.8,1131.9,4215.4,1183.9,4210.8,1231.2z"/>
<path id="khintro" class="st3" d="M3144.9,2262.5v-388c0.1-25.3,10.6-49.5,29.1-66.8l517.2-487.1c18-16.9,41.9-26.3,66.7-26.2h170.4
	"/>
<path id="ml00" class="st0" d="M4067.1,4178.8c-11.6,49.6-49.5,92.3-97.3,109.8c-34.4,12.6-72,12.6-108.6,11.4
	c-35.2-1.1-70.8-3.3-104.2-14.6c-43-14.5-80.6-44.3-104.6-82.9c-20.5-33-30.9-71.1-40.6-108.7c-25.1-97-48.3-197.2-34.9-296.5
	c0.9-6.8,2.1-13.7,5.6-19.6c4.3-7.1,11.5-11.8,18.1-16.7c47.3-35.5,72.4-94.6,120-129.7c36.5-26.9,83-37.1,128.3-39.3
	c29.8-1.5,60.5,0.3,88.1,11.8c38.5,16,66.9,48.9,93.7,80.8c16.8,20,33.8,40.6,43,65c9,23.7,10.1,49.5,11,74.9
	c1.7,44.3,3.2,90.3-13.7,131.3c-10.7,25.9-28.2,48.5-46.9,69.3c-43.6,48.7-98.4,92.1-163.2,101.2c-18.3,2.6-37.4,2.2-54.6-4.5
	c-14.8-5.7-27.6-15.9-38.3-27.7c-40-44.1-50-107.4-52.2-167c-0.6-15.7-0.7-31.5,3-46.8c7.3-30.2,29.2-55.5,55.4-72.1
	c26.2-16.7,56.6-25.7,87-32.2c22.7-4.9,47.8-8.1,67.9,3.3c11.6,6.6,20.2,17.4,26.5,29.2c26.7,50.6,7.9,116.8-33.4,156.4
	c-19.8,19-45.1,33.4-72.5,35.3c-27.4,1.9-56.5-10.6-69.9-34.5s-6.9-58.5,16.9-72.3c20.6-11.9,48.1-5.9,66.5,9.1
	c18.5,15,29.4,37.4,37.4,59.8c3.3,9.3,6.5,19.2,14.1,25.4c33.8,27.7,92.1-9,123.9,28.6C4070.9,4054.7,4077.3,4132.3,4067.1,4178.8z"
	/>
<path id="adintro" class="st3" d="M2369.4,2219.7v-115.4c0-30-46.3-54.3-103.4-54.3h-243.7c-27.4,0-53.8,5.7-73.1,15.9l-422.8,221.9
	"/>
<path id="ad00" class="st0" d="M1366.6,2516.7c-6-20.6-28.1-32-49-36.6c-31.1-6.7-66-2.5-90.3,18.1c-10.5,8.9-18.5,20.3-25.8,31.9
	c-42.1,66.4-66.1,144.2-68.8,222.7c-0.8,23.4,1.2,49.2,17.4,66c22,22.9,62.4,18,85.9-3.3s33.1-54,36.9-85.5
	c4.2-34.9,2.4-71.6-12.6-103.5c-26-55.6-90.3-88-151.6-84.4c-9.4,0.6-19.7,2.4-25.3,9.9c-4.1,5.5-4.7,12.8-5.1,19.6
	c-1.4,23.4-2.8,47.2,1.9,70.2c8.9,43.6,39.5,80.7,76.9,104.9c37.4,24.1,81.2,36.5,125.1,43.9c15.9,2.7,34.3,4.1,46.3-6.7
	c9.9-8.9,12.3-23.6,11.7-37c-2.1-48.5-35.1-92-77.3-116c-42.2-23.9-92.3-30.4-140.8-28.5c-12.9,0.5-26.2,1.7-37.7,7.6
	c-13.3,6.9-22.8,19.4-29.8,32.7c-12.3,23.4-18.1,50.2-16.5,76.6c0.3,5.3,1,10.9,4.2,15.3c39.2,53.4,140.4-47.6,171.3-71.4
	C1253.8,2632.4,1386.1,2583.7,1366.6,2516.7z"/>
<path id="ad01" class="st0" d="M1054.4,2638.7c-4.7,3.3-9.5,6.9-12,12.2c-3.6,7.7-1.1,16.7,2.6,24.3
	c27.7,59.1,103.9,71.3,166.3,90.3c63.5,19.3,122.4,53.2,170.9,98.5c9.2,8.6,18.6,18.8,18.9,31.4c0.2,10.9-6.4,20.7-13.4,29.2
	c-31.3,38.2-73.6,68.2-121.6,79.9c-48,11.6-101.5,3.5-140.9-26.2c-7-5.3-13.8-11.6-16.9-19.9c-7.8-21.1,11.1-41.8,28.1-56.5
	c113.1-96.7,226.1-193.3,339.2-290.1c16.8-14.4,35.2-29.4,57.3-30.7c26-1.5,48.9,16.8,66.9,35.7c16.3,17.2,32.1,41.6,22,63.2
	c-3.5,7.6-9.9,13.5-16.1,19.2c-21.2,19.5-42.4,38.9-63.6,58.4c-13.6,12.4-27.7,25.2-45,31.3c-32.6,11.3-68.8-3.7-96.6-24.2
	c-39.9-29.2-72.9-75.8-66.3-124.9c11.2-83.2,121.9-118.8,146.9-199c11.3-36.1,1.7-78-24-105.7s-66.8-40.2-103.7-31.6
	c-26.8,6.3-50.1,22.5-71.7,39.6c-5.9,4.6-12.1,9.7-14.7,16.8c-4.9,12.9,3.4,26.7,11.8,37.8c30.1,39.5,65.9,74.9,105.9,104.2
	c23.4,17.2,51.8,33.2,80.2,27c29.5-6.5,49.4-35.6,56.2-65c15-65.4-20.3-132.9-67.6-180.5c-6.6-6.6-14-13.3-23.2-14.8
	c-10.1-1.5-19.9,3.4-28.7,8.7c-65.9,39.1-119.5,98.5-151.6,167.9c-17.2,37.1-27.9,106.6-59.5,133.9
	C1157.9,2607.2,1093.4,2611.6,1054.4,2638.7z"/>
<path id="ad02" class="st0" d="M1101.1,2392.8c10.6-36.9,40.7-67.7,77.3-79.1c26.4-8.2,54.7-6.9,82.2-4.6
	c26.5,2.1,53.2,5.1,77.9,14.8c31.9,12.5,59.1,36.3,75.7,66.3c14.2,25.6,20.7,54.7,26.6,83.3c15.4,74,29.2,150.3,15.4,224.6
	c-0.9,5.1-2.1,10.2-4.9,14.6c-3.5,5.2-9.1,8.5-14.2,11.9c-36.9,25-58,68.6-95.1,93.3c-28.5,18.9-63.9,24.9-98.1,24.9
	c-22.5,0-45.6-2.4-65.9-12.1c-28.4-13.5-48.6-39.3-67.6-64.3c-11.9-15.7-24-31.8-30-50.5c-5.9-18.2-5.8-37.6-5.5-56.8
	c0.3-33.4,0.9-68.1,15.1-98.4c9-19.1,23-35.5,37.9-50.5c34.6-35.1,77.5-65.8,126.6-70.2c13.9-1.3,28.2-0.3,41,5.4
	c10.9,4.8,20.2,13,27.8,22.3c28.5,34.7,33.7,82.7,33.2,127.7c-0.1,11.8-0.6,23.7-4,35.1c-6.6,22.5-24,40.7-44.4,52.3
	c-20.3,11.6-43.6,17.3-66.7,21.1c-17.3,2.9-36.3,4.4-51-5c-8.5-5.4-14.6-13.8-18.9-23c-18.3-39.1-1.7-88.3,30.9-116.6
	c15.6-13.6,35.2-23.5,55.9-23.9c20.7-0.4,42.2,10,51.4,28.5c9.2,18.5,3.1,44.3-15.4,53.8c-15.9,8.2-36.4,2.7-49.7-9.3
	c-13.4-12-20.8-29.2-26-46.4c-2.1-7.1-4.2-14.7-9.7-19.6c-24.4-22.1-69.7,3.4-92.3-26.1C1093.7,2486.1,1091.7,2427.4,1101.1,2392.8z
	"/>
<path id="mlintro" class="st3" d="M2887.8,2639v781.9c0,36,18.8,68.8,48.3,84.2l320.2,166.9"/>
<path id="ml03" class="st0" d="M3833.5,4148.6c-6-20.6-28.1-32-49-36.6c-31.1-6.7-66-2.5-90.3,18.1c-10.5,8.9-18.5,20.3-25.8,31.9
	c-42.1,66.4-66.1,144.2-68.8,222.7c-0.8,23.4,1.2,49.2,17.4,66c22,22.9,62.4,18,85.9-3.3s33.1-54,36.9-85.5
	c4.2-34.9,2.4-71.6-12.6-103.5c-26-55.6-90.3-88-151.6-84.4c-9.4,0.6-19.7,2.4-25.3,9.9c-4.1,5.5-4.7,12.8-5.1,19.6
	c-1.4,23.4-2.8,47.2,1.9,70.2c8.9,43.6,39.5,80.7,76.9,104.9s81.2,36.5,125.1,43.9c15.9,2.7,34.3,4.1,46.3-6.7
	c9.9-8.9,12.3-23.6,11.7-37c-2.1-48.5-35.1-92-77.3-116s-92.3-30.4-140.8-28.5c-12.9,0.5-26.2,1.7-37.7,7.6
	c-13.3,6.9-22.8,19.4-29.8,32.7c-12.3,23.4-18.1,50.2-16.5,76.6c0.3,5.3,1,10.9,4.2,15.3c39.2,53.4,140.4-47.6,171.3-71.4
	C3720.8,4264.3,3853.1,4215.6,3833.5,4148.6z"/>
<path id="ml01" class="st0" d="M3897.6,3882.8c53.4,60.8,87.9,135.5,121.6,209.1c3.2,6.9,6.4,14.1,6.6,21.8
	c0.1,6.1-1.7,12.1-3.5,17.9c-15.8,50.7-32.6,101.7-60.3,146.9c-9.8,16-21.2,31.5-36.5,42.4c-20.7,14.7-46.9,19.8-72.2,19.7
	c-60.8-0.2-117.8-27.4-172.1-54.5c-42.3-21.1-86.7-44.6-110.9-85.3c-23.1-38.8-23.1-90.4,0.1-129.2c9.7-16.2,23.6-30.5,41.2-37.1
	c30.7-11.4,65,2.8,91.8,21.6c35.2,24.7,64.7,58.3,81.7,97.8s21,85,8.2,126.1c-7,22.2-19.4,43.6-38.9,56.3
	c-21.3,13.8-48,15.5-73.4,15.4c-21.9-0.1-44-1.3-65.4-6.1c-47.5-10.5-90.9-39-119.4-78.5s-42-89.6-37.1-138
	c1.7-16.4,5.4-32.8,13.5-47.1c7.2-12.7,17.6-23.4,28.7-33c78.1-67.5,197.1-83,290-37.9c30.5,14.8,59.5,37.3,71.3,69.1
	c8.7,23.5,6.8,50.8-5,72.9c-11.9,22.1-33.5,38.7-57.9,44.5c-40,9.4-81-9.6-115-32.7c-35.7-24.2-67.9-53.6-95.3-86.9
	c-7.5-9.1-14.7-18.5-19.3-29.3c-7.1-16.6-7.7-35.2-8.2-53.3c-0.5-18.9-1-37.8,1.3-56.5c6.9-57.1,41.6-109.5,89.9-140.2
	c25.8-16.4,45.2-22.8,75.5-17.6c31.1,5.3,60.8,17.3,87.9,33.3C3846.7,3832.6,3874.1,3856.1,3897.6,3882.8z"/>
<path id="ml02" class="st0" d="M3602.2,4020.4c14.9-23.5,32.1-45.6,52.3-64.8c34.6-32.9,78.7-56.8,126.1-62.8s97.8,6.7,133.5,38.4
	c15.2,13.5,27.5,29.9,39,46.6c26.9,38.9,50.9,80.7,63,126.5c14,52.9,11.3,110-7.6,161.4c-5.5,14.9-12.4,29.5-22.7,41.5
	c-14.8,17.4-35.5,28.5-56.2,38c-70.2,32.6-146.2,52.6-223.3,58.7c-27.2,2.2-57,1.8-78.3-15.2c-16.6-13.3-24.9-34.4-29.9-55.1
	c-4.8-19.5-7.5-39.6-7.9-59.7c-0.3-13.1,0.4-26.6,5.9-38.5c4.5-9.7,11.9-17.9,20.1-24.8c33.3-28,82.6-36.6,122.4-19
	c39.8,17.6,66.9,61.8,62.1,105c-2.6,23.4-13.6,45-25,65.6c-10,18-22.8,37.3-43,41.4c-13.5,2.7-27.9-2.6-38-12
	c-10-9.5-16.1-22.6-18.8-36.1c-7.2-35.5,7.1-72,27.1-102.1c22.9-34.4,57.6-65.2,98.9-66.7c26-1,51.1,9.9,73.4,23.4
	c17.9,10.8,35.6,24.9,41.4,45c1.6,5.7,2.2,12-0.3,17.4c-3.7,8.1-13.5,12-22.3,11.3c-8.8-0.8-16.9-5.3-24.2-10.4
	c-27.2-18.8-49-48.2-50.5-81.3c-1-21.3,6.4-42.2,16.2-61.2c23.2-44.7,63.3-83.1,112.7-92.5c13.9-2.6,28.7-2.9,41.8,2.5
	c24.9,10.1,38.7,39.6,35.1,66.2c-3.6,26.7-21.8,49.8-44.4,64.4s-49.2,21.7-75.7,26.1c-22.8,3.8-45.9,5.9-69,6.1
	c-37.8,0.4-76.3-4.2-110.5-20.2c-34.2-15.9-63.9-44.3-75.3-80.3c-4.1-12.8-5.6-27.4,0.9-39.2c8.3-15,27.6-20.9,44.7-19.3
	c6.8,0.6,13.8,2.3,19.3,6.3c13.8,10,14.3,30,13.3,46.9c-1.6,27.1-3.9,54.6-13.3,80.1c-4.6,12.5-11,24.4-19.8,34.3
	c-24.6,27.6-68.7,35.5-101.3,18.1C3509.7,4185.5,3566.4,4076.7,3602.2,4020.4z"/>
<path id="bl03" class="st0" d="M2621.1,4727c-77-9.4-144.2,61.9-221.7,60.8c1.3-38.8,44.3-62,82.6-68.7s80.6-6.3,110.7-30.9
	c4.7-3.8,9.2-8.7,9.8-14.8c1.5-15.8-21.2-20.1-36.9-18.3c-32.6,3.8-65.1,7.6-97.7,11.5c-15.8-19.4-32.6-44.1-23.5-67.5
	c7-18,26.6-27,44.5-34.3c43.9-17.9,87.8-35.8,131.7-53.7c-51.5-32.8-116.8-31.3-177.7-28.6c-13.5-22.6-5.8-54,13.8-71.5
	s48.4-22.3,74.2-17c6.5,1.4,13.1,3.4,18.1,7.8c5.9,5.3,8.6,13.1,11,20.7c40.4,131.3,28,278,7.4,411.9c-2,12.7-2.8,60.6-22.7,56.8
	c-12.5-2.4-19.6-30.4-17.2-40.4c4.9-21,43.6-33.5,58.6-48.2C2606.3,4782.7,2623.6,4756.9,2621.1,4727z"/>
</svg>
