<?xml version="1.0" encoding="utf-8"?>
<!-- Generator: Adobe Illustrator 22.0.0, SVG Export Plug-In . SVG Version: 6.00 Build 0)  -->
<svg version="1.1" id="Layer_1" xmlns="http://www.w3.org/2000/svg" xmlns:xlink="http://www.w3.org/1999/xlink" x="0px" y="0px"
	 viewBox="0 0 5000 5000" style="enable-background:new 0 0 5000 5000;" xml:space="preserve">
<style type="text/css">
	.st0{fill:none;stroke:#E2B442;stroke-width:0.5;stroke-linecap:round;stroke-miterlimit:10;}
	.st1{fill:none;stroke:#E2B442;stroke-width:0.5;stroke-linecap:round;}
	.st2{fill:none;stroke:#A0C6FF;stroke-width:0.5;stroke-linecap:round;stroke-linejoin:round;}
	.st3{fill:none;}
	.st4{fill:none;stroke:#000000;stroke-width:9.335534e-02;}
</style>
<path id="TRANSITadaf" class="st0" d="M1354.5,2189.1v-356.3c0-9.1,6-17.9,17.1-25.2l154.2-100.9"/>
<path id="TRANSITmkad" class="st0" d="M763.3,4121.7V3011c0-28.3,6.3-55.8,17.9-78.5l161.5-314.6"/>
<path id="TRANSITahkh" class="st1" d="M3396.2,837.3l567.5-1.7c26.1-0.1,49.9,6.9,61.1,17.9l121.5,119.6"/>
<path id="TRANSITkhoj" class="st1" d="M4502.8,1438l156.5,241.4c14.4,22.2,24,69.8,24.6,122.3l12.8,1138.7"/>
<path id="TRANSITojml" class="st1" d="M4645.8,3582.8l3.8,339.8c0.2,15.7-17.1,30.1-44.3,37.1l-296.6,75.9"/>
<path id="TRANSITmlbl" class="st1" d="M3496.4,3937l7.7,680.9c0.4,31.4-24.9,60.2-65.1,74l-435.8,150.3"/>
<path id="TRANSITblmk" class="st1" d="M2327,4715.7l-694.9,6.8c-32,0.3-61.3-17.2-75.2-44.9l-151.3-301.5"/>
<path id="TRANSITafah" class="st1" d="M1743.7,1005l238-377.1c21.9-34.7,68.9-56.8,120.4-57l1120.2-3.4"/>
<path id="afintro" class="st2" d="M2762.5,2236.6v-400.2c0-38.2-17.7-73.4-46.2-92l-450.9-293.9c-13-8.6-28.2-13.2-43.8-13.3h-113.7
	"/>
<path id="ad03" class="st3" d="M1159.1,2311.8c12.1-0.8,23.8,3.6,33.2,11.3c10.8,8.7,21.6,19.4,22.5,33.2
	c0.9,14.5-7.7,27.5-17.8,37.9c-10.3,10.5-23.2,19.6-37.9,19.1c-14.4-0.4-26.2-10.5-35.8-21.3c-8.9-10.1-16.2-22.4-14.8-35.8
	c1.3-12.4,12.3-20.5,21.8-28.8C1138.7,2320,1147.7,2312.6,1159.1,2311.8z"/>
<path id="ad02" class="st3" d="M1156.6,2601.3c13.8-0.7,28.8-1.6,39.2,7.5c10.8,9.5,15.5,24.7,14.1,39.1
	c-1.2,13.3-10.5,23.9-20.8,32.4c-9.2,7.6-20.6,9.9-32.5,11.3c-14.2,1.7-30.7,7.1-41.2-2.6c-10.5-9.7-6.8-26.7-5.7-41.1
	c0.9-12.8,2.3-26.2,11.5-35.3S1143.9,2601.9,1156.6,2601.3z"/>
<path id="ad01" class="st3" d="M1431.9,2393c14.8-2,31.2,3,40.4,14.7c8.7,11,4.9,26.5,3,40.5c-1.5,11.1-6.1,21.6-13.1,30.3
	c-8.4,10.7-16.7,24.8-30.3,24.8c-13.6,0-21.2-14.8-30.4-24.7c-8.7-9.4-20.8-17.6-20.9-30.5s11.6-21.7,20.4-31.1
	C1410.3,2407.2,1418.5,2394.8,1431.9,2393z"/>
<path id="adintro" class="st2" d="M2509.4,2229.7v-115.4c0-30-46.3-54.3-103.4-54.3h-243.7c-27.4,0-53.8,5.7-73.1,15.9l-422.8,221.9
	"/>
<path id="ml00" class="st3" d="M4207.1,4188.8c-11.6,49.6-49.5,92.3-97.3,109.8c-34.4,12.6-72,12.6-108.6,11.4
	c-35.2-1.1-70.8-3.3-104.2-14.6c-43-14.5-80.6-44.3-104.6-82.9c-20.5-33-30.9-71.1-40.6-108.7c-25.1-97-48.3-197.2-34.9-296.5
	c0.9-6.8,2.1-13.7,5.6-19.6c4.3-7.1,11.5-11.8,18.1-16.7c47.3-35.5,72.4-94.6,120-129.7c36.5-26.9,83-37.1,128.3-39.3
	c29.8-1.5,60.5,0.3,88.1,11.8c38.5,16,66.9,48.9,93.7,80.8c16.8,20,33.8,40.6,43,65c9,23.7,10.1,49.5,11,74.9
	c1.7,44.3,3.2,90.3-13.7,131.3c-10.7,25.9-28.2,48.5-46.9,69.3c-43.6,48.7-98.4,92.1-163.2,101.2c-18.3,2.6-37.4,2.2-54.6-4.5
	c-14.8-5.7-27.6-15.9-38.3-27.7c-40-44.1-50-107.4-52.2-167c-0.6-15.7-0.7-31.5,3-46.8c7.3-30.2,29.2-55.5,55.4-72.1
	c26.2-16.7,56.6-25.7,87-32.2c22.7-4.9,47.8-8.1,67.9,3.3c11.6,6.6,20.2,17.4,26.5,29.2c26.7,50.6,7.9,116.8-33.4,156.4
	c-19.8,19-45.1,33.4-72.5,35.3c-27.4,1.9-56.5-10.6-69.9-34.5s-6.9-58.5,16.9-72.3c20.6-11.9,48.1-5.9,66.5,9.1
	c18.5,15,29.4,37.4,37.4,59.8c3.3,9.3,6.5,19.2,14.1,25.4c33.8,27.7,92.1-9,123.9,28.6C4210.9,4064.7,4217.3,4142.3,4207.1,4188.8z"
	/>
<path id="mlintro" class="st2" d="M3027.8,2649v781.9c0,36,18.8,68.8,48.3,84.2l320.2,166.9"/>
<path id="bl02" class="st3" d="M2778.4,4262.4c47.2,44.6,76,106.3,88.2,170c14.9,78.1,3.8,165.3-48.3,225.4s-150.8,81.6-213.9,33.2
	c-47.4-36.4-64.2-99.2-96.4-149.5c-18.6-29.1-43.4-56-50-89.9c-6.9-35.7,9-73.5,36.1-97.7s63.9-35.7,100.2-36.8
	c74-2.4,145.5,36.6,193.8,92.8c48.2,56.2,75.2,128,89.2,200.7c9.5,49.1,10.7,106.9-25.6,141.2c-34.1,32.2-96,27.1-124.5-10.2
	c-22.4-29.5-23-69.4-29.5-105.8c-9.2-51.3-32.2-100-65.9-139.6c-25.5-29.9-64.8-56.3-101.9-43.3c-32.7,11.5-48.4,48.3-55.6,82.2
	c-6.1,28.7-7.4,62.1,12.4,83.7c16.7,18.1,44.9,22.3,68.6,15.4c23.7-7,43.5-23.3,60.4-41.3c31.2-33.1,55.4-74.2,62.5-119.1
	c6.4-40.4-2.3-83.5-27-116.5c-22.6-30.1-74.8-50.8-71-95C2589.3,4155.7,2738,4224.2,2778.4,4262.4z"/>
<path id="bl01" class="st3" d="M2911.6,4492.9c-68.3,21.6-136.7,43.2-205,64.8c-18.1,5.7-36.8,11.8-50.8,24.6
	c-14,12.9-21.8,34.6-12.9,51.3c23.6,13.9,53.6,5.5,79.6-3.2c38.8-13,77.6-26,116.4-39c37.6-12.6,75.7-25.4,108.6-47.5
	c32.9-22,60.7-54.8,67.9-93.8c4.8-25.9-1.4-55.7-22.4-71.5c-16.3-12.3-38.1-14-58.4-13.5c-57.8,1.4-115.1,17.1-165.5,45.5
	c-41.9,23.6-78.9,55.6-122.5,75.9s-98.3,26.8-137.7-0.8c-5.9-4.2-11.7-9.5-13.2-16.6c-2.6-12.3,8.4-22.9,18.5-30.3
	c94.9-70.1,210.2-112.2,328-119.8c19.3-1.2,45.8-10.1,41.5-29c-55.8-17.2-119.4-6.7-166.6,27.7c-47.2,34.3-76.8,91.7-77.5,150
	c-0.6,43.8,106.4,12.7,129.7,2.4c32.5-14.3,54.4-41,84.3-58.6C2930.1,4366.7,3023,4457.8,2911.6,4492.9z"/>
<path id="bl00" class="st3" d="M2606.5,4554.5c20.5,1,39.8,14.5,47.8,33.3c11,25.9,0.1,57.2-20.3,76.6
	c-20.4,19.4-48.3,28.6-75.9,33.8c-25.2,4.7-52.3,6.3-75.7-4.3c-35.6-16.1-53.7-55.7-64.9-93.2c-10.9-36.3-17.6-77.6,1.6-110.3
	c8.5-14.5,21.4-25.8,35.2-35.5c39-27.4,86.5-42.6,134.1-43c18.8-0.2,38.7,2.3,53.5,13.9c23.5,18.4,26.1,52.4,26.7,82.3
	c1.1,51.4,2.1,103.9-12.7,153.1c-7.8,26.1-20,51.1-23.5,78.2c-3.4,27,4.4,58.1,27.8,72c23.3,13.9,54.8,5.9,75.3-11.9
	s32.4-43.4,43-68.4c33.3-79.1,58.3-173.4,15.1-247.6c-42.2-72.6-133.4-98.3-216.5-110.4c-12.1-1.8-24.8-3.3-36.2,1
	c-12.8,4.8-21.8,16.2-29.6,27.5c-49.9,72.6-74,162.5-67,250.3c2.1,26.2,7.1,52.8,20.4,75.5c13.3,22.7,36.2,40.9,62.4,43.2
	c30.8,2.7,59.6-16.6,79.8-39.9c20.3-23.3,34.7-51.2,54.8-74.6c19.1-22.4,43.2-40.5,70.1-52.6c26.5-12,60.3-17,82.4,1.9
	c18.7,16,22,45.1,12.8,68c-9.2,22.8-28.4,40.2-49.1,53.6c-50.5,32.7-113.2,46.1-172.6,36.7c-12-1.9-24.6-5.1-32.9-13.9
	c-8.9-9.4-11-23.2-12.5-36.1C2554.5,4666.8,2523.1,4550.3,2606.5,4554.5z"/>
<path id="blintro" class="st2" d="M2762.6,2650v1075c-0.1,23,4.7,45.7,14.1,66.6l154.3,339.1"/>
<path id="ah00" class="st3" d="M3233.1,702.6c-6-20.6-28.1-32-49-36.6c-31.1-6.7-66-2.5-90.3,18.1c-10.5,8.9-18.5,20.3-25.8,31.9
	c-42.1,66.4-66.1,144.2-68.8,222.7c-0.8,23.4,1.2,49.2,17.4,66c22,22.9,62.4,18,85.9-3.3s33.1-54,36.9-85.5
	c4.2-34.9,2.4-71.6-12.6-103.5c-26-55.6-90.3-88-151.6-84.4c-9.4,0.6-19.7,2.4-25.3,9.9c-4.1,5.5-4.7,12.8-5.1,19.6
	c-1.4,23.4-2.8,47.2,1.9,70.2c8.9,43.6,39.5,80.7,76.9,104.9c37.4,24.1,81.2,36.5,125.1,43.9c15.9,2.7,34.3,4.1,46.3-6.7
	c9.9-8.9,12.3-23.6,11.7-37c-2.1-48.5-35.1-92-77.3-116c-42.2-23.9-92.3-30.4-140.8-28.5c-12.9,0.5-26.2,1.7-37.7,7.6
	c-13.3,6.9-22.8,19.4-29.8,32.7c-12.3,23.4-18.1,50.2-16.5,76.6c0.3,5.3,1,10.9,4.2,15.3c39.2,53.4,140.4-47.6,171.3-71.4
	C3120.3,818.4,3252.6,769.7,3233.1,702.6z"/>
<path id="ml03" class="st3" d="M3973.5,4158.6c-6-20.6-28.1-32-49-36.6c-31.1-6.7-66-2.5-90.3,18.1c-10.5,8.9-18.5,20.3-25.8,31.9
	c-42.1,66.4-66.1,144.2-68.8,222.7c-0.8,23.4,1.2,49.2,17.4,66c22,22.9,62.4,18,85.9-3.3s33.1-54,36.9-85.5
	c4.2-34.9,2.4-71.6-12.6-103.5c-26-55.6-90.3-88-151.6-84.4c-9.4,0.6-19.7,2.4-25.3,9.9c-4.1,5.5-4.7,12.8-5.1,19.6
	c-1.4,23.4-2.8,47.2,1.9,70.2c8.9,43.6,39.5,80.7,76.9,104.9s81.2,36.5,125.1,43.9c15.9,2.7,34.3,4.1,46.3-6.7
	c9.9-8.9,12.3-23.6,11.7-37c-2.1-48.5-35.1-92-77.3-116s-92.3-30.4-140.8-28.5c-12.9,0.5-26.2,1.7-37.7,7.6
	c-13.3,6.9-22.8,19.4-29.8,32.7c-12.3,23.4-18.1,50.2-16.5,76.6c0.3,5.3,1,10.9,4.2,15.3c39.2,53.4,140.4-47.6,171.3-71.4
	C3860.8,4274.3,3993.1,4225.6,3973.5,4158.6z"/>
<path id="ahintro" class="st2" d="M3027.8,2274.5v-824c0.1-21.3,7.5-41.8,21-58.3l189.5-233.4"/>
<path id="oj02" class="st3" d="M4394.3,3339.6c-9.5-11.8-17.5-25.1-21.3-39.8c-3.8-14.8-3.1-30.5-0.9-45.6
	c14-97.6,87.8-179.8,176.9-222.1c20.1-9.5,41.5-17.5,63.7-18.2c22.4-0.7,44.4,5.8,65.2,14c92.7,36.6,170.8,108.9,214.4,198.5
	c9.2,19,17.1,39.1,17.8,60.2c0.9,25.7-8.8,50.5-18.3,74.4c-31.8,79.9-70,166.9-147.7,203.9c-61.8,29.4-134.4,19.8-201.5,6.2
	c-63.2-12.8-134-34.8-161-93.4c-17.8-38.5-11.5-83.3-4.9-125.2c6.8-43.5,13.7-87,20.5-130.5c1.6-10.5,3.4-21.2,8.7-30.4
	c6-10.4,16.1-17.7,25.9-24.7c48.9-35.1,100.8-71.4,160.7-77.8c96.5-10.3,181.6,58.2,254.2,122.5c25.6,22.7,51.6,45.8,69.6,74.9
	c17.9,29.1,27,65.7,15.9,98c-13.4,38.9-53.3,63.8-93.8,70.7s-82-1-122.1-9.8C4618.9,3424.3,4460,3421.9,4394.3,3339.6z"/>
<path id="oj01" class="st3" d="M4535.2,3107.3c-67.1,75.5-52.7,197.1,2.1,282c28.4,44,72.9,84.7,125.2,82.9c28-1,54.2-14.1,77.3-30
	c40.4-27.7,75.7-66.5,86.9-114.2c4.6-19.7,5-40.2,8.3-60.1c12.1-72,62.8-143.3,37.5-211.8c-4.6-12.5-12.9-25-25.8-28.5
	c-10.1-2.7-20.7,0.6-30.4,4.5c-42.7,17.1-80.9,45.1-110.2,80.6c-20.6,25-37.3,55.2-37.7,87.7c-0.5,32.4,19.1,66.6,50.4,75
	c30,8,60.4-8.1,89.9-18.1c69-23.3,148.4-10.2,207.9,31.3c32.1,22.4,52.4,51.1,0.6,64.2c-20.5,5.2-32,3.9-45.8-12.1
	c-27.5-32-19.5-103.6-32.5-142.8c-23.7-71.5-89.7-113-158.6-137C4699.1,3032.7,4595.6,3039.4,4535.2,3107.3z"/>
<path id="oj00" class="st3" d="M4740.1,3205.4c-6-20.6-28.1-32-49-36.6c-31.1-6.7-66-2.5-90.3,18.1c-10.5,8.9-18.5,20.3-25.8,31.9
	c-42.1,66.4-66.1,144.2-68.8,222.7c-0.8,23.4,1.2,49.2,17.4,66c22,22.9,62.4,18,85.9-3.3s33.1-54,36.9-85.5
	c4.2-34.9,2.4-71.6-12.6-103.5c-26-55.6-90.3-88-151.6-84.4c-9.4,0.6-19.7,2.4-25.3,9.9c-4.1,5.5-4.7,12.8-5.1,19.6
	c-1.4,23.4-2.8,47.2,1.9,70.2c8.9,43.6,39.5,80.7,76.9,104.9c37.4,24.1,81.2,36.5,125.1,43.9c15.9,2.7,34.3,4.1,46.3-6.7
	c9.9-8.9,12.3-23.6,11.7-37c-2.1-48.5-35.1-92-77.3-116c-42.2-23.9-92.3-30.4-140.8-28.5c-12.9,0.5-26.2,1.7-37.7,7.6
	c-13.3,6.9-22.8,19.4-29.8,32.7c-12.3,23.4-18.1,50.2-16.5,76.6c0.3,5.3,1,10.9,4.2,15.3c39.2,53.4,140.4-47.6,171.3-71.4
	C4627.3,3321.1,4759.6,3272.4,4740.1,3205.4z"/>
<path id="ojintro" class="st2" d="M3285.7,2620.5v31.2c0,79.4,28.8,148.8,69.9,168.5l712.5,341.8"/>
<path id="mk04" class="st3" d="M1026.7,3836.4c12.2,1.7,19.8,12.6,28.8,21c9.7,9,23.7,15.7,24.8,28.8c1.2,13.6-8.6,26-19.3,34.4
	c-9.6,7.6-22.1,8.2-34.4,8.1c-12-0.1-24.3-1.2-33.7-8.8c-10.6-8.4-19.1-20.2-20-33.8c-0.8-14.3,5.2-28.4,15.7-38.1
	C999.1,3838.8,1013,3834.5,1026.7,3836.4z"/>
<path id="mk03" class="st3" d="M1199.5,4122c10.2-0.8,21.5-0.6,28.7,6.6s5.9,18.5,6.1,28.6c0.2,10.4,1.1,21.2-4.9,29.6
	c-7.1,9.8-17.6,18.4-29.8,18.5c-12.2,0.1-23.5-7.7-30.4-17.8c-5.9-8.7-3.3-19.8-2.1-30.2c0.9-8.9,2.1-17.8,8-24.4
	C1181.3,4126.2,1190.3,4122.8,1199.5,4122z"/>
<path id="mk02" class="st3" d="M1548,4076.6c14.8-2,31.2,3,40.4,14.7c8.7,11,4.9,26.5,3,40.5c-1.5,11.1-6.1,21.6-13.1,30.3
	c-8.4,10.7-16.7,24.8-30.3,24.8c-13.6,0-21.2-14.8-30.4-24.7c-8.7-9.4-20.8-17.6-20.9-30.5s11.6-21.7,20.4-31.1
	C1526.2,4090.8,1534.5,4078.4,1548,4076.6z"/>
<path id="mk01" class="st3" d="M1416.7,3732.9c11.7,1.3,21.3,7.7,30.4,15.2c10.6,8.7,25,16.7,25.5,30.4
	c0.5,13.9-13.4,22.9-23.4,32.6c-9.7,9.5-19,22.5-32.5,21.9c-13.3-0.5-21.4-14.1-30.1-24.4c-7.7-9.1-14.8-18.4-16.2-30.2
	c-1.6-13.4-1.4-28.6,8.2-38.1S1403.4,3731.4,1416.7,3732.9z"/>
<path id="mk00" class="st3" d="M970.9,3505.7c12.1-0.8,23.8,3.6,33.2,11.3c10.8,8.7,21.6,19.4,22.5,33.2
	c0.9,14.5-7.7,27.5-17.8,37.9c-10.3,10.5-23.2,19.6-37.9,19.1c-14.4-0.4-26.2-10.5-35.8-21.3c-8.9-10.1-16.2-22.4-14.8-35.8
	c1.3-12.4,12.3-20.5,21.8-28.8C950.5,3513.9,959.5,3506.6,970.9,3505.7z"/>
<path id="mkintro" class="st2" d="M2512.2,2694.5v386.4c0,37.2-28.8,70.4-72.6,83.9l-1130.3,349.6"/>
<circle id="START" class="st4" cx="510.9" cy="589.9" r="9.4"/>
<path id="TRANSITjlintro" class="st3" d="M520.3,563.8c40.4-76,142.5-104.8,224.3-78.4s143.4,97,179.6,175.1
	c55.2,119.1,58.3,261.3,8.4,382.7c-37.9,92.3-115.6,177.5-215,186.2c-99.4,8.8-202.8-93.7-166.8-186.8
	c32.7-84.7,144.8-104.2,234.6-90.4c249.8,38.2,465.1,244.1,514.3,492c22.6,114.1,12.8,231.9,2.7,347.8
	c-35.6,411-72.5,822.8-67.2,1235.3c4,307,36.4,628.5,206.1,884.3c217.7,328,632.4,486.6,1025.9,476.4
	c412.1-10.8,817.3-190.6,1101.7-488.9c433.2-454.4,555.9-1114.6,643.1-1736.4c15.6-111.7,30.8-224.6,19.9-336.8
	c-33.1-341.1-300.7-616.7-596.3-790.3c-197.6-116.1-417.9-201-646.7-213.2c-259.3-13.9-458,110.8-636.7,207.6
	c-171.7,92.9-291.6,193.4-372,261.4c-87.5,74-150.7,128.3-213.7,217.1c-79.4,111.8-123.1,218.4-143.8,317.5
	c-77.3,368.8-141.8,743.3-132.8,1120.1c9,376.7,95.5,758.7,300,1075.1c117.2,181.3,271.8,338.4,451.2,458.6
	c91.9,61.6,191.2,113.9,298.1,142.5c162.2,43.3,335.2,29.9,498.1-10.6c196.3-48.7,380.8-135.3,563.9-221.3
	c182.8-85.9,376-180.9,480-354c95.8-159.4,98.1-357,83.1-542.5c-21.7-268.9-82.5-552.5-272.1-744.5
	c-370.4-375.1-925.2-296.6-979.4-287.3"/>
<path id="kh03" class="st3" d="M4642.2,1260.1c-11.6,49.6-49.5,92.3-97.3,109.8c-34.4,12.6-72,12.6-108.6,11.4
	c-35.2-1.1-70.8-3.3-104.2-14.6c-43-14.5-80.6-44.3-104.6-82.9c-20.5-33-30.9-71.1-40.6-108.7c-25.1-97-48.3-197.2-34.9-296.5
	c0.9-6.8,2.1-13.7,5.6-19.6c4.3-7.1,11.5-11.8,18.1-16.7c47.3-35.5,72.4-94.6,120-129.7c36.5-26.9,83-37.1,128.3-39.3
	c29.8-1.5,60.5,0.3,88.1,11.8c38.5,16,66.9,48.9,93.7,80.8c16.8,20,33.8,40.6,43,65c9,23.7,10.1,49.5,11,74.9
	c1.7,44.3,3.2,90.3-13.7,131.3c-10.7,25.9-28.2,48.5-46.9,69.3c-43.6,48.7-98.4,92.1-163.2,101.2c-18.3,2.6-37.4,2.2-54.6-4.5
	c-14.8-5.7-27.6-15.9-38.3-27.7c-40-44.1-50-107.4-52.2-167c-0.6-15.7-0.7-31.5,3-46.8c7.3-30.2,29.2-55.5,55.4-72.1
	c26.2-16.7,56.6-25.7,87-32.2c22.7-4.9,47.8-8.1,67.9,3.3c11.6,6.6,20.2,17.4,26.5,29.2c26.7,50.6,7.9,116.8-33.4,156.4
	c-19.8,19-45.1,33.4-72.5,35.3s-56.5-10.6-69.9-34.5s-6.9-58.5,16.9-72.3c20.6-11.9,48.1-5.9,66.5,9.1s29.4,37.4,37.4,59.8
	c3.3,9.3,6.5,19.2,14.1,25.4c33.8,27.7,92.1-9,123.9,28.6C4645.9,1136,4652.3,1213.6,4642.2,1260.1z"/>
<path id="kh02" class="st3" d="M4445.8,1007.7c-20.4,6.8-36.3,25.6-39.8,46.8c-6.8,42,36.5,80,79.1,79.1
	c42.5-0.9,79.7-30.9,103.1-66.5c18.5-28.2,30.5-64.9,16.3-95.5c-20.5-44.4-80.2-50.8-129-48.1c-18.6,1.1-38.6,3-53.1,14.8
	c-14.3,11.6-20.4,30.3-24.9,48.1c-8.6,34.4-13.9,69.7-15.7,105.1c-2.1,41.5,3.7,89.4,37.9,113.1c33.4,23.2,81.8,12.1,111.9-15.2
	s45.6-66.9,57.9-105.7c18.1-57.2,28.1-128.3-15.1-169.9c-22.3-21.5-54-29.6-84.5-34.5c-34.9-5.6-74.1-6.8-101.5,15.4
	c-22.9,18.5-32,48.9-37.3,77.9c-10.6,57.9-10.7,117.6-0.4,175.5c9.2,51.8,30.5,106.8,77,131.4c27.7,14.7,60.3,16.4,91.7,17.5
	c30.5,1,64.1,0.8,87.5-18.9c13.7-11.5,21.8-28.3,28.6-44.8c27.9-68.2,39.5-142.9,33.7-216.4c-4.4-55.6-21.5-114.6-66-148.1
	c-30.3-22.8-69.4-30.6-107.2-31.9c-60.5-2.1-125.5,13.5-165.9,58.6c-44.6,49.8-49.5,122.8-49.2,189.7c0.2,52.4,2.5,106,22,154.6
	c5.1,12.7,11.6,25.3,21.8,34.5c13.5,12.2,31.9,17,49.6,21.5c37.9,9.6,79.4,19,114.9,2.5c22-10.2,38.6-29.2,52.6-49.1
	c36-51.1,58.8-111.4,65.7-173.6c1.9-17,2.5-34.6-2.8-50.9c-5.5-16.7-16.9-30.9-30.1-42.6c-43.6-38.5-105.4-50.6-163.4-46.4
	c-25.1,1.8-52,7.5-68.7,26.3c-14.7,16.6-18.5,40-20,62.1c-4.2,58.1,2.4,117.1,19.4,172.8c5,16.6,11.2,33.3,22.8,46.2
	s29.5,21.3,46.3,17.2c12.3-3,22.1-12,31.1-20.8c43.2-42.1,82.7-87.9,118-136.7c9.8-13.5,19.7-29.8,15-45.8
	C4565.3,1025.4,4474,998.2,4445.8,1007.7z"/>
<path id="kh01" class="st3" d="M4656,1006.8c23.6,47.9,32.3,101.6,39.7,154.6c4.8,34.1,2,79.9-31.3,88.8c-26,7-50-15.7-66.4-37
	c-76.6-99.6-126.4-217.1-168.1-335.6c-6.4-18.2-12.7-37.1-10.5-56.3c2.2-19.1,15.5-38.4,34.6-40.9c17.2-2.3,32.9,8.9,46.4,19.7
	c146.1,117.6,271.6,280.2,282.5,467.4c1.7,28.6-3.8,63.9-30.6,73.7c-31.8,11.7-60.6-22.6-75.9-52.8
	c-33.2-65.7-58.8-138.2-52.8-211.5s49.8-147.3,119.5-170.9c24-8.1,56.6-6.7,67.5,16.2c11.1,23.3-8.4,48.9-26.4,67.4
	c-55.5,56.7-111.1,113.6-172.1,164.4c-49.2,41-108.9,79.9-172.3,70.8c69.4-109,152.6-209.2,246.9-297.6c19.5-18.3,40.3-36.5,65.7-45
	s56.7-4.7,73.9,15.8c15.1,18,15.9,44.7,7.9,66.8s-23.6,40.5-39.2,58c-48.9,54.8-101.7,106.1-157.9,153.5
	c-50.8,42.9-112.4,84.8-178.2,75.2c-16.3-2.4-33.2-8.7-42.3-22.5c-7.5-11.3-8.3-25.7-8.3-39.2c0.4-85.2,29.1-177.7,84.1-243.9
	C4552.4,874,4623.5,940.9,4656,1006.8z"/>
<path id="kh00" class="st3" d="M4350.8,1241.2c-0.5,5.7-0.9,11.7,1.5,17c3.5,7.7,12,11.6,20.2,13.8c63,17.2,121.6-33,176.5-68.3
	c55.8-35.9,119.8-58.8,185.7-66.5c12.5-1.5,26.4-2,36.2,5.9c8.5,6.9,11.6,18.3,13.6,29.1c8.8,48.6,4.3,100.3-17.9,144.4
	c-22.2,44.1-63,79.6-111.2,90.4c-8.6,1.9-17.8,3-26.1,0c-21.1-7.7-24.7-35.5-24.8-58c-0.5-148.8-0.9-297.5-1.4-446.3
	c-0.1-22.1,0.4-45.9,13.7-63.5c15.7-20.8,44.5-26.4,70.5-27.9c23.7-1.3,52.5,2.5,62.4,24.1c3.5,7.6,3.9,16.3,4.2,24.7
	c1.1,28.8,2.2,57.5,3.3,86.3c0.7,18.4,1.3,37.4-5.3,54.5c-12.5,32.2-47.4,50-81,58c-48.1,11.5-105,6.5-138.1-30.3
	c-56.2-62.4-11.6-169.8-56.5-240.8c-20.2-32-58.3-51.8-96.1-50.1s-73.9,24.9-91.2,58.6c-12.6,24.5-15.3,52.8-16.3,80.3
	c-0.3,7.5-0.4,15.5,3.3,22.1c6.7,12.1,22.6,14.7,36.4,15.5c49.6,2.7,99.7-1.7,148-13.2c28.3-6.7,58.8-18,72.5-43.7
	c14.2-26.7,4.8-60.7-13.2-84.9c-40.1-53.8-114.4-70.6-181.3-65.4c-9.3,0.7-19.2,2-26.3,8.1c-7.7,6.7-10.3,17.4-12,27.5
	c-12.9,75.5-2.3,154.8,29.8,224.3c17.1,37.1,63.2,90.3,63.5,132.1C4393.8,1141.9,4355.4,1193.9,4350.8,1241.2z"/>
<path id="khintro" class="st2" d="M3284.9,2272.5v-388c0.1-25.3,10.6-49.5,29.1-66.8l517.2-487.1c18-16.9,41.9-26.3,66.7-26.2h170.4
	"/>
<path id="ml01" class="st3" d="M4037.6,3892.8c53.4,60.8,87.9,135.5,121.6,209.1c3.2,6.9,6.4,14.1,6.6,21.8
	c0.1,6.1-1.7,12.1-3.5,17.9c-15.8,50.7-32.6,101.7-60.3,146.9c-9.8,16-21.2,31.5-36.5,42.4c-20.7,14.7-46.9,19.8-72.2,19.7
	c-60.8-0.2-117.8-27.4-172.1-54.5c-42.3-21.1-86.7-44.6-110.9-85.3c-23.1-38.8-23.1-90.4,0.1-129.2c9.7-16.2,23.6-30.5,41.2-37.1
	c30.7-11.4,65,2.8,91.8,21.6c35.2,24.7,64.7,58.3,81.7,97.8s21,85,8.2,126.1c-7,22.2-19.4,43.6-38.9,56.3
	c-21.3,13.8-48,15.5-73.4,15.4c-21.9-0.1-44-1.3-65.4-6.1c-47.5-10.5-90.9-39-119.4-78.5s-42-89.6-37.1-138
	c1.7-16.4,5.4-32.8,13.5-47.1c7.2-12.7,17.6-23.4,28.7-33c78.1-67.5,197.1-83,290-37.9c30.5,14.8,59.5,37.3,71.3,69.1
	c8.7,23.5,6.8,50.8-5,72.9c-11.9,22.1-33.5,38.7-57.9,44.5c-40,9.4-81-9.6-115-32.7c-35.7-24.2-67.9-53.6-95.3-86.9
	c-7.5-9.1-14.7-18.5-19.3-29.3c-7.1-16.6-7.7-35.2-8.2-53.3c-0.5-18.9-1-37.8,1.3-56.5c6.9-57.1,41.6-109.5,89.9-140.2
	c25.8-16.4,45.2-22.8,75.5-17.6c31.1,5.3,60.8,17.3,87.9,33.3C3986.7,3842.6,4014.1,3866.1,4037.6,3892.8z"/>
<path id="ml02" class="st3" d="M3742.2,4030.4c14.9-23.5,32.1-45.6,52.3-64.8c34.6-32.9,78.7-56.8,126.1-62.8s97.8,6.7,133.5,38.4
	c15.2,13.5,27.5,29.9,39,46.6c26.9,38.9,50.9,80.7,63,126.5c14,52.9,11.3,110-7.6,161.4c-5.5,14.9-12.4,29.5-22.7,41.5
	c-14.8,17.4-35.5,28.5-56.2,38c-70.2,32.6-146.2,52.6-223.3,58.7c-27.2,2.2-57,1.8-78.3-15.2c-16.6-13.3-24.9-34.4-29.9-55.1
	c-4.8-19.5-7.5-39.6-7.9-59.7c-0.3-13.1,0.4-26.6,5.9-38.5c4.5-9.7,11.9-17.9,20.1-24.8c33.3-28,82.6-36.6,122.4-19
	c39.8,17.6,66.9,61.8,62.1,105c-2.6,23.4-13.6,45-25,65.6c-10,18-22.8,37.3-43,41.4c-13.5,2.7-27.9-2.6-38-12
	c-10-9.5-16.1-22.6-18.8-36.1c-7.2-35.5,7.1-72,27.1-102.1c22.9-34.4,57.6-65.2,98.9-66.7c26-1,51.1,9.9,73.4,23.4
	c17.9,10.8,35.6,24.9,41.4,45c1.6,5.7,2.2,12-0.3,17.4c-3.7,8.1-13.5,12-22.3,11.3c-8.8-0.8-16.9-5.3-24.2-10.4
	c-27.2-18.8-49-48.2-50.5-81.3c-1-21.3,6.4-42.2,16.2-61.2c23.2-44.7,63.3-83.1,112.7-92.5c13.9-2.6,28.7-2.9,41.8,2.5
	c24.9,10.1,38.7,39.6,35.1,66.2c-3.6,26.7-21.8,49.8-44.4,64.4s-49.2,21.7-75.7,26.1c-22.8,3.8-45.9,5.9-69,6.1
	c-37.8,0.4-76.3-4.2-110.5-20.2c-34.2-15.9-63.9-44.3-75.3-80.3c-4.1-12.8-5.6-27.4,0.9-39.2c8.3-15,27.6-20.9,44.7-19.3
	c6.8,0.6,13.8,2.3,19.3,6.3c13.8,10,14.3,30,13.3,46.9c-1.6,27.1-3.9,54.6-13.3,80.1c-4.6,12.5-11,24.4-19.8,34.3
	c-24.6,27.6-68.7,35.5-101.3,18.1C3649.7,4195.5,3706.4,4086.7,3742.2,4030.4z"/>
<path id="bl03" class="st3" d="M2761.1,4737c-77-9.4-144.2,61.9-221.7,60.8c1.3-38.8,44.3-62,82.6-68.7s80.6-6.3,110.7-30.9
	c4.7-3.8,9.2-8.7,9.8-14.8c1.5-15.8-21.2-20.1-36.9-18.3c-32.6,3.8-65.1,7.6-97.7,11.5c-15.8-19.4-32.6-44.1-23.5-67.5
	c7-18,26.6-27,44.5-34.3c43.9-17.9,87.8-35.8,131.7-53.7c-51.5-32.8-116.8-31.3-177.7-28.6c-13.5-22.6-5.8-54,13.8-71.5
	s48.4-22.3,74.2-17c6.5,1.4,13.1,3.4,18.1,7.8c5.9,5.3,8.6,13.1,11,20.7c40.4,131.3,28,278,7.4,411.9c-2,12.7-2.8,60.6-22.7,56.8
	c-12.5-2.4-19.6-30.4-17.2-40.4c4.9-21,43.6-33.5,58.6-48.2C2746.3,4792.7,2763.6,4766.9,2761.1,4737z"/>
</svg>
