<?xml version="1.0" encoding="utf-8"?>
<!-- Generator: Adobe Illustrator 22.0.0, SVG Export Plug-In . SVG Version: 6.00 Build 0)  -->
<svg version="1.1" id="Layer_1" xmlns="http://www.w3.org/2000/svg" xmlns:xlink="http://www.w3.org/1999/xlink" x="0px" y="0px"
	 viewBox="0 0 5000 5000" style="enable-background:new 0 0 5000 5000;" xml:space="preserve">
<style type="text/css">
	.st0{fill:none;stroke:#E2B442;stroke-width:5;stroke-miterlimit:10;}
	.st1{fill:none;stroke:#E2B442;stroke-width:5;}
	.st2{fill:none;stroke:#000000;}
	.st3{fill:none;stroke:#A0C6FF;stroke-width:5;}
	.st4{fill:none;stroke:#000000;stroke-width:0.1;}
	.st5{fill:#FFFFFF;stroke:#000000;stroke-miterlimit:10;}
	.st6{fill:none;}
	.st7{fill:#03FCFC;stroke:#000000;stroke-width:6;stroke-miterlimit:10;}
</style>
<path id="PATH-transit.adaf" class="st0" d="M979.32,1947.62v-381.68c0-9.74,6.43-19.19,18.31-27l165.15-108.1"/>
<path id="PATH-transit.mkad" class="st0" d="M346.06,4017.7V2828c0-30.34,6.73-59.81,19.17-84.05l173-337"/>
<path id="PATH-transit.ahkh" class="st1" d="M3166.45,499.6l607.91-1.82c28-0.08,53.53,7.37,65.5,19.16l130.19,128.12"/>
<path id="PATH-transit.khoj" class="st1" d="M4559.39,2752.42l-13.7-1219.79c-0.63-56.17-10.85-107.24-26.28-131l-167.67-258.6"/>
<path id="PATH-transit.ojml" class="st1" d="M4504.87,3440.51l4.09,364c0.19,16.76-18.3,32.25-47.54,39.73l-317.66,81.3"/>
<path id="PATH-transit.mlbl" class="st1" d="M3273.7,3819.93l8.19,729.36c0.37,33.58-26.73,64.5-69.69,79.31l-466.75,161"/>
<path id="PATH-transit.blmk" class="st1" d="M2021.12,4653.99l-744.41,7.26c-34.28,0.33-65.7-18.37-80.62-48.1l-162.11-322.92"/>
<path id="PATH-transit.afah" class="st1" d="M2980.06,210.55l-1199.89,3.58c-55.25,0.17-105.53,23.93-129,61.11l-255,403.87"/>
<path id="PATH-kh01" class="st2" d="M4240.64,739.76c14.8-0.8,30.8-1.7,42,8c11.6,10.2,16.6,26.5,15.1,41.9
	c-1.3,14.2-11.3,25.6-22.3,34.7c-9.9,8.1-22.1,10.6-34.8,12.1c-15.2,1.8-32.9,7.6-44.1-2.8s-7.3-28.6-6.1-44
	c1-13.7,2.5-28.1,12.3-37.8S4226.84,740.46,4240.64,739.76z"/>
<path id="PATH-kh00" class="st3" d="M3047.14,2039.06v-415.55c0.09-27.13,11.37-53.02,31.18-71.57l554-521.85
	c19.34-18.11,44.87-28.16,71.37-28.1h182.47"/>
<path id="PATH-ah01" class="st2" d="M2833.04,480.16c15.2-1,31.9,1.4,42,12.9c9.7,11.1,6.9,27.4,6.2,42.2
	c-0.7,13.7-1.8,27.4-10.2,38.2c-9.5,12.2-22.6,25-38,23.6c-15-1.4-22.3-18.2-31.4-30.2c-7.4-9.7-14.7-19.4-15.7-31.6
	c-1.1-13.3,1.4-27.1,10.1-37.3C2805.34,487.06,2818.94,481.06,2833.04,480.16z"/>
<path id="PATH-ah00" class="st3" d="M3048.04,2409.66v33.4c0,85.1,30.87,159.4,74.91,180.5l763.16,366.1"/>
<path id="PATH-oj00" class="st3" d="M2771.74,2039.06v-882.7c0.09-22.76,8.04-44.79,22.5-62.37l203-250"/>
<path id="PATH-bl01" class="st2" d="M2444.34,4148.46c14.4,0.4,28.4,3.7,39.4,13c11.9,10.1,21.5,23.6,22.3,39.2
	c0.75,16.44-5.93,32.33-18.2,43.3c-11.6,10.3-28.1,13.2-43.5,11.2c-13.6-1.8-23.5-11.8-33.1-21.5s-19.5-19.5-21-33
	c-1.7-14.9,1.7-31,12.5-41.4S2429.44,4148.06,2444.34,4148.46z"/>
<path id="PATH-bl00" class="st3" d="M2771.74,2440.16v837.48c0,38.56,20.09,73.71,51.67,90.16l343,178.82"/>
<path id="PATH-af04" class="st2" d="M1031.24,1147.66c14.8-0.8,30.8-1.7,42,8c11.6,10.2,16.6,26.5,15.1,41.9
	c-1.3,14.2-11.3,25.6-22.3,34.7c-9.9,8.1-22.1,10.6-34.8,12.1c-15.2,1.8-32.9,7.6-44.1-2.8s-7.3-28.6-6.1-44
	c1-13.7,2.5-28.1,12.3-37.8S1017.54,1148.36,1031.24,1147.66z"/>
<path id="PATH-af03" class="st2" d="M1142.94,735.16c13-0.9,25.5,3.9,35.6,12.1c11.6,9.3,23.1,20.8,24.1,35.6
	c1,15.5-8.3,29.5-19.1,40.6c-11,11.3-24.8,21-40.6,20.5c-15.4-0.4-28.1-11.2-38.3-22.8c-9.5-10.8-17.4-24-15.9-38.3
	c1.4-13.3,13.2-22,23.3-30.9C1121.24,743.86,1130.74,736.06,1142.94,735.16z"/>
<path id="PATH-af02" class="st2" d="M1445.74,1002.86c12.5,1.4,22.8,8.3,32.6,16.3c11.4,9.3,26.8,17.9,27.3,32.6
	c0.5,14.9-14.4,24.5-25.1,34.9c-10.4,10.2-20.3,24.1-34.8,23.5c-14.3-0.5-22.9-15.1-32.2-26.1c-8.2-9.7-15.8-19.7-17.3-32.3
	c-1.7-14.4-1.5-30.6,8.8-40.8S1431.44,1001.26,1445.74,1002.86z"/>
<path id="PATH-af01" class="st2" d="M1437.94,1253.86c15.8-2.1,33.4,3.2,43.3,15.7c9.3,11.8,5.3,28.4,3.2,43.4
	c-1.62,11.91-6.46,23.14-14,32.5c-9,11.5-17.9,26.6-32.5,26.6s-22.7-15.8-32.6-26.5c-9.3-10.1-22.3-18.9-22.4-32.7
	s12.4-23.2,21.8-33.3C1414.64,1269.06,1423.44,1255.76,1437.94,1253.86z"/>
<path id="PATH-af00" class="st3" d="M2487.64,1998.46v-428.7c0-40.9-19-78.6-49.47-98.5l-483-314.8
	c-13.93-9.18-30.22-14.11-46.9-14.2h-121.82"/>
<path id="PATH-mk01" class="st2" d="M1046.04,3601.26c12.5,1.4,22.8,8.3,32.6,16.3c11.4,9.3,26.8,17.9,27.3,32.6
	c0.5,14.9-14.4,24.5-25.1,34.9c-10.4,10.2-20.3,24.1-34.8,23.5c-14.3-0.5-22.9-15.1-32.2-26.1c-8.2-9.7-15.8-19.7-17.3-32.3
	c-1.7-14.4-1.5-30.6,8.8-40.8S1031.74,3599.66,1046.04,3601.26z"/>
<path id="PATH-mk00" class="st3" d="M2487.74,2440.16v1151.46c-0.11,24.57,5.04,48.88,15.1,71.3l165.3,363.21"/>
<path id="PATH-ad01" class="st2" d="M1062.34,2165.96c15.8-2.1,33.4,3.2,43.3,15.7c9.3,11.8,5.3,28.4,3.2,43.4
	c-1.62,11.91-6.46,23.14-14,32.5c-9,11.5-17.9,26.6-32.5,26.6s-22.7-15.8-32.6-26.5c-9.3-10.1-22.3-18.9-22.4-32.7
	s12.4-23.2,21.8-33.3C1039.14,2181.16,1047.94,2167.86,1062.34,2165.96z"/>
<path id="PATH-ad00" class="st3" d="M2216.44,1991.14v-123.61c0-32.14-49.64-58.15-110.78-58.15h-261.02
	c-29.39,0-57.6,6.14-78.34,17l-452.94,237.73"/>
<path id="PATH-ml01" class="st2" d="M3826.34,3688.46c13-0.9,25.5,3.9,35.6,12.1c11.6,9.3,23.1,20.8,24.1,35.6
	c1,15.5-8.3,29.5-19.1,40.6c-11,11.3-24.8,21-40.6,20.5c-15.4-0.4-28.1-11.2-38.3-22.8c-9.5-10.8-17.4-24-15.9-38.3
	c1.4-13.3,13.2-22,23.3-30.9C3804.54,3697.26,3814.14,3689.36,3826.34,3688.46z"/>
<path id="PATH-ml00" class="st3" d="M2219.44,2489v413.85c0,39.77-30.87,75.42-77.83,89.9l-1210.8,374.52"/>
<path id="PATH-bl04" class="st2" d="M2766.44,4393.26c14.4,0.4,28.4,3.7,39.4,13c11.9,10.1,21.5,23.6,22.3,39.2
	c0.75,16.44-5.93,32.33-18.2,43.3c-11.6,10.3-28.1,13.2-43.5,11.2c-13.6-1.8-23.5-11.8-33.1-21.5s-19.5-19.5-21-33
	c-1.7-14.9,1.7-31,12.5-41.4S2751.54,4392.86,2766.44,4393.26z"/>
<path id="PATH-bl03" class="st2" d="M2437.44,4552.86c13.1,1.8,21.2,13.5,30.9,22.5c10.4,9.6,25.4,16.8,26.6,30.9
	c1.3,14.6-9.2,27.8-20.7,36.9c-10.3,8.1-23.7,8.8-36.8,8.7c-12.9-0.1-26-1.3-36.1-9.4c-11.4-9-20.5-21.6-21.4-36.2
	c-0.9-15.3,5.6-30.4,16.8-40.8C2407.78,4555.45,2422.68,4550.84,2437.44,4552.86z"/>
<path id="PATH-kh04" class="st2" d="M4243.14,429.76c13-0.9,25.5,3.9,35.6,12.1c11.6,9.3,23.1,20.8,24.1,35.6
	c1,15.5-8.3,29.5-19.1,40.6c-11,11.3-24.8,21-40.6,20.5c-15.4-0.4-28.1-11.2-38.3-22.8c-9.5-10.8-17.4-24-15.9-38.3
	c1.4-13.3,13.2-22,23.3-30.9C4221.44,438.46,4231.04,430.66,4243.14,429.76z"/>
<path id="PATH-kh03" class="st2" d="M4557.14,539.06c12.5,1.4,22.8,8.3,32.6,16.3c11.4,9.3,26.8,17.9,27.3,32.6
	c0.5,14.9-14.4,24.5-25.1,34.9c-10.4,10.2-20.3,24.1-34.8,23.5c-14.3-0.5-22.9-15.1-32.2-26.1c-8.2-9.7-15.8-19.7-17.3-32.3
	c-1.7-14.4-1.5-30.6,8.8-40.8S4542.84,537.46,4557.14,539.06z"/>
<path id="PATH-kh02" class="st2" d="M4546.34,900.06c15.8-2.1,33.4,3.2,43.3,15.7c9.3,11.8,5.3,28.4,3.2,43.4
	c-1.62,11.91-6.46,23.14-14,32.5c-9,11.5-17.9,26.6-32.5,26.6s-22.7-15.8-32.6-26.5c-9.3-10.1-22.3-18.9-22.4-32.7
	s12.4-23.2,21.8-33.3C4523.04,915.26,4531.84,902.06,4546.34,900.06z"/>
<path id="PATH-bl02" class="st2" d="M2155.94,4255.66c13-0.9,25.5,3.9,35.6,12.1c11.6,9.3,23.1,20.8,24.1,35.6
	c1,15.5-8.3,29.5-19.1,40.6c-11,11.3-24.8,21-40.6,20.5c-15.4-0.4-28.1-11.2-38.3-22.8c-9.5-10.8-17.4-24-15.9-38.3
	c1.4-13.3,13.2-22,23.3-30.9C2134.14,4264.36,2143.74,4256.46,2155.94,4255.66z"/>
<path id="PATH-ml03" class="st2" d="M3559.84,3873.56c14.8-0.8,30.8-1.7,42,8c11.6,10.2,16.6,26.5,15.1,41.9
	c-1.3,14.2-11.3,25.6-22.3,34.7c-9.9,8.1-22.1,10.6-34.8,12.1c-15.2,1.8-32.9,7.6-44.1-2.8s-7.3-28.6-6.1-44
	c1-13.7,2.5-28.1,12.3-37.8S3546.14,3874.26,3559.84,3873.56z"/>
<path id="PATH-ml04" class="st2" d="M3502.74,3454.96c12.5,1.4,22.8,8.3,32.6,16.3c11.4,9.3,26.8,17.9,27.3,32.6
	c0.5,14.9-14.4,24.5-25.1,34.9c-10.4,10.2-20.3,24.1-34.8,23.5c-14.3-0.5-22.9-15.1-32.2-26.1c-8.2-9.7-15.8-19.7-17.3-32.3
	c-1.7-14.4-1.5-30.6,8.8-40.8S3488.44,3453.36,3502.74,3454.96z"/>
<path id="PATH-ml02" class="st2" d="M3889.04,4143.16c15.8-2.1,33.4,3.2,43.3,15.7c9.3,11.8,5.3,28.4,3.2,43.4
	c-1.62,11.91-6.46,23.14-14,32.5c-9,11.5-17.9,26.6-32.5,26.6s-22.7-15.8-32.6-26.5c-9.3-10.1-22.3-18.9-22.4-32.7
	s12.4-23.2,21.8-33.3C3865.84,4158.36,3874.64,4145.06,3889.04,4143.16z"/>
<path id="PATH-ad02" class="st2" d="M767.44,2389.06c14.8-0.8,30.8-1.7,42,8c11.6,10.2,16.6,26.5,15.1,41.9
	c-1.3,14.2-11.3,25.6-22.3,34.7c-9.9,8.1-22.1,10.6-34.8,12.1c-15.2,1.8-32.9,7.6-44.1-2.8s-7.3-28.6-6.1-44
	c1-13.7,2.5-28.1,12.3-37.8S753.74,2389.76,767.44,2389.06z"/>
<path id="PATH-ad03" class="st2" d="M770.04,2078.96c13-0.9,25.5,3.9,35.6,12.1c11.6,9.3,23.1,20.8,24.1,35.6
	c1,15.5-8.3,29.5-19.1,40.6c-11,11.3-24.8,21-40.6,20.5c-15.4-0.4-28.1-11.2-38.3-22.8c-9.5-10.8-17.4-24-15.9-38.3
	c1.4-13.3,13.2-22,23.3-30.9C748.24,2087.76,757.84,2079.86,770.04,2078.96z"/>
<path id="PATH-mk04" class="st2" d="M628.24,3714.26c13.1,1.8,21.2,13.5,30.9,22.5c10.4,9.6,25.4,16.8,26.6,30.9
	c1.3,14.6-9.2,27.8-20.7,36.9c-10.3,8.1-23.7,8.8-36.8,8.7c-12.9-0.1-26-1.3-36.1-9.4c-11.4-9-20.5-21.6-21.4-36.2
	c-0.9-15.3,5.6-30.4,16.8-40.8C598.56,3716.81,613.47,3712.19,628.24,3714.26z"/>
<path id="PATH-mk02" class="st2" d="M1186.64,3969.36c15.8-2.1,33.4,3.2,43.3,15.7c9.3,11.8,5.3,28.4,3.2,43.4
	c-1.62,11.91-6.46,23.14-14,32.5c-9,11.5-17.9,26.6-32.5,26.6s-22.7-15.8-32.6-26.5c-9.3-10.1-22.3-18.9-22.4-32.7
	s12.4-23.2,21.8-33.3C1163.34,3984.56,1172.14,3971.26,1186.64,3969.36z"/>
<path id="PATH-mk05" class="st2" d="M568.44,3357.86c13-0.9,25.5,3.9,35.6,12.1c11.6,9.3,23.1,20.8,24.1,35.6
	c1,15.5-8.3,29.5-19.1,40.6c-11,11.3-24.8,21-40.6,20.5c-15.4-0.4-28.1-11.2-38.3-22.8c-9.5-10.8-17.4-24-15.9-38.3
	c1.4-13.3,13.2-22,23.3-30.9C546.64,3366.66,556.24,3358.76,568.44,3357.86z"/>
<path id="PATH-mk03" class="st2" d="M813.34,4018.06c10.9-0.9,23-0.6,30.7,7.1s6.3,19.8,6.5,30.6c0.2,11.1,1.2,22.7-5.3,31.7
	c-7.6,10.5-18.8,19.7-31.9,19.8s-25.2-8.3-32.6-19.1c-6.3-9.3-3.5-21.2-2.3-32.4c1-9.5,2.2-19.1,8.6-26.1
	C793.84,4022.46,803.44,4018.86,813.34,4018.06z"/>
<path id="PATH-oj01" class="st2" d="M4513.54,3026.46c12.5,1.4,22.8,8.3,32.6,16.3c11.4,9.3,26.8,17.9,27.3,32.6
	c0.5,14.9-14.4,24.5-25.1,34.9c-10.4,10.2-20.3,24.1-34.8,23.5c-14.3-0.5-22.9-15.1-32.2-26.1c-8.2-9.7-15.8-19.7-17.3-32.3
	c-1.7-14.4-1.5-30.6,8.8-40.8S4499.24,3024.86,4513.54,3026.46z"/>
<path id="PATH-oj02" class="st2" d="M4234.04,3161.26c13.1,1.8,21.2,13.5,30.9,22.5c10.4,9.6,25.4,16.8,26.6,30.9
	c1.3,14.6-9.2,27.8-20.7,36.9c-10.3,8.1-23.7,8.8-36.8,8.7c-12.9-0.1-26-1.3-36.1-9.4c-11.4-9-20.5-21.6-21.4-36.2
	c-0.9-15.3,5.6-30.4,16.8-40.8C4204.35,3163.81,4219.27,3159.19,4234.04,3161.26z"/>
<path id="PATH-oj04" class="st2" d="M4195.14,2767.16c13-0.9,25.5,3.9,35.6,12.1c11.6,9.3,23.1,20.8,24.1,35.6
	c1,15.5-8.3,29.5-19.1,40.6c-11,11.3-24.8,21-40.6,20.5c-15.4-0.4-28.1-11.2-38.3-22.8c-9.5-10.8-17.4-24-15.9-38.3
	c1.4-13.3,13.2-22,23.3-30.9C4173.34,2775.96,4182.94,2767.96,4195.14,2767.16z"/>
<image style="overflow:visible;enable-background:new    ;" width="474" height="470" id="BLOB-bl00" xlink:href="AA10CC1547845FA4.png"  transform="matrix(0.4869 0 0 0.4869 2374.6431 2318.7769)">
</image>
<image style="overflow:visible;enable-background:new    ;" width="476" height="474" id="BLOB-af00" xlink:href="AA10CC1547845FA5.png"  transform="matrix(0.4869 0 0 0.4869 2369.2615 1986.7784)">
</image>
<image style="overflow:visible;enable-background:new    ;" width="476" height="474" id="BLOB-ah00" xlink:href="AA10CC1547845FA3.png"  transform="matrix(0.4869 0 0 0.4869 2661.5813 1986.7784)">
</image>
<image style="overflow:visible;enable-background:new    ;" width="474" height="474" id="BLOB-oj00" xlink:href="AA10CC1547845FAC.png"  transform="matrix(0.4884 0 0 0.4884 2954.0222 2317.4475)">
</image>
<image style="overflow:visible;enable-background:new    ;" width="472" height="470" id="BLOB-ad00" xlink:href="AA10CC1547845FAF.png"  transform="matrix(0.4879 0 0 0.4879 2078.1553 1987.5132)">
</image>
<image style="overflow:visible;enable-background:new    ;" width="474" height="474" id="BLOB-mk00" xlink:href="AA10CC1547845FAD.png"  transform="matrix(0.4879 0 0 0.4879 2084.2844 2317.5647)">
</image>
<image style="overflow:visible;enable-background:new    ;" width="474" height="474" id="BLOB-kh00" xlink:href="AA10CC1547845FA2.png"  transform="matrix(0.4879 0 0 0.4879 2954.1445 1986.5348)">
</image>
<image style="overflow:visible;enable-background:new    ;" width="474" height="476" id="BLOB-ml00" xlink:href="AA10CC1547845FA6.png"  transform="matrix(0.4869 0 0 0.4869 2664.2683 2317.3215)">
</image>
<image style="overflow:visible;enable-background:new    ;" width="473" height="471" id="BLOB-ad03" xlink:href="AA10CC1547845FA7.png"  transform="matrix(0.67 0 0 0.67 538.1899 1960.55)">
</image>
<image style="overflow:visible;enable-background:new    ;" width="472" height="476" id="BLOB-ad02" xlink:href="946D7F135621D303.png"  transform="matrix(0.6346 0 0 0.6346 618.5045 2308.4055)">
</image>
<image style="overflow:visible;enable-background:new    ;" width="472" height="472" id="BLOB-ad01" xlink:href="946D7F135621D301.png"  transform="matrix(0.5981 0 0 0.5981 918.2998 2103.1301)">
</image>
<image style="overflow:visible;enable-background:new    ;" width="472" height="472" id="BLOB-ah01" xlink:href="946D7F135621D307.png"  transform="matrix(0.5981 0 0 0.5981 2692.8696 397.4499)">
</image>
<image style="overflow:visible;enable-background:new    ;" width="472" height="472" id="BLOB-mk01" xlink:href="946D7F135621D302.png"  transform="matrix(0.5782 0 0 0.5782 930.6748 3522.2451)">
</image>
<image style="overflow:visible;enable-background:new    ;" width="475" height="473" id="BLOB-ml01" xlink:href="946D7F135621D31D.png"  transform="matrix(0.5559 0 0 0.5559 3710.4622 3641.4783)">
</image>
<image style="overflow:visible;enable-background:new    ;" width="473" height="471" id="BLOB-bl04" xlink:href="946D7F135621D31E.png"  transform="matrix(0.67 0 0 0.67 2664.4199 4284.8501)">
</image>
<image style="overflow:visible;enable-background:new    ;" width="475" height="472" id="BLOB-bl03" xlink:href="946D7F135621D31F.png"  transform="matrix(0.6287 0 0 0.6287 2316.531 4442.9092)">
</image>
<image style="overflow:visible;enable-background:new    ;" width="472" height="476" id="BLOB-bl02" xlink:href="946D7F135621D304.png"  transform="matrix(0.6346 0 0 0.6346 1960.4845 4138.1055)">
</image>
<image style="overflow:visible;enable-background:new    ;" width="473" height="475" id="BLOB-bl01" xlink:href="946D7F135621D305.png"  transform="matrix(0.5559 0 0 0.5559 2333.218 4045.7024)">
</image>
<image style="overflow:visible;enable-background:new    ;" width="473" height="470" id="BLOB-oj04" xlink:href="946D7F135621D306.png"  transform="matrix(0.6707 0 0 0.6707 4039.5024 2663.4185)">
</image>
<image style="overflow:visible;enable-background:new    ;" width="476" height="476" id="BLOB-oj02" xlink:href="946D7F135621D33A.png"  transform="matrix(0.6346 0 0 0.6346 4081.9299 3058.4001)">
</image>
<image style="overflow:visible;enable-background:new    ;" width="470" height="472" id="BLOB-oj01" xlink:href="946D7F135621D339.png"  transform="matrix(0.5794 0 0 0.5794 4414.355 2922.0654)">
</image>
<image style="overflow:visible;enable-background:new    ;" width="474" height="474" id="BLOB-kh04" xlink:href="946D7F135621D326.png"  transform="matrix(0.6579 0 0 0.6579 4056.0747 312.3749)">
</image>
<image style="overflow:visible;enable-background:new    ;" width="475" height="472" id="BLOB-kh03" xlink:href="946D7F135621D329.png"  transform="matrix(0.6287 0 0 0.6287 4402.3105 446.7591)">
</image>
<image style="overflow:visible;enable-background:new    ;" width="474" height="476" id="BLOB-kh02" xlink:href="946D7F135621D32A.png"  transform="matrix(0.6339 0 0 0.6339 4410.6265 806.9227)">
</image>
<image style="overflow:visible;enable-background:new    ;" width="472" height="472" id="BLOB-kh01" xlink:href="946D7F135621D328.png"  transform="matrix(0.5981 0 0 0.5981 4070.7297 676.48)">
</image>
<image style="overflow:visible;enable-background:new    ;" width="458" height="474" id="BLOB-mk02" xlink:href="946D7F135621D32E.png"  transform="matrix(0.6359 0 0 0.6359 1079.4332 3863.3362)">
</image>
<image style="overflow:visible;enable-background:new    ;" width="458" height="474" id="BLOB-ml02" xlink:href="946D7F135621D32B.png"  transform="matrix(0.6359 0 0 0.6359 3771.9331 4026.1462)">
</image>
<image style="overflow:visible;enable-background:new    ;" width="466" height="471" id="BLOB-af04" xlink:href="946D7F135621D316.png"  transform="matrix(0.66 0 0 0.66 874.9499 1030.9801)">
</image>
<image style="overflow:visible;enable-background:new    ;" width="458" height="474" id="BLOB-af02" xlink:href="946D7F135621D317.png"  transform="matrix(0.6359 0 0 0.6359 1303.8832 861.3062)">
</image>
<image style="overflow:visible;enable-background:new    ;" width="473" height="475" id="BLOB-af01" xlink:href="946D7F135621D34D.png"  transform="matrix(0.5559 0 0 0.5559 1313.4481 1195.7324)">
</image>
<image style="overflow:visible;enable-background:new    ;" width="472" height="472" id="BLOB-mk03" xlink:href="946D7F135621D34B.png"  transform="matrix(0.6287 0 0 0.6287 688.5646 3884.5847)">
</image>
<image style="overflow:visible;enable-background:new    ;" width="470" height="472" id="BLOB-af03" xlink:href="946D7F135621D375.png"  transform="matrix(0.63 0 0 0.63 964.4099 659.0201)">
</image>
<image style="overflow:visible;enable-background:new    ;" width="473" height="472" id="BLOB-ml03" xlink:href="946D7F135621D377.png"  transform="matrix(0.63 0 0 0.63 3399.3643 3840.9744)">
</image>
<image style="overflow:visible;enable-background:new    ;" width="468" height="472" id="BLOB-mk04" xlink:href="946D7F135621D374.png"  transform="matrix(0.6579 0 0 0.6579 441.442 3602.6763)">
</image>
<image style="overflow:visible;enable-background:new    ;" width="474" height="472" id="BLOB-ml04" xlink:href="946D7F135621D37B.png"  transform="matrix(0.6593 0 0 0.6593 3362.5056 3391.1648)">
</image>
<image style="overflow:visible;enable-background:new    ;" width="475" height="474" id="BLOB-mk05" xlink:href="946D7F135621D37D.png"  transform="matrix(0.6572 0 0 0.6572 420.7106 3232.4492)">
</image>
<image style="overflow:visible;enable-background:new    ;" width="293" height="293" id="BLOB-transit.afah" xlink:href="946D7F135621D37F.png"  transform="matrix(0.4065 0 0 0.4065 920.2523 1901.4675)">
</image>
<image style="overflow:visible;enable-background:new    ;" width="293" height="293" id="BLOB-transit.khoj" xlink:href="946D7F135621D37C.png"  transform="matrix(0.4065 0 0 0.4065 1336.3723 615.2975)">
</image>
<image style="overflow:visible;enable-background:new    ;" width="293" height="293" id="BLOB-transit.adaf" xlink:href="946D7F135621D376.png"  transform="matrix(0.4065 0 0 0.4065 4286.0625 1083.1875)">
</image>
<image style="overflow:visible;enable-background:new    ;" width="293" height="291" id="BLOB-transit.mkad.image" xlink:href="946D7F135621D350.png"  transform="matrix(0.4079 0 0 0.4079 286.7887 3973.1318)">
</image>
<image style="overflow:visible;enable-background:new    ;" width="291" height="291" id="BLOB-transit.blmk" xlink:href="946D7F135621D353.png"  transform="matrix(0.4065 0 0 0.4065 1960.3873 4590.4326)">
</image>
<image style="overflow:visible;enable-background:new    ;" width="293" height="279" id="BLOB-transit.ojml" xlink:href="946D7F135621D351.png"  transform="matrix(0.405 0 0 0.405 4432.4873 3356.177)">
</image>
<image style="overflow:visible;enable-background:new    ;" width="293" height="293" id="BLOB-transit.ahkh" xlink:href="946D7F135621D357.png"  transform="matrix(0.4058 0 0 0.4058 3096.8398 452.14)">
</image>
<image style="overflow:visible;enable-background:new    ;" width="293" height="291" id="BLOB-transit.mlbl" xlink:href="946D7F135621D352.png"  transform="matrix(0.4072 0 0 0.4072 3218.7969 3757.1738)">
</image>
<circle id="START" class="st4" cx="836.82" cy="2261.21" r="10.13"/>
<circle id="BLOB-test2" class="st5" cx="480.14" cy="2124.79" r="40.73"/>
<path id="PATH-test2" class="st6" d="M489.04,2127.96c13-0.9,25.5,3.9,35.6,12.1c11.6,9.3,23.1,20.8,24.1,35.6
	c1,15.5-8.3,29.5-19.1,40.6c-11,11.3-24.8,21-40.6,20.5c-15.4-0.4-28.1-11.2-38.3-22.8c-9.5-10.8-17.4-24-15.9-38.3
	c1.4-13.3,13.2-22,23.3-30.9C467.24,2136.76,476.84,2128.86,489.04,2127.96z"/>
<path id="BLOB-transit.mkad" class="st7" d="M492.11,2397.44c1.78,17,0,70.12,43.32,70.12s44.74-5.95,56.11-25.35
	c11.36-19.4,10.65-51.36,0-64.85c-10.65-13.49-44.03-26.28-60.37-19.18S490.72,2384.26,492.11,2397.44z"/>
<circle id="BLOB-test1" class="st5" cx="413.04" cy="2321.86" r="40.73"/>
<path id="PATH-test1" class="st6" d="M480.14,2298.58c-52.14-72.84-130.19-412.32,11.91-412.32s623.42,324.61,650.35,192.6
	c26.93-132.01-322.95-397.4-329.86-192.6c-6.9,204.8-87.51,683.27,131.27,647.93c218.78-35.34,338.98-258.55,115.64-309.35
	s-240.18,186.63-393.32,137.76C512.98,2313.72,524.71,2360.84,480.14,2298.58z"/>
</svg>
