<?xml version="1.0" encoding="utf-8"?>
<!-- Generator: Adobe Illustrator 22.0.0, SVG Export Plug-In . SVG Version: 6.00 Build 0)  -->
<svg version="1.1" id="Layer_1" xmlns="http://www.w3.org/2000/svg" xmlns:xlink="http://www.w3.org/1999/xlink" x="0px" y="0px"
	 viewBox="0 0 5000 5000" style="enable-background:new 0 0 5000 5000;" xml:space="preserve">
<style type="text/css">
	.st0{fill:none;stroke:#E2B442;stroke-width:5;stroke-miterlimit:10;}
	.st1{fill:none;stroke:#E2B442;stroke-width:5;}
	.st2{fill:none;}
	.st3{fill:none;stroke:#A0C6FF;stroke-width:5;}
	.st4{fill:none;stroke:#000000;stroke-width:0.1;}
</style>
<path id="PATH-transit.adaf" class="st0" d="M979.3,1947.6v-381.7c0-9.7,6.4-19.2,18.3-27l165.2-108.1"/>
<path id="PATH-transit.mkad" class="st0" d="M346.1,4017.7V2828c0-30.3,6.7-59.8,19.2-84.1l173-337"/>
<path id="PATH-transit.ahkh" class="st1" d="M3166.4,499.6l607.9-1.8c28-0.1,53.5,7.4,65.5,19.2L3970,645.1"/>
<path id="PATH-transit.khoj" class="st1" d="M4559.4,2752.4l-13.7-1219.8c-0.6-56.2-10.9-107.2-26.3-131L4351.7,1143"/>
<path id="PATH-transit.ojml" class="st1" d="M4504.9,3440.5l4.1,364c0.2,16.8-18.3,32.2-47.5,39.7l-317.7,81.3"/>
<path id="PATH-transit.mlbl" class="st1" d="M3273.7,3819.9l8.2,729.4c0.4,33.6-26.7,64.5-69.7,79.3l-466.8,161"/>
<path id="PATH-transit.blmk" class="st1" d="M2021.1,4654l-744.4,7.3c-34.3,0.3-65.7-18.4-80.6-48.1L1034,4290.2"/>
<path id="PATH-transit.afah" class="st1" d="M2980.1,210.6l-1199.9,3.6c-55.2,0.2-105.5,23.9-129,61.1l-255,403.9"/>
<path id="PATH-kh01" class="st2" d="M4240.6,739.8c14.8-0.8,30.8-1.7,42,8c11.6,10.2,16.6,26.5,15.1,41.9
	c-1.3,14.2-11.3,25.6-22.3,34.7c-9.9,8.1-22.1,10.6-34.8,12.1c-15.2,1.8-32.9,7.6-44.1-2.8s-7.3-28.6-6.1-44
	c1-13.7,2.5-28.1,12.3-37.8S4226.8,740.5,4240.6,739.8z"/>
<path id="PATH-kh00" class="st3" d="M3047.1,2039.1v-415.6c0.1-27.1,11.4-53,31.2-71.6l554-521.8c19.3-18.1,44.9-28.2,71.4-28.1
	h182.5"/>
<path id="PATH-ah01" class="st2" d="M2833,480.2c15.2-1,31.9,1.4,42,12.9c9.7,11.1,6.9,27.4,6.2,42.2c-0.7,13.7-1.8,27.4-10.2,38.2
	c-9.5,12.2-22.6,25-38,23.6c-15-1.4-22.3-18.2-31.4-30.2c-7.4-9.7-14.7-19.4-15.7-31.6c-1.1-13.3,1.4-27.1,10.1-37.3
	C2805.3,487.1,2818.9,481.1,2833,480.2z"/>
<path id="PATH-ah00" class="st3" d="M3048,2409.7v33.4c0,85.1,30.9,159.4,74.9,180.5l763.2,366.1"/>
<path id="PATH-oj00" class="st3" d="M2771.7,2039.1v-882.7c0.1-22.8,8-44.8,22.5-62.4l203-250"/>
<path id="PATH-bl01" class="st2" d="M2444.3,4148.5c14.4,0.4,28.4,3.7,39.4,13c11.9,10.1,21.5,23.6,22.3,39.2
	c0.8,16.4-5.9,32.3-18.2,43.3c-11.6,10.3-28.1,13.2-43.5,11.2c-13.6-1.8-23.5-11.8-33.1-21.5s-19.5-19.5-21-33
	c-1.7-14.9,1.7-31,12.5-41.4S2429.4,4148.1,2444.3,4148.5z"/>
<path id="PATH-bl00" class="st3" d="M2771.7,2440.2v837.5c0,38.6,20.1,73.7,51.7,90.2l343,178.8"/>
<path id="PATH-af04" class="st2" d="M1031.2,1147.7c14.8-0.8,30.8-1.7,42,8c11.6,10.2,16.6,26.5,15.1,41.9
	c-1.3,14.2-11.3,25.6-22.3,34.7c-9.9,8.1-22.1,10.6-34.8,12.1c-15.2,1.8-32.9,7.6-44.1-2.8s-7.3-28.6-6.1-44
	c1-13.7,2.5-28.1,12.3-37.8S1017.5,1148.4,1031.2,1147.7z"/>
<path id="PATH-af03" class="st2" d="M1142.9,735.2c13-0.9,25.5,3.9,35.6,12.1c11.6,9.3,23.1,20.8,24.1,35.6
	c1,15.5-8.3,29.5-19.1,40.6c-11,11.3-24.8,21-40.6,20.5c-15.4-0.4-28.1-11.2-38.3-22.8c-9.5-10.8-17.4-24-15.9-38.3
	c1.4-13.3,13.2-22,23.3-30.9C1121.2,743.9,1130.7,736.1,1142.9,735.2z"/>
<path id="PATH-af02" class="st2" d="M1445.7,1002.9c12.5,1.4,22.8,8.3,32.6,16.3c11.4,9.3,26.8,17.9,27.3,32.6
	c0.5,14.9-14.4,24.5-25.1,34.9c-10.4,10.2-20.3,24.1-34.8,23.5c-14.3-0.5-22.9-15.1-32.2-26.1c-8.2-9.7-15.8-19.7-17.3-32.3
	c-1.7-14.4-1.5-30.6,8.8-40.8S1431.4,1001.3,1445.7,1002.9z"/>
<path id="PATH-af01" class="st2" d="M1437.9,1253.9c15.8-2.1,33.4,3.2,43.3,15.7c9.3,11.8,5.3,28.4,3.2,43.4
	c-1.6,11.9-6.5,23.1-14,32.5c-9,11.5-17.9,26.6-32.5,26.6s-22.7-15.8-32.6-26.5c-9.3-10.1-22.3-18.9-22.4-32.7s12.4-23.2,21.8-33.3
	C1414.6,1269.1,1423.4,1255.8,1437.9,1253.9z"/>
<path id="PATH-af00" class="st3" d="M2487.6,1998.5v-428.7c0-40.9-19-78.6-49.5-98.5l-483-314.8c-13.9-9.2-30.2-14.1-46.9-14.2
	h-121.8"/>
<path id="PATH-mk01" class="st2" d="M1046,3601.3c12.5,1.4,22.8,8.3,32.6,16.3c11.4,9.3,26.8,17.9,27.3,32.6
	c0.5,14.9-14.4,24.5-25.1,34.9c-10.4,10.2-20.3,24.1-34.8,23.5c-14.3-0.5-22.9-15.1-32.2-26.1c-8.2-9.7-15.8-19.7-17.3-32.3
	c-1.7-14.4-1.5-30.6,8.8-40.8S1031.7,3599.7,1046,3601.3z"/>
<path id="PATH-mk00" class="st3" d="M2487.7,2440.2v1151.5c-0.1,24.6,5,48.9,15.1,71.3l165.3,363.2"/>
<path id="PATH-ad01" class="st2" d="M1062.3,2166c15.8-2.1,33.4,3.2,43.3,15.7c9.3,11.8,5.3,28.4,3.2,43.4
	c-1.6,11.9-6.5,23.1-14,32.5c-9,11.5-17.9,26.6-32.5,26.6s-22.7-15.8-32.6-26.5c-9.3-10.1-22.3-18.9-22.4-32.7s12.4-23.2,21.8-33.3
	C1039.1,2181.2,1047.9,2167.9,1062.3,2166z"/>
<path id="PATH-ad00" class="st3" d="M2216.4,1991.1v-123.6c0-32.1-49.6-58.2-110.8-58.2h-261c-29.4,0-57.6,6.1-78.3,17l-452.9,237.7
	"/>
<path id="PATH-ml01" class="st2" d="M3826.3,3688.5c13-0.9,25.5,3.9,35.6,12.1c11.6,9.3,23.1,20.8,24.1,35.6
	c1,15.5-8.3,29.5-19.1,40.6c-11,11.3-24.8,21-40.6,20.5c-15.4-0.4-28.1-11.2-38.3-22.8c-9.5-10.8-17.4-24-15.9-38.3
	c1.4-13.3,13.2-22,23.3-30.9C3804.5,3697.3,3814.1,3689.4,3826.3,3688.5z"/>
<path id="PATH-ml00" class="st3" d="M2219.4,2489v413.9c0,39.8-30.9,75.4-77.8,89.9L930.8,3367.3"/>
<path id="PATH-bl04" class="st2" d="M2766.4,4393.3c14.4,0.4,28.4,3.7,39.4,13c11.9,10.1,21.5,23.6,22.3,39.2
	c0.8,16.4-5.9,32.3-18.2,43.3c-11.6,10.3-28.1,13.2-43.5,11.2c-13.6-1.8-23.5-11.8-33.1-21.5s-19.5-19.5-21-33
	c-1.7-14.9,1.7-31,12.5-41.4S2751.5,4392.9,2766.4,4393.3z"/>
<path id="PATH-bl03" class="st2" d="M2437.4,4552.9c13.1,1.8,21.2,13.5,30.9,22.5c10.4,9.6,25.4,16.8,26.6,30.9
	c1.3,14.6-9.2,27.8-20.7,36.9c-10.3,8.1-23.7,8.8-36.8,8.7c-12.9-0.1-26-1.3-36.1-9.4c-11.4-9-20.5-21.6-21.4-36.2
	c-0.9-15.3,5.6-30.4,16.8-40.8C2407.8,4555.5,2422.7,4550.8,2437.4,4552.9z"/>
<path id="PATH-kh04" class="st2" d="M4243.1,429.8c13-0.9,25.5,3.9,35.6,12.1c11.6,9.3,23.1,20.8,24.1,35.6
	c1,15.5-8.3,29.5-19.1,40.6c-11,11.3-24.8,21-40.6,20.5c-15.4-0.4-28.1-11.2-38.3-22.8c-9.5-10.8-17.4-24-15.9-38.3
	c1.4-13.3,13.2-22,23.3-30.9C4221.4,438.5,4231,430.7,4243.1,429.8z"/>
<path id="PATH-kh03" class="st2" d="M4557.1,539.1c12.5,1.4,22.8,8.3,32.6,16.3c11.4,9.3,26.8,17.9,27.3,32.6
	c0.5,14.9-14.4,24.5-25.1,34.9c-10.4,10.2-20.3,24.1-34.8,23.5c-14.3-0.5-22.9-15.1-32.2-26.1c-8.2-9.7-15.8-19.7-17.3-32.3
	c-1.7-14.4-1.5-30.6,8.8-40.8S4542.8,537.5,4557.1,539.1z"/>
<path id="PATH-kh02" class="st2" d="M4546.3,900.1c15.8-2.1,33.4,3.2,43.3,15.7c9.3,11.8,5.3,28.4,3.2,43.4
	c-1.6,11.9-6.5,23.1-14,32.5c-9,11.5-17.9,26.6-32.5,26.6s-22.7-15.8-32.6-26.5c-9.3-10.1-22.3-18.9-22.4-32.7s12.4-23.2,21.8-33.3
	C4523,915.3,4531.8,902.1,4546.3,900.1z"/>
<path id="PATH-bl02" class="st2" d="M2155.9,4255.7c13-0.9,25.5,3.9,35.6,12.1c11.6,9.3,23.1,20.8,24.1,35.6
	c1,15.5-8.3,29.5-19.1,40.6c-11,11.3-24.8,21-40.6,20.5c-15.4-0.4-28.1-11.2-38.3-22.8c-9.5-10.8-17.4-24-15.9-38.3
	c1.4-13.3,13.2-22,23.3-30.9C2134.1,4264.4,2143.7,4256.5,2155.9,4255.7z"/>
<path id="PATH-ml03" class="st2" d="M3559.8,3873.6c14.8-0.8,30.8-1.7,42,8c11.6,10.2,16.6,26.5,15.1,41.9
	c-1.3,14.2-11.3,25.6-22.3,34.7c-9.9,8.1-22.1,10.6-34.8,12.1c-15.2,1.8-32.9,7.6-44.1-2.8s-7.3-28.6-6.1-44
	c1-13.7,2.5-28.1,12.3-37.8S3546.1,3874.3,3559.8,3873.6z"/>
<path id="PATH-ml04" class="st2" d="M3502.7,3455c12.5,1.4,22.8,8.3,32.6,16.3c11.4,9.3,26.8,17.9,27.3,32.6
	c0.5,14.9-14.4,24.5-25.1,34.9c-10.4,10.2-20.3,24.1-34.8,23.5c-14.3-0.5-22.9-15.1-32.2-26.1c-8.2-9.7-15.8-19.7-17.3-32.3
	c-1.7-14.4-1.5-30.6,8.8-40.8S3488.4,3453.4,3502.7,3455z"/>
<path id="PATH-ml02" class="st2" d="M3889,4143.2c15.8-2.1,33.4,3.2,43.3,15.7c9.3,11.8,5.3,28.4,3.2,43.4
	c-1.6,11.9-6.5,23.1-14,32.5c-9,11.5-17.9,26.6-32.5,26.6s-22.7-15.8-32.6-26.5c-9.3-10.1-22.3-18.9-22.4-32.7s12.4-23.2,21.8-33.3
	C3865.8,4158.4,3874.6,4145.1,3889,4143.2z"/>
<path id="PATH-ad02" class="st2" d="M767.4,2389.1c14.8-0.8,30.8-1.7,42,8c11.6,10.2,16.6,26.5,15.1,41.9
	c-1.3,14.2-11.3,25.6-22.3,34.7c-9.9,8.1-22.1,10.6-34.8,12.1c-15.2,1.8-32.9,7.6-44.1-2.8s-7.3-28.6-6.1-44
	c1-13.7,2.5-28.1,12.3-37.8S753.7,2389.8,767.4,2389.1z"/>
<path id="PATH-ad03" class="st2" d="M770,2079c13-0.9,25.5,3.9,35.6,12.1c11.6,9.3,23.1,20.8,24.1,35.6c1,15.5-8.3,29.5-19.1,40.6
	c-11,11.3-24.8,21-40.6,20.5c-15.4-0.4-28.1-11.2-38.3-22.8c-9.5-10.8-17.4-24-15.9-38.3c1.4-13.3,13.2-22,23.3-30.9
	C748.2,2087.8,757.8,2079.9,770,2079z"/>
<path id="PATH-mk04" class="st2" d="M628.2,3714.3c13.1,1.8,21.2,13.5,30.9,22.5c10.4,9.6,25.4,16.8,26.6,30.9
	c1.3,14.6-9.2,27.8-20.7,36.9c-10.3,8.1-23.7,8.8-36.8,8.7c-12.9-0.1-26-1.3-36.1-9.4c-11.4-9-20.5-21.6-21.4-36.2
	c-0.9-15.3,5.6-30.4,16.8-40.8C598.6,3716.8,613.5,3712.2,628.2,3714.3z"/>
<path id="PATH-mk02" class="st2" d="M1186.6,3969.4c15.8-2.1,33.4,3.2,43.3,15.7c9.3,11.8,5.3,28.4,3.2,43.4
	c-1.6,11.9-6.5,23.1-14,32.5c-9,11.5-17.9,26.6-32.5,26.6s-22.7-15.8-32.6-26.5c-9.3-10.1-22.3-18.9-22.4-32.7s12.4-23.2,21.8-33.3
	C1163.3,3984.6,1172.1,3971.3,1186.6,3969.4z"/>
<path id="PATH-mk05" class="st2" d="M568.4,3357.9c13-0.9,25.5,3.9,35.6,12.1c11.6,9.3,23.1,20.8,24.1,35.6
	c1,15.5-8.3,29.5-19.1,40.6c-11,11.3-24.8,21-40.6,20.5c-15.4-0.4-28.1-11.2-38.3-22.8c-9.5-10.8-17.4-24-15.9-38.3
	c1.4-13.3,13.2-22,23.3-30.9C546.6,3366.7,556.2,3358.8,568.4,3357.9z"/>
<path id="PATH-mk03" class="st2" d="M813.3,4018.1c10.9-0.9,23-0.6,30.7,7.1s6.3,19.8,6.5,30.6c0.2,11.1,1.2,22.7-5.3,31.7
	c-7.6,10.5-18.8,19.7-31.9,19.8s-25.2-8.3-32.6-19.1c-6.3-9.3-3.5-21.2-2.3-32.4c1-9.5,2.2-19.1,8.6-26.1
	C793.8,4022.5,803.4,4018.9,813.3,4018.1z"/>
<path id="PATH-oj01" class="st2" d="M4513.5,3026.5c12.5,1.4,22.8,8.3,32.6,16.3c11.4,9.3,26.8,17.9,27.3,32.6
	c0.5,14.9-14.4,24.5-25.1,34.9c-10.4,10.2-20.3,24.1-34.8,23.5c-14.3-0.5-22.9-15.1-32.2-26.1c-8.2-9.7-15.8-19.7-17.3-32.3
	c-1.7-14.4-1.5-30.6,8.8-40.8S4499.2,3024.9,4513.5,3026.5z"/>
<path id="PATH-oj02" class="st2" d="M4234,3161.3c13.1,1.8,21.2,13.5,30.9,22.5c10.4,9.6,25.4,16.8,26.6,30.9
	c1.3,14.6-9.2,27.8-20.7,36.9c-10.3,8.1-23.7,8.8-36.8,8.7c-12.9-0.1-26-1.3-36.1-9.4c-11.4-9-20.5-21.6-21.4-36.2
	c-0.9-15.3,5.6-30.4,16.8-40.8C4204.4,3163.8,4219.3,3159.2,4234,3161.3z"/>
<path id="PATH-oj04" class="st2" d="M4195.1,2767.2c13-0.9,25.5,3.9,35.6,12.1c11.6,9.3,23.1,20.8,24.1,35.6
	c1,15.5-8.3,29.5-19.1,40.6c-11,11.3-24.8,21-40.6,20.5c-15.4-0.4-28.1-11.2-38.3-22.8c-9.5-10.8-17.4-24-15.9-38.3
	c1.4-13.3,13.2-22,23.3-30.9C4173.3,2776,4182.9,2768,4195.1,2767.2z"/>
<circle id="START" class="st4" cx="836.8" cy="2261.2" r="10.1"/>
<path id="PATH-transit.jlintro" class="st4" d="M243.4,538.6c0,0,336.3,596.7,827.7,517.5s451-298.2,242.3-266.6
	S1056.1,3615,1450.5,3742.8C1845,3870.6,3720.5,5028,3668.7,4475.7c-51.8-552.3-110-2403.2,160.3-2066.1s546.3,985.9,203.1,957.6
	s-2220.7-275.8-2146.7-545.8c74-269.9,604.5-581.6,692.6-570.4"/>
</svg>
