<svg width="5000" height="5000" viewBox="0 0 5000 5000" fill="none" xmlns="http://www.w3.org/2000/svg">
<circle cx="2004" cy="4338" r="27.75" stroke="#A0C6FF" stroke-width="0.5"/>
<circle cx="1671" cy="4239" r="27.75" stroke="#A0C6FF" stroke-width="0.5"/>
<circle cx="1548" cy="4494" r="27.75" stroke="#A0C6FF" stroke-width="0.5"/>
<circle cx="759" cy="4658" r="27.75" stroke="#A0C6FF" stroke-width="0.5"/>
<circle cx="2032" cy="4772" r="27.75" stroke="#A0C6FF" stroke-width="0.5"/>
<circle cx="3522" cy="4550" r="27.75" stroke="#A0C6FF" stroke-width="0.5"/>
<circle cx="3472" cy="4135" r="27.75" stroke="#A0C6FF" stroke-width="0.5"/>
<circle cx="4422" cy="4366" r="27.75" stroke="#A0C6FF" stroke-width="0.5"/>
<circle cx="4711" cy="3816" r="27.75" stroke="#A0C6FF" stroke-width="0.5"/>
<circle cx="4242" cy="2140" r="27.75" stroke="#A0C6FF" stroke-width="0.5"/>
<circle cx="1072" cy="394" r="27.75" stroke="#A0C6FF" stroke-width="0.5"/>
<circle cx="300" cy="994" r="27.75" stroke="#A0C6FF" stroke-width="0.5"/>
<circle cx="413" cy="1589" r="27.75" stroke="#A0C6FF" stroke-width="0.5"/>
<circle cx="1762" cy="2941" r="27.75" stroke="#A0C6FF" stroke-width="0.5"/>
<circle cx="1100" cy="2168" r="27.75" stroke="#A0C6FF" stroke-width="0.5"/>
<circle cx="1602" cy="1815" r="27.75" stroke="#A0C6FF" stroke-width="0.5"/>
<circle cx="1602" cy="2396" r="27.75" stroke="#A0C6FF" stroke-width="0.5"/>
<circle cx="878" cy="2913" r="27.75" stroke="#A0C6FF" stroke-width="0.5"/>
<circle cx="272" cy="3297" r="27.75" stroke="#A0C6FF" stroke-width="0.5"/>
<circle cx="1285" cy="3140" r="27.75" stroke="#A0C6FF" stroke-width="0.5"/>
<circle cx="2278" cy="3297" r="27.75" stroke="#A0C6FF" stroke-width="0.5"/>
<circle cx="3262" cy="2472" r="27.75" stroke="#A0C6FF" stroke-width="0.5"/>
<circle cx="3444" cy="1729" r="27.75" stroke="#A0C6FF" stroke-width="0.5"/>
<circle cx="2981" cy="2630" r="27.75" stroke="#A0C6FF" stroke-width="0.5"/>
<circle cx="3606" cy="3353" r="27.75" stroke="#A0C6FF" stroke-width="0.5"/>
<circle cx="3986" cy="3916" r="27.75" stroke="#A0C6FF" stroke-width="0.5"/>
<circle cx="2444" cy="4216" r="27.75" stroke="#A0C6FF" stroke-width="0.5"/>
<circle cx="2953" cy="3694" r="27.75" stroke="#A0C6FF" stroke-width="0.5"/>
<circle cx="1156" cy="4079" r="27.75" stroke="#A0C6FF" stroke-width="0.5"/>
<circle cx="1706" cy="3694" r="27.75" stroke="#A0C6FF" stroke-width="0.5"/>
<circle cx="822" cy="3518" r="27.75" stroke="#A0C6FF" stroke-width="0.5"/>
<circle cx="272" cy="2224" r="27.75" stroke="#A0C6FF" stroke-width="0.5"/>
<circle cx="703" cy="1136" r="27.75" stroke="#A0C6FF" stroke-width="0.5"/>
<circle cx="1423" cy="966" r="27.75" stroke="#A0C6FF" stroke-width="0.5"/>
<circle cx="850" cy="1533" r="27.75" stroke="#A0C6FF" stroke-width="0.5"/>
<circle cx="731" cy="654" r="27.75" stroke="#A0C6FF" stroke-width="0.5"/>
<circle cx="1762" cy="484" r="27.75" stroke="#A0C6FF" stroke-width="0.5"/>
<circle cx="2416" cy="1136" r="27.75" stroke="#A0C6FF" stroke-width="0.5"/>
<circle cx="1960" cy="1431" r="27.75" stroke="#A0C6FF" stroke-width="0.5"/>
<circle cx="2953" cy="1701" r="27.75" stroke="#A0C6FF" stroke-width="0.5"/>
<circle cx="3206" cy="540" r="27.75" stroke="#A0C6FF" stroke-width="0.5"/>
<circle cx="3986" cy="710" r="27.75" stroke="#A0C6FF" stroke-width="0.5"/>
<circle cx="3318" cy="1022" r="27.75" stroke="#A0C6FF" stroke-width="0.5"/>
<circle cx="3986" cy="1192" r="27.75" stroke="#A0C6FF" stroke-width="0.5"/>
<circle cx="3986" cy="1645" r="27.75" stroke="#A0C6FF" stroke-width="0.5"/>
<circle cx="4394" cy="1375" r="27.75" stroke="#A0C6FF" stroke-width="0.5"/>
<circle cx="4683" cy="1902" r="27.75" stroke="#A0C6FF" stroke-width="0.5"/>
<circle cx="4042" cy="2472" r="27.75" stroke="#A0C6FF" stroke-width="0.5"/>
<circle cx="3550" cy="2857" r="27.75" stroke="#A0C6FF" stroke-width="0.5"/>
<circle cx="4270" cy="3196" r="27.75" stroke="#A0C6FF" stroke-width="0.5"/>
<circle cx="3776.38" cy="3493.49" r="12.25" transform="rotate(-70.3947 3776.38 3493.49)" stroke="#A0C6FF" stroke-opacity="0.8" stroke-width="0.5"/>
<circle cx="3610.21" cy="3720.79" r="12.25" transform="rotate(-70.3947 3610.21 3720.79)" stroke="#A0C6FF" stroke-opacity="0.8" stroke-width="0.5"/>
<path d="M3775.01 3871.92C3781.53 3874.25 3784.97 3881.3 3782.7 3887.67C3780.43 3894.04 3773.31 3897.33 3766.79 3895C3760.26 3892.68 3756.83 3885.63 3759.1 3879.26C3761.36 3872.89 3768.48 3869.6 3775.01 3871.92Z" stroke="#A0C6FF" stroke-opacity="0.8" stroke-width="0.5"/>
<circle cx="3681.9" cy="4530.18" r="12.25" transform="rotate(-70.3947 3681.9 4530.18)" stroke="#A0C6FF" stroke-opacity="0.8" stroke-width="0.5"/>
<circle cx="4114.91" cy="3589.57" r="12.25" transform="rotate(-70.3947 4114.91 3589.57)" stroke="#A0C6FF" stroke-opacity="0.8" stroke-width="0.5"/>
<circle cx="4350.38" cy="2393.28" r="12.25" transform="rotate(-70.3947 4350.38 2393.28)" stroke="#A0C6FF" stroke-opacity="0.8" stroke-width="0.5"/>
<circle cx="4020.3" cy="2318.31" r="12.25" transform="rotate(-70.3947 4020.3 2318.31)" stroke="#A0C6FF" stroke-opacity="0.8" stroke-width="0.5"/>
<circle cx="4454.29" cy="1656.02" r="12.25" transform="rotate(-70.3947 4454.29 1656.02)" stroke="#A0C6FF" stroke-opacity="0.8" stroke-width="0.5"/>
<circle cx="4113.1" cy="1286.34" r="12.25" transform="rotate(-70.3947 4113.1 1286.34)" stroke="#A0C6FF" stroke-opacity="0.8" stroke-width="0.5"/>
<path d="M2711.14 1177.62C2717.66 1179.94 2721.1 1187 2718.83 1193.36C2716.56 1199.73 2709.44 1203.02 2702.92 1200.7C2696.39 1198.38 2692.96 1191.33 2695.22 1184.96C2697.49 1178.59 2704.61 1175.3 2711.14 1177.62Z" stroke="#A0C6FF" stroke-opacity="0.8" stroke-width="0.5"/>
<circle cx="513.97" cy="3132.36" r="12.25" transform="rotate(-70.3947 513.97 3132.36)" stroke="#A0C6FF" stroke-opacity="0.8" stroke-width="0.5"/>
<circle cx="762.625" cy="3884.43" r="12.25" transform="rotate(-70.3947 762.625 3884.43)" stroke="#A0C6FF" stroke-opacity="0.8" stroke-width="0.5"/>
<circle cx="1246.92" cy="3960.01" r="12.25" transform="rotate(-70.3947 1246.92 3960.01)" stroke="#A0C6FF" stroke-opacity="0.8" stroke-width="0.5"/>
<circle cx="2644.64" cy="3298.05" r="12.25" transform="rotate(-70.3947 2644.64 3298.05)" stroke="#A0C6FF" stroke-opacity="0.8" stroke-width="0.5"/>
<circle cx="1874.78" cy="3593.63" r="12.25" transform="rotate(-70.3947 1874.78 3593.63)" stroke="#A0C6FF" stroke-opacity="0.8" stroke-width="0.5"/>
<path d="M1745.62 3103.28C1751.85 3105.5 1755.06 3112.46 1752.79 3118.84C1750.52 3125.22 1743.63 3128.58 1737.4 3126.36C1731.17 3124.15 1727.95 3117.18 1730.22 3110.8C1732.5 3104.43 1739.39 3101.07 1745.62 3103.28Z" stroke="#A0C6FF" stroke-opacity="0.8" stroke-width="0.5"/>
<path d="M2188.88 3261.17C2195.11 3263.38 2198.32 3270.35 2196.05 3276.73C2193.78 3283.1 2186.89 3286.46 2180.66 3284.25C2174.43 3282.03 2171.21 3275.07 2173.49 3268.69C2175.76 3262.31 2182.65 3258.95 2188.88 3261.17Z" stroke="#A0C6FF" stroke-opacity="0.8" stroke-width="0.5"/>
<path d="M2386.91 3953.68C2393.44 3956 2396.87 3963.05 2394.61 3969.42C2392.34 3975.79 2385.22 3979.08 2378.69 3976.76C2372.17 3974.43 2368.73 3967.38 2371 3961.01C2373.27 3954.65 2380.39 3951.35 2386.91 3953.68Z" stroke="#A0C6FF" stroke-opacity="0.8" stroke-width="0.5"/>
<circle cx="2510.91" cy="4531.65" r="12.25" transform="rotate(-70.3947 2510.91 4531.65)" stroke="#A0C6FF" stroke-opacity="0.8" stroke-width="0.5"/>
<circle cx="2667.2" cy="3716.12" r="12.25" transform="rotate(-70.3947 2667.2 3716.12)" stroke="#A0C6FF" stroke-opacity="0.8" stroke-width="0.5"/>
<circle cx="3055.93" cy="3001.5" r="12.25" transform="rotate(-70.3947 3055.93 3001.5)" stroke="#A0C6FF" stroke-opacity="0.8" stroke-width="0.5"/>
<path d="M2698.15 2015.43C2704.67 2017.75 2708.11 2024.8 2705.84 2031.17C2703.57 2037.54 2696.45 2040.83 2689.93 2038.51C2683.4 2036.19 2679.97 2029.13 2682.23 2022.77C2684.5 2016.4 2691.62 2013.11 2698.15 2015.43Z" stroke="#A0C6FF" stroke-opacity="0.8" stroke-width="0.5"/>
<circle cx="2177.13" cy="1686.29" r="12.25" transform="rotate(-70.3947 2177.13 1686.29)" stroke="#A0C6FF" stroke-opacity="0.8" stroke-width="0.5"/>
<path d="M2742.19 2272.88C2748.41 2275.1 2751.63 2282.06 2749.36 2288.44C2747.09 2294.81 2740.19 2298.18 2733.97 2295.96C2727.74 2293.74 2724.52 2286.78 2726.79 2280.4C2729.06 2274.02 2735.96 2270.66 2742.19 2272.88Z" stroke="#A0C6FF" stroke-opacity="0.8" stroke-width="0.5"/>
<path d="M3463.71 1992.04C3470.23 1994.36 3473.67 2001.41 3471.4 2007.78C3469.13 2014.15 3462.01 2017.44 3455.49 2015.12C3448.97 2012.79 3445.53 2005.74 3447.8 1999.37C3450.07 1993 3457.19 1989.71 3463.71 1992.04Z" stroke="#A0C6FF" stroke-opacity="0.8" stroke-width="0.5"/>
<circle cx="3992.72" cy="1866.5" r="12.25" transform="rotate(-70.3947 3992.72 1866.5)" stroke="#A0C6FF" stroke-opacity="0.8" stroke-width="0.5"/>
<circle cx="3802.32" cy="3124.64" r="12.25" transform="rotate(-70.3947 3802.32 3124.64)" stroke="#A0C6FF" stroke-opacity="0.8" stroke-width="0.5"/>
<circle cx="3542.78" cy="2594.47" r="12.25" transform="rotate(-70.3947 3542.78 2594.47)" stroke="#A0C6FF" stroke-opacity="0.8" stroke-width="0.5"/>
<circle cx="3347.3" cy="4070.2" r="12.25" transform="rotate(-70.3947 3347.3 4070.2)" stroke="#A0C6FF" stroke-opacity="0.8" stroke-width="0.5"/>
<path d="M3207.64 3534.58C3213.87 3536.79 3217.09 3543.76 3214.81 3550.13C3212.54 3556.51 3205.65 3559.87 3199.42 3557.65C3193.19 3555.44 3189.97 3548.47 3192.25 3542.1C3194.52 3535.72 3201.41 3532.36 3207.64 3534.58Z" stroke="#A0C6FF" stroke-opacity="0.8" stroke-width="0.5"/>
<circle cx="2829.56" cy="4172.27" r="12.25" transform="rotate(-70.3947 2829.56 4172.27)" stroke="#A0C6FF" stroke-opacity="0.8" stroke-width="0.5"/>
<circle cx="1692.44" cy="4240.12" r="12.25" transform="rotate(-70.3947 1692.44 4240.12)" stroke="#A0C6FF" stroke-opacity="0.8" stroke-width="0.5"/>
<circle cx="979.776" cy="3615.65" r="12.25" transform="rotate(-70.3947 979.776 3615.65)" stroke="#A0C6FF" stroke-opacity="0.8" stroke-width="0.5"/>
<circle cx="1045.88" cy="3020.41" r="12.25" transform="rotate(-70.3947 1045.88 3020.41)" stroke="#A0C6FF" stroke-opacity="0.8" stroke-width="0.5"/>
<circle cx="1323.22" cy="3611.24" r="12.25" transform="rotate(-70.3947 1323.22 3611.24)" stroke="#A0C6FF" stroke-opacity="0.8" stroke-width="0.5"/>
<path d="M623.386 3452.27C629.613 3454.49 632.832 3461.45 630.56 3467.83C628.288 3474.21 621.393 3477.57 615.166 3475.35C608.939 3473.13 605.72 3466.17 607.992 3459.79C610.264 3453.41 617.159 3450.05 623.386 3452.27Z" stroke="#A0C6FF" stroke-opacity="0.8" stroke-width="0.5"/>
<circle cx="770.471" cy="2630.5" r="12.25" transform="rotate(-70.3947 770.471 2630.5)" stroke="#A0C6FF" stroke-opacity="0.8" stroke-width="0.5"/>
<path d="M1448.87 2297.86C1455.09 2300.08 1458.31 2307.04 1456.04 2313.42C1453.77 2319.8 1446.87 2323.16 1440.65 2320.94C1434.42 2318.72 1431.2 2311.76 1433.47 2305.38C1435.74 2299 1442.64 2295.64 1448.87 2297.86Z" stroke="#A0C6FF" stroke-opacity="0.8" stroke-width="0.5"/>
<path d="M1549.92 2725.78C1556.15 2728 1559.37 2734.96 1557.1 2741.34C1554.82 2747.72 1547.93 2751.08 1541.7 2748.86C1535.47 2746.65 1532.26 2739.68 1534.53 2733.3C1536.8 2726.93 1543.69 2723.57 1549.92 2725.78Z" stroke="#A0C6FF" stroke-opacity="0.8" stroke-width="0.5"/>
<circle cx="2022.09" cy="2052.82" r="12.25" transform="rotate(-70.3947 2022.09 2052.82)" stroke="#A0C6FF" stroke-opacity="0.8" stroke-width="0.5"/>
<circle cx="1205.19" cy="1544.59" r="12.25" transform="rotate(-70.3947 1205.19 1544.59)" stroke="#A0C6FF" stroke-opacity="0.8" stroke-width="0.5"/>
<circle cx="1546.75" cy="995.28" r="12.25" transform="rotate(-70.3947 1546.75 995.28)" stroke="#A0C6FF" stroke-opacity="0.8" stroke-width="0.5"/>
<path d="M1606.99 1578.85C1613.22 1581.07 1616.43 1588.03 1614.16 1594.41C1611.89 1600.79 1604.99 1604.15 1598.77 1601.93C1592.54 1599.71 1589.32 1592.75 1591.59 1586.37C1593.87 1579.99 1600.76 1576.63 1606.99 1578.85Z" stroke="#A0C6FF" stroke-opacity="0.8" stroke-width="0.5"/>
<path d="M1918.77 1114.79C1925.3 1117.11 1928.73 1124.16 1926.46 1130.53C1924.2 1136.9 1917.08 1140.19 1910.55 1137.87C1904.03 1135.54 1900.59 1128.49 1902.86 1122.12C1905.13 1115.75 1912.25 1112.46 1918.77 1114.79Z" stroke="#A0C6FF" stroke-opacity="0.8" stroke-width="0.5"/>
<circle cx="2260.31" cy="1249.44" r="12.25" transform="rotate(-70.3947 2260.31 1249.44)" stroke="#A0C6FF" stroke-opacity="0.8" stroke-width="0.5"/>
<circle cx="2165.03" cy="865.11" r="12.25" transform="rotate(-70.3947 2165.03 865.11)" stroke="#A0C6FF" stroke-opacity="0.8" stroke-width="0.5"/>
<path d="M2649.52 776.523C2656.04 778.846 2659.48 785.898 2657.21 792.266C2654.94 798.635 2647.82 801.926 2641.3 799.603C2634.77 797.279 2631.34 790.228 2633.61 783.859C2635.87 777.491 2642.99 774.2 2649.52 776.523Z" stroke="#A0C6FF" stroke-opacity="0.8" stroke-width="0.5"/>
<path d="M2910.23 1420C2916.75 1422.33 2920.19 1429.38 2917.92 1435.75C2915.65 1442.12 2908.53 1445.41 2902.01 1443.08C2895.48 1440.76 2892.05 1433.71 2894.32 1427.34C2896.58 1420.97 2903.71 1417.68 2910.23 1420Z" stroke="#A0C6FF" stroke-opacity="0.8" stroke-width="0.5"/>
<circle cx="3066.14" cy="1911.36" r="12.25" transform="rotate(-70.3947 3066.14 1911.36)" stroke="#A0C6FF" stroke-opacity="0.8" stroke-width="0.5"/>
<circle cx="3520.69" cy="1454.49" r="12.25" transform="rotate(-70.3947 3520.69 1454.49)" stroke="#A0C6FF" stroke-opacity="0.8" stroke-width="0.5"/>
<path d="M1050.23 647.737C953.372 696.627 789.618 844.356 909.485 1044.15M2342.15 1690.59C2413.37 1839.13 2579.06 2004.72 2672.06 1478.78M1649.2 2104.51C1547.26 1791.06 1447.5 2270.16 1377.62 2056.93M811.807 2016.31C733.209 2089.38 744.114 1902.92 677.208 1837.09M1734.05 190.182C1620.17 150.386 1682.01 417.909 1523.17 482.171M317.222 1383.3C334.703 1335.01 381.764 1267.64 605.295 1272.61M1147.38 2587.9C1177.79 2588.12 1243.41 2613.71 1262.61 2714.34M2095.96 877.227C2182.36 952.639 2253.09 1004.67 2113.64 1192.19" stroke="#B98540" stroke-width="0.5"/>
<path d="M932.689 4672.62C1030.63 4719.3 1247.69 4758.38 1332.33 4541.3M966.704 3012.67C1040.58 2865.43 1070.12 2633.05 597.274 2881.41M1718.15 3307.33C1532.65 3579.8 1972.59 3365.46 1846.74 3551.23M2160.92 4023.55C2266.81 4040.99 2112.68 4146.48 2101.56 4239.69M152.32 4411.88C190.548 4526.3 364.264 4313.66 512.294 4399.94M1963.02 4802.11C1914.14 4817.84 1832.05 4821.86 1699.17 4642.04M2407.57 3408.34C2389.13 3384.15 2369.2 3316.59 2437.03 3239.82M474.148 3705.17C480.907 3590.69 478.76 3502.91 712.408 3498.43" stroke="#B98540" stroke-width="0.5"/>
<path d="M3716.56 4809.48C3823.37 4828.56 4043.02 4808.77 4067.16 4577.03M3309.8 3199.78C3342.05 3038.24 3309 2806.33 2918.8 3171.03M4112.45 3284.94C4005.72 3596.8 4373.2 3273.62 4301.03 3486.09M4729.06 3858.35C4835.79 3847.12 4715.1 3989.67 4729.06 4082.48M2895 4764.7C2962.16 4864.91 3073.37 4613.86 3238.96 4657.86M4744.4 4661.52C4701.42 4689.63 4623.33 4715.24 4447.58 4577.03M4804 3199.78C4779.81 3181.34 4742.71 3121.47 4787.79 3029.48M3018.2 3998C2994.4 3885.81 2969.09 3801.73 3193.21 3735.54" stroke="#B98540" stroke-width="0.5"/>
<path d="M3773.56 2476.48C3880.37 2495.56 4100.02 2475.77 4124.16 2244.03M3366.8 866.781C3399.05 705.24 3366 473.333 2975.8 838.032M4169.45 951.945C4062.72 1263.8 4430.2 940.618 4358.03 1153.09M4786.06 1525.35C4892.79 1514.12 4772.1 1656.67 4786.06 1749.48M2952 2431.7C3019.16 2531.91 3130.37 2280.86 3295.96 2324.86M4801.4 2328.52C4758.42 2356.63 4680.33 2382.24 4504.58 2244.03M4861 866.781C4836.81 848.345 4799.71 788.474 4844.79 696.478M3075.2 1665C3051.4 1552.81 3026.09 1468.73 3250.21 1402.54" stroke="#B98540" stroke-width="0.5"/>
</svg>
