<svg width="421" height="407" viewBox="0 0 421 407" fill="none" xmlns="http://www.w3.org/2000/svg">
<path fill-rule="evenodd" clip-rule="evenodd" d="M187.988 0.730075C114.701 8.99307 51.8922 53.3021 20.4402 118.927C-28.4008 220.835 13.1522 342.255 114.533 393.876C120.53 396.929 129.927 401.098 135.414 403.141C147.083 407.485 151.96 407.489 155.685 403.158C157.87 400.618 157.937 399.902 157.937 378.98V357.419L155.187 358.083C153.675 358.448 146.587 358.996 139.437 359.301C124.224 359.949 116.189 358.503 106.594 353.388C97.1732 348.367 91.9193 342.382 85.5732 329.44C79.4182 316.889 74.2402 310.042 66.5732 304.317C55.4462 296.007 53.4712 292.556 58.6872 290.54C69.4302 286.387 87.8542 296.239 97.4762 311.281C107.991 327.718 120.362 334.478 137.882 333.362C148.619 332.678 158.937 329.329 158.937 326.529C158.937 322.643 163.211 312.013 167.022 306.42C171.519 299.82 172.776 300.868 157.163 298.193C107.464 289.678 81.9263 262.389 76.8473 212.372C74.2043 186.336 79.2682 165.586 92.6482 147.624L97.4692 141.152L95.7712 134.652C92.4592 121.971 94.0912 99.1861 99.1002 88.1941C100.348 85.4541 100.503 85.4091 106.905 85.9541C118.88 86.9721 136.802 94.1071 152.319 104.033L157.546 107.377L168.492 105.068C196.135 99.2371 224.739 99.2371 252.382 105.068L263.328 107.377L268.555 104.033C284.139 94.0651 301.995 86.9721 314.1 85.9431L320.763 85.3771L323.496 93.7641C327.204 105.148 327.991 123.613 325.221 134.242L323.373 141.332L328.204 147.701C344.672 169.415 348.987 199.547 340.448 233.208C330.906 270.822 303.622 292.743 258.687 298.896C253.875 299.555 249.937 300.41 249.937 300.796C249.937 301.183 251.002 302.771 252.303 304.325C256.258 309.051 259.694 316.865 261.357 324.919C262.616 331.013 262.937 339.474 262.937 366.554C262.937 400.365 262.949 400.554 265.189 403.158C268.918 407.494 273.793 407.486 285.46 403.127C399.723 360.431 453.028 228.667 400.434 118.927C370.822 57.1411 313.949 14.4521 245.437 2.58707C231.542 0.18007 201.48 -0.791925 187.988 0.730075ZM74.6043 296.319C72.7223 298.2 76.5293 301.14 78.9273 299.658C80.0693 298.952 80.0823 298.531 79.0003 297.228C77.6313 295.578 75.7363 295.186 74.6043 296.319ZM83.4313 303.661C82.1893 305.672 84.0242 308.652 86.5042 308.652C89.3962 308.652 89.6763 306.631 87.1083 304.307C84.9893 302.389 84.2933 302.267 83.4313 303.661ZM91.2463 315.288C90.4143 317.457 92.1473 320.078 94.6623 320.455C97.3163 320.853 98.1672 318.425 96.3052 315.767C94.5382 313.245 92.1183 313.016 91.2463 315.288ZM100.937 327.952C100.937 330.848 102.699 332.652 105.53 332.652C108.373 332.652 109.177 330.44 107.305 327.767C105.216 324.784 100.937 324.909 100.937 327.952ZM115.294 336.165C114.367 338.581 116.93 340.788 120.275 340.453C123.837 340.097 124.648 338.506 122.41 336.268C120.372 334.23 116.06 334.168 115.294 336.165ZM149.182 336.807C147.236 338.753 147.712 340.557 150.344 341.218C153.426 341.991 157.153 340.02 156.739 337.835C156.347 335.764 150.958 335.031 149.182 336.807ZM132.292 339.169C131.939 340.09 132.373 341.517 133.285 342.428C135.46 344.604 140.437 343.003 140.437 340.128C140.437 337.466 133.27 336.622 132.292 339.169Z" fill="black"/>
</svg>
