<?xml version="1.0" encoding="utf-8"?>
<!-- Generator: Adobe Illustrator 22.0.0, SVG Export Plug-In . SVG Version: 6.00 Build 0)  -->
<svg version="1.1" id="Layer_1" xmlns="http://www.w3.org/2000/svg" xmlns:xlink="http://www.w3.org/1999/xlink" x="0px" y="0px"
	 viewBox="0 0 5000 5000" style="enable-background:new 0 0 5000 5000;" xml:space="preserve">
<style type="text/css">
	.st0{fill:none;stroke:#000000;stroke-linecap:round;stroke-linejoin:round;stroke-dasharray:5,10;}
	.st1{fill:url(#BLOB-test1_1_);stroke:#000000;stroke-width:5;stroke-linecap:round;stroke-linejoin:round;}
	.st2{fill:url(#BLOB-test2_1_);stroke:#000000;stroke-width:3.8993;stroke-linecap:round;stroke-linejoin:round;}
	.st3{fill:none;stroke:#A5A5A5;}
</style>
<path id="PATH-test1" class="st0" d="M3036.8,1857.8c-11.2-33.5-21.1-78.2-60.4-92.7c-74.6-27.6-189.6-0.7-262.7,25.4
	c-33.7,12-65.7,7.7-100.2,2.4c-30.9-4.8-54-33.1-81.1-45.8c-37.6-17.6-83.4-27.1-123.6-12.9c-50.6,17.9-70.5,62.7-93.6,107.4"/>
<radialGradient id="BLOB-test1_1_" cx="1822.4409" cy="1430.9647" r="153.7352" fx="1966.3013" fy="1485.1748" gradientUnits="userSpaceOnUse">
	<stop  offset="0" style="stop-color:#E1AED0"/>
	<stop  offset="0.5056" style="stop-color:#C38DBC"/>
	<stop  offset="1" style="stop-color:#D661A0"/>
</radialGradient>
<polygon id="BLOB-test1" class="st1" points="1843.9,1327.7 1796.3,1400.7 1866.2,1426.8 1925,1387.8 1899.8,1327.7 "/>
<linearGradient id="BLOB-test2_1_" gradientUnits="userSpaceOnUse" x1="1979.8231" y1="2020.7585" x2="2146.4529" y2="2020.7585">
	<stop  offset="0" style="stop-color:#0096BB"/>
	<stop  offset="5.563250e-02" style="stop-color:#0899BD"/>
	<stop  offset="0.1438" style="stop-color:#1FA1C2"/>
	<stop  offset="0.2534" style="stop-color:#45AFCB"/>
	<stop  offset="0.379" style="stop-color:#78C1D7"/>
	<stop  offset="0.5" style="stop-color:#B0D5E4"/>
	<stop  offset="0.5113" style="stop-color:#A9D1E1"/>
	<stop  offset="0.6017" style="stop-color:#76B6C8"/>
	<stop  offset="0.6907" style="stop-color:#4C9FB4"/>
	<stop  offset="0.7766" style="stop-color:#2B8EA4"/>
	<stop  offset="0.8586" style="stop-color:#138199"/>
	<stop  offset="0.9349" style="stop-color:#057A92"/>
	<stop  offset="1" style="stop-color:#007790"/>
</linearGradient>
<path id="BLOB-test2" class="st2" d="M1983.3,2012.9c21.1-66,33.3-71,95.4-46.6c62.1,24.4,93.2,68.8,42.1,79.8
	c-51,11.1-59.9,46.6-86.5,42.1S1967.7,2061.9,1983.3,2012.9z"/>
<path id="PATH-test2" class="st3" d="M2401.5,2020.8c15,113,69.3,405.7,219.9,273.6c184.9-162.1,208.7-206.6,54.6-205.7
	c-154.1,0.9-597.8,77.7-418.6,137.4c179.2,59.7,352.7,139.4,329.9-14.2C2564.5,2058.3,2398.1,1995.1,2401.5,2020.8z"/>
</svg>
