<?xml version="1.0" encoding="utf-8"?>
<!-- Generator: Adobe Illustrator 22.0.0, SVG Export Plug-In . SVG Version: 6.00 Build 0)  -->
<svg version="1.1" id="Layer_1" xmlns="http://www.w3.org/2000/svg" xmlns:xlink="http://www.w3.org/1999/xlink" x="0px" y="0px"
	 viewBox="0 0 5000 5000" style="enable-background:new 0 0 5000 5000;" xml:space="preserve">
<style type="text/css">
	.st0{stroke:#FFFFFF;}
	.st1{fill:#FFFFFF;stroke:#000000;}
	.st2{fill:none;stroke:#000000;}
	.st3{fill:#FFFFFF;}
	.st4{fill:#ADCEFF;stroke:#000000;}
	.st5{fill:#F7B0FF;stroke:#000000;}
	.st6{fill:#FFCF72;}
	.st7{fill:#FFFFFF;filter:url(#Adobe_OpacityMaskFilter);}
	.st8{mask:url(#path-62-inside-1_1_);}
	.st9{fill:#FFFFFF;filter:url(#Adobe_OpacityMaskFilter_1_);}
	.st10{mask:url(#path-64-inside-2_1_);}
	.st11{fill:#FFFFFF;filter:url(#Adobe_OpacityMaskFilter_2_);}
	.st12{mask:url(#path-66-inside-3_1_);}
	.st13{fill:#AE6969;stroke:#000000;}
	.st14{fill:#FF8A00;stroke:#000000;}
	.st15{fill:#FFCF72;stroke:#000000;}
	.st16{fill:#ADCEFF;}
	.st17{fill:#AE6969;}
	.st18{fill:#FF8A00;}
	.st19{fill:none;stroke:#000000;stroke-linecap:round;stroke-linejoin:round;stroke-dasharray:5,10;}
	.st20{fill:#FFFFFF;stroke:#FFEC06;stroke-width:4;stroke-miterlimit:10;}
</style>
<path class="st0" d="M2293.5,2348.8c0,26.5-21.1,48-47,48s-47-21.5-47-48s21.1-48,47-48S2293.5,2322.2,2293.5,2348.8z"/>
<path class="st1" d="M337.5,605.5c0,36.7-29.1,66.5-65,66.5s-65-29.8-65-66.5s29.1-66.5,65-66.5S337.5,568.8,337.5,605.5z"/>
<path class="st1" d="M293,754.7c0,24.2-19.1,43.7-42.7,43.7s-42.7-19.6-42.7-43.7c0-24.2,19.1-43.7,42.7-43.7S293,730.6,293,754.7z"
	/>
<path class="st2" d="M339,790.7c0,24.2-19.1,43.7-42.7,43.7s-42.7-19.6-42.7-43.7c0-24.2,19.1-43.7,42.7-43.7S339,766.6,339,790.7z"
	/>
<path class="st0" d="M2461.5,2348.8c0,26.5-22.1,48-49.5,48s-49.5-21.5-49.5-48c0-26.5,22.1-48,49.5-48S2461.5,2322.3,2461.5,2348.8
	z"/>
<path class="st0" d="M2622.5,2347.8c0,25.9-21.3,47-47.5,47s-47.5-21.1-47.5-47s21.3-47,47.5-47S2622.5,2321.8,2622.5,2347.8z"/>
<circle class="st0" cx="2752.5" cy="2348.8" r="48"/>
<path class="st0" d="M2968.5,2349.8c0,25.9-22.6,47-50.5,47s-50.5-21.1-50.5-47c0-25.9,22.6-47,50.5-47S2968.5,2323.8,2968.5,2349.8
	z"/>
<path class="st0" d="M2400.5,2517.3c0,26.2-22.4,47.5-50,47.5s-50-21.3-50-47.5s22.4-47.5,50-47.5S2400.5,2491.1,2400.5,2517.3z"/>
<path class="st0" d="M2567.5,2517.8c0,25.9-21.3,47-47.5,47s-47.5-21.1-47.5-47s21.3-47,47.5-47S2567.5,2491.8,2567.5,2517.8z"/>
<circle class="st0" cx="2848.5" cy="2517.8" r="47"/>
<path class="st0" d="M2732.5,2517.8c0,25.9-21.3,47-47.5,47s-47.5-21.1-47.5-47s21.3-47,47.5-47S2732.5,2491.8,2732.5,2517.8z"/>
<path class="st3" d="M2228.1,2355.6h-10.7l-2.4,6.7h-3.5l9.8-25.6h2.9l9.8,25.6h-3.5L2228.1,2355.6z M2218.4,2352.8h8.7l-4.4-12
	L2218.4,2352.8z M2251.6,2355.6h-10.7l-2.4,6.7h-3.5l9.8-25.6h2.9l9.8,25.6h-3.5L2251.6,2355.6z M2241.9,2352.8h8.7l-4.4-12
	L2241.9,2352.8z M2260.9,2362.3v-25.6h7.2c2.2,0,4.2,0.5,5.9,1.5c1.7,1,3,2.4,4,4.2c0.9,1.8,1.4,3.9,1.4,6.3v1.6
	c0,2.4-0.5,4.5-1.4,6.3c-0.9,1.8-2.2,3.2-4,4.2c-1.7,1-3.7,1.5-6,1.5H2260.9z M2264.3,2339.4v20.1h3.6c2.6,0,4.6-0.8,6.1-2.4
	c1.4-1.6,2.2-3.9,2.2-6.9v-1.5c0-2.9-0.7-5.2-2.1-6.8c-1.4-1.6-3.3-2.4-5.8-2.5H2264.3z"/>
<path class="st0" d="M1455.5,2449.8c0,26.5-21.1,48-47,48s-47-21.5-47-48s21.1-48,47-48S1455.5,2423.2,1455.5,2449.8z"/>
<path class="st3" d="M1390.1,2456.6h-10.7l-2.4,6.7h-3.5l9.8-25.6h2.9l9.8,25.6h-3.5L1390.1,2456.6z M1380.4,2453.8h8.7l-4.4-12
	L1380.4,2453.8z M1413.6,2456.6h-10.7l-2.4,6.7h-3.5l9.8-25.6h2.9l9.8,25.6h-3.5L1413.6,2456.6z M1403.9,2453.8h8.7l-4.4-12
	L1403.9,2453.8z M1422.9,2463.3v-25.6h7.2c2.2,0,4.2,0.5,5.9,1.5c1.7,1,3,2.4,4,4.2c0.9,1.8,1.4,3.9,1.4,6.3v1.6
	c0,2.4-0.5,4.5-1.4,6.3c-0.9,1.8-2.2,3.2-4,4.2c-1.7,1-3.7,1.5-6,1.5H1422.9z M1426.3,2440.4v20.1h3.6c2.6,0,4.6-0.8,6.1-2.4
	c1.4-1.6,2.2-3.9,2.2-6.9v-1.5c0-2.9-0.7-5.2-2.1-6.8c-1.4-1.6-3.3-2.4-5.8-2.5H1426.3z"/>
<path class="st3" d="M2406.1,2355.6h-10.7l-2.4,6.7h-3.5l9.8-25.6h2.9l9.8,25.6h-3.5L2406.1,2355.6z M2396.4,2352.8h8.7l-4.4-12
	L2396.4,2352.8z M2429.6,2351h-10.7v11.3h-3.4v-25.6h15.9v2.8h-12.5v8.8h10.7V2351z"/>
<path id="AF-dispath" class="st0" d="M1706.5,1553.8c0,26.5-22.2,48-49.5,48s-49.5-21.5-49.5-48c0-26.5,22.2-48,49.5-48
	S1706.5,1527.3,1706.5,1553.8z"/>
<path class="st3" d="M1651.1,1560.6h-10.7l-2.4,6.7h-3.5l9.8-25.6h2.9l9.8,25.6h-3.5L1651.1,1560.6z M1641.4,1557.8h8.7l-4.4-12
	L1641.4,1557.8z M1674.6,1556h-10.7v11.3h-3.4v-25.6h15.9v2.8h-12.5v8.8h10.7V1556z"/>
<path class="st0" d="M322.5,441c0,26.5-22.1,48-49.5,48c-27.4,0-49.5-21.5-49.5-48s22.1-48,49.5-48C300.4,393,322.5,414.5,322.5,441
	z"/>
<path id="home" class="st0" d="M4386.5,2339.8c0,6.4-5.1,12.7-14.7,18.4c-9.6,5.8-23.5,11-40.7,15.4c-34.4,8.8-82,14.2-134.6,14.2
	s-100.2-5.4-134.6-14.2c-17.2-4.4-31.1-9.6-40.7-15.4c-9.6-5.8-14.7-12-14.7-18.4c0-6.4,5.1-12.7,14.7-18.4
	c9.6-5.8,23.5-11,40.7-15.4c34.4-8.8,82-14.2,134.6-14.2s100.2,5.4,134.6,14.2c17.2,4.4,31.1,9.6,40.7,15.4
	C4381.4,2327.1,4386.5,2333.4,4386.5,2339.8z"/>
<path class="st3" d="M267.1,447.8h-10.7l-2.4,6.7h-3.5l9.8-25.6h3l9.8,25.6h-3.5L267.1,447.8z M257.4,445h8.7l-4.4-12L257.4,445z
	 M290.6,443.2h-10.7v11.3h-3.4v-25.6h15.9v2.8h-12.5v8.8h10.7V443.2z"/>
<path class="st3" d="M4159.6,2355.3h-3.4v-11.8h-12.9v11.8h-3.4v-25.6h3.4v11h12.9v-11h3.4V2355.3z M4185.3,2343.3
	c0,2.5-0.4,4.7-1.3,6.6c-0.9,1.9-2,3.3-3.6,4.3c-1.6,1-3.4,1.5-5.4,1.5c-2,0-3.8-0.5-5.4-1.5c-1.6-1-2.8-2.4-3.6-4.2
	c-0.9-1.8-1.3-4-1.3-6.4v-1.9c0-2.5,0.4-4.6,1.3-6.5c0.9-1.9,2.1-3.3,3.6-4.3c1.6-1,3.4-1.5,5.4-1.5c2,0,3.9,0.5,5.4,1.5
	c1.6,1,2.8,2.4,3.6,4.3c0.8,1.9,1.3,4.1,1.3,6.6V2343.3z M4182,2341.6c0-3-0.6-5.4-1.8-7c-1.2-1.6-2.9-2.4-5.1-2.4
	c-2.1,0-3.8,0.8-5,2.4c-1.2,1.6-1.9,3.9-1.9,6.8v1.9c0,2.9,0.6,5.2,1.8,6.9c1.2,1.7,3,2.5,5.1,2.5c2.2,0,3.9-0.8,5.1-2.4
	c1.2-1.6,1.8-3.9,1.8-6.8V2341.6z M4194.7,2329.7l8.4,20.9l8.4-20.9h4.4v25.6h-3.4v-10l0.3-10.8l-8.4,20.7h-2.6l-8.4-20.7l0.3,10.7
	v10h-3.4v-25.6H4194.7z M4236.3,2343.4h-11.1v9.1h12.9v2.8h-16.3v-25.6h16.1v2.8h-12.7v8.2h11.1V2343.4z"/>
<path d="M418.5,613.5c0-0.9-0.3-1.6-1-2c-0.7-0.5-1.8-0.9-3.5-1.3c-1.6-0.4-2.9-0.8-3.9-1.3c-1-0.5-1.7-1.1-2.1-1.8
	c-0.5-0.7-0.7-1.5-0.7-2.4c0-1.6,0.7-2.9,2-4c1.3-1.1,3-1.6,5.1-1.6c2.2,0,3.9,0.6,5.2,1.7c1.3,1.1,2,2.5,2,4.3h-3.3
	c0-0.9-0.4-1.7-1.1-2.3c-0.8-0.6-1.7-1-2.8-1c-1.2,0-2.1,0.3-2.8,0.8c-0.7,0.5-1,1.2-1,2c0,0.8,0.3,1.4,0.9,1.8
	c0.6,0.4,1.7,0.8,3.4,1.1c1.6,0.4,2.9,0.8,4,1.3c1,0.5,1.8,1.1,2.2,1.8c0.5,0.7,0.7,1.6,0.7,2.6c0,1.7-0.7,3.1-2,4.1
	c-1.4,1-3.1,1.5-5.3,1.5c-1.5,0-2.9-0.3-4-0.8c-1.2-0.5-2.1-1.3-2.8-2.2c-0.7-1-1-2-1-3.1h3.3c0.1,1.1,0.5,2,1.3,2.6
	c0.8,0.6,1.9,0.9,3.2,0.9c1.2,0,2.2-0.2,3-0.7C418.2,615,418.5,614.3,418.5,613.5z M437.8,616.6c-1.3,1.5-3.1,2.2-5.6,2.2
	c-2,0-3.6-0.6-4.6-1.8c-1.1-1.2-1.6-2.9-1.6-5.2v-12.4h3.3v12.3c0,2.9,1.2,4.3,3.5,4.3c2.5,0,4.1-0.9,5-2.8v-13.8h3.3v19h-3.1
	L437.8,616.6z M462,609.2c0,2.9-0.7,5.2-2,7c-1.3,1.8-3.1,2.6-5.4,2.6c-2.4,0-4.3-0.8-5.6-2.5l-0.2,2.2h-3v-27h3.3v10.1
	c1.3-1.6,3.1-2.4,5.4-2.4c2.3,0,4.1,0.9,5.4,2.6c1.3,1.7,2,4.1,2,7.2V609.2z M458.7,608.8c0-2.2-0.4-3.9-1.3-5.1
	c-0.9-1.2-2.1-1.8-3.7-1.8c-2.1,0-3.7,1-4.6,3v8.2c1,2,2.5,3,4.7,3c1.6,0,2.8-0.6,3.6-1.8C458.3,613.1,458.7,611.3,458.7,608.8z
	 M469.2,599.5l0.1,2.1c1.4-1.6,3.3-2.5,5.6-2.5c2.7,0,4.5,1,5.4,3.1c0.6-0.9,1.5-1.7,2.5-2.2c1-0.6,2.2-0.8,3.6-0.8
	c4.2,0,6.3,2.2,6.4,6.6v12.7h-3.3v-12.6c0-1.4-0.3-2.4-0.9-3c-0.6-0.7-1.7-1-3.1-1c-1.2,0-2.2,0.4-3,1.1c-0.8,0.7-1.3,1.7-1.4,2.9
	v12.6h-3.3V606c0-2.8-1.4-4.1-4.1-4.1c-2.1,0-3.6,0.9-4.4,2.7v13.9h-3.3v-19H469.2z M501.2,618.5H498v-19h3.3V618.5z M497.7,594.4
	c0-0.5,0.2-1,0.5-1.3c0.3-0.4,0.8-0.5,1.4-0.5c0.6,0,1.1,0.2,1.4,0.5c0.3,0.4,0.5,0.8,0.5,1.3c0,0.5-0.2,1-0.5,1.3
	c-0.3,0.4-0.8,0.5-1.4,0.5c-0.6,0-1.1-0.2-1.4-0.5C497.8,595.4,497.7,595,497.7,594.4z M510.8,594.9v4.6h3.6v2.5h-3.6v11.8
	c0,0.8,0.2,1.3,0.5,1.7c0.3,0.4,0.9,0.6,1.6,0.6c0.4,0,0.9-0.1,1.5-0.2v2.6c-0.9,0.2-1.7,0.4-2.5,0.4c-1.5,0-2.5-0.4-3.3-1.3
	c-0.7-0.9-1.1-2.1-1.1-3.7V602h-3.5v-2.5h3.5v-4.6H510.8z M522.6,594.9v4.6h3.6v2.5h-3.6v11.8c0,0.8,0.2,1.3,0.5,1.7
	c0.3,0.4,0.9,0.6,1.6,0.6c0.4,0,0.9-0.1,1.5-0.2v2.6c-0.9,0.2-1.7,0.4-2.5,0.4c-1.5,0-2.5-0.4-3.3-1.3c-0.7-0.9-1.1-2.1-1.1-3.7V602
	h-3.5v-2.5h3.5v-4.6H522.6z M537.9,618.9c-2.6,0-4.7-0.8-6.3-2.5c-1.6-1.7-2.4-4-2.4-6.8v-0.6c0-1.9,0.4-3.6,1.1-5
	c0.7-1.5,1.7-2.6,3-3.5c1.3-0.8,2.7-1.3,4.2-1.3c2.5,0,4.4,0.8,5.8,2.4c1.4,1.6,2.1,4,2.1,7v1.4h-12.9c0,1.9,0.6,3.4,1.6,4.6
	c1.1,1.1,2.4,1.7,4,1.7c1.1,0,2.1-0.2,2.9-0.7s1.5-1.1,2.1-1.9l2,1.5C543.5,617.6,541.1,618.9,537.9,618.9z M537.5,601.8
	c-1.3,0-2.4,0.5-3.3,1.4c-0.9,0.9-1.4,2.3-1.7,4h9.5V607c-0.1-1.7-0.5-2.9-1.3-3.8C539.9,602.3,538.8,601.8,537.5,601.8z
	 M548.3,608.8c0-2.9,0.7-5.3,2.1-7c1.4-1.8,3.2-2.7,5.4-2.7c2.2,0,4,0.8,5.3,2.3v-9.9h3.3v27h-3l-0.2-2c-1.3,1.6-3.1,2.4-5.4,2.4
	c-2.2,0-4-0.9-5.4-2.7c-1.4-1.8-2.1-4.2-2.1-7.1V608.8z M551.5,609.2c0,2.2,0.4,3.8,1.3,5.1c0.9,1.2,2.1,1.8,3.7,1.8
	c2.1,0,3.6-0.9,4.5-2.8v-8.7c-1-1.8-2.5-2.7-4.5-2.7c-1.6,0-2.8,0.6-3.7,1.8C552,605,551.5,606.8,551.5,609.2z M590.1,618.5
	c-0.2-0.4-0.3-1-0.5-2c-1.5,1.6-3.3,2.4-5.4,2.4c-1.9,0-3.4-0.5-4.6-1.6c-1.2-1.1-1.8-2.4-1.8-4c0-2,0.8-3.5,2.2-4.6
	c1.5-1.1,3.6-1.7,6.4-1.7h3.2v-1.5c0-1.1-0.3-2-1-2.7c-0.7-0.7-1.7-1-3-1c-1.2,0-2.1,0.3-2.9,0.9c-0.8,0.6-1.2,1.3-1.2,2.1h-3.3
	c0-0.9,0.3-1.9,1-2.7c0.7-0.9,1.6-1.6,2.7-2.1c1.2-0.5,2.4-0.8,3.8-0.8c2.2,0,3.9,0.6,5.1,1.7c1.2,1.1,1.9,2.6,1.9,4.5v8.8
	c0,1.7,0.2,3.1,0.7,4.2v0.3H590.1z M584.7,616c1,0,2-0.3,2.9-0.8c0.9-0.5,1.6-1.2,2-2.1v-3.9H587c-4,0-6,1.2-6,3.5
	c0,1,0.3,1.8,1,2.4C582.7,615.7,583.6,616,584.7,616z M609.6,616.6c-1.3,1.5-3.1,2.2-5.6,2.2c-2,0-3.6-0.6-4.6-1.8
	c-1.1-1.2-1.6-2.9-1.6-5.2v-12.4h3.3v12.3c0,2.9,1.2,4.3,3.5,4.3c2.5,0,4.1-0.9,5-2.8v-13.8h3.3v19h-3.1L609.6,616.6z M617,608.8
	c0-2.9,0.7-5.3,2.1-7c1.4-1.8,3.2-2.7,5.4-2.7c2.2,0,4,0.8,5.3,2.3v-9.9h3.3v27h-3l-0.2-2c-1.3,1.6-3.1,2.4-5.4,2.4
	c-2.2,0-4-0.9-5.4-2.7c-1.4-1.8-2.1-4.2-2.1-7.1V608.8z M620.2,609.2c0,2.2,0.4,3.8,1.3,5.1c0.9,1.2,2.1,1.8,3.7,1.8
	c2.1,0,3.6-0.9,4.5-2.8v-8.7c-1-1.8-2.5-2.7-4.5-2.7c-1.6,0-2.8,0.6-3.7,1.8C620.7,605,620.2,606.8,620.2,609.2z M641.6,618.5h-3.3
	v-19h3.3V618.5z M638.1,594.4c0-0.5,0.2-1,0.5-1.3c0.3-0.4,0.8-0.5,1.4-0.5c0.6,0,1.1,0.2,1.4,0.5c0.3,0.4,0.5,0.8,0.5,1.3
	c0,0.5-0.2,1-0.5,1.3c-0.3,0.4-0.8,0.5-1.4,0.5c-0.6,0-1.1-0.2-1.4-0.5C638.3,595.4,638.1,595,638.1,594.4z M646,608.8
	c0-1.9,0.4-3.5,1.1-5c0.7-1.5,1.8-2.6,3.1-3.4c1.3-0.8,2.8-1.2,4.5-1.2c2.6,0,4.7,0.9,6.3,2.7c1.6,1.8,2.4,4.2,2.4,7.2v0.2
	c0,1.9-0.4,3.5-1.1,5c-0.7,1.5-1.7,2.6-3,3.4c-1.3,0.8-2.8,1.2-4.5,1.2c-2.6,0-4.7-0.9-6.3-2.7c-1.6-1.8-2.4-4.2-2.4-7.1V608.8z
	 M649.2,609.2c0,2.1,0.5,3.8,1.5,5.1c1,1.3,2.3,1.9,3.9,1.9c1.7,0,3-0.6,3.9-1.9c1-1.3,1.5-3.1,1.5-5.4c0-2.1-0.5-3.8-1.5-5.1
	c-1-1.3-2.3-2-3.9-2c-1.6,0-2.9,0.6-3.9,1.9C649.7,605,649.2,606.8,649.2,609.2z M683.1,609h-8.6v-2.7h8.6V609z M715.2,613.5
	c0-0.9-0.3-1.6-1-2c-0.7-0.5-1.8-0.9-3.5-1.3c-1.6-0.4-2.9-0.8-3.9-1.3c-1-0.5-1.7-1.1-2.1-1.8c-0.5-0.7-0.7-1.5-0.7-2.4
	c0-1.6,0.7-2.9,2-4c1.3-1.1,3-1.6,5.1-1.6c2.2,0,3.9,0.6,5.2,1.7c1.3,1.1,2,2.5,2,4.3H715c0-0.9-0.4-1.7-1.1-2.3
	c-0.8-0.6-1.7-1-2.8-1c-1.2,0-2.1,0.3-2.8,0.8c-0.7,0.5-1,1.2-1,2c0,0.8,0.3,1.4,0.9,1.8c0.6,0.4,1.7,0.8,3.4,1.1
	c1.6,0.4,2.9,0.8,4,1.3c1,0.5,1.8,1.1,2.2,1.8c0.5,0.7,0.7,1.6,0.7,2.6c0,1.7-0.7,3.1-2,4.1c-1.4,1-3.1,1.5-5.3,1.5
	c-1.5,0-2.9-0.3-4-0.8c-1.2-0.5-2.1-1.3-2.8-2.2c-0.7-1-1-2-1-3.1h3.3c0.1,1.1,0.5,2,1.3,2.6c0.8,0.6,1.9,0.9,3.2,0.9
	c1.2,0,2.2-0.2,3-0.7C714.8,615,715.2,614.3,715.2,613.5z M721.8,608.8c0-1.9,0.4-3.5,1.1-5c0.7-1.5,1.8-2.6,3.1-3.4
	c1.3-0.8,2.8-1.2,4.5-1.2c2.6,0,4.7,0.9,6.3,2.7c1.6,1.8,2.4,4.2,2.4,7.2v0.2c0,1.9-0.3,3.5-1.1,5c-0.7,1.5-1.7,2.6-3,3.4
	c-1.3,0.8-2.8,1.2-4.5,1.2c-2.6,0-4.7-0.9-6.3-2.7c-1.6-1.8-2.4-4.2-2.4-7.1V608.8z M725.1,609.2c0,2.1,0.5,3.8,1.5,5.1
	c1,1.3,2.3,1.9,3.9,1.9c1.7,0,3-0.6,3.9-1.9c1-1.3,1.5-3.1,1.5-5.4c0-2.1-0.5-3.8-1.5-5.1c-1-1.3-2.3-2-3.9-2
	c-1.6,0-2.9,0.6-3.9,1.9C725.6,605,725.1,606.8,725.1,609.2z M746.7,618.5h-3.3v-27h3.3V618.5z M751.1,608.8c0-1.9,0.4-3.5,1.1-5
	c0.7-1.5,1.8-2.6,3-3.4c1.3-0.8,2.8-1.2,4.5-1.2c2.6,0,4.7,0.9,6.3,2.7c1.6,1.8,2.4,4.2,2.4,7.2v0.2c0,1.9-0.4,3.5-1.1,5
	c-0.7,1.5-1.7,2.6-3,3.4c-1.3,0.8-2.8,1.2-4.5,1.2c-2.6,0-4.7-0.9-6.3-2.7c-1.6-1.8-2.4-4.2-2.4-7.1V608.8z M754.4,609.2
	c0,2.1,0.5,3.8,1.5,5.1c1,1.3,2.3,1.9,3.9,1.9c1.7,0,3-0.6,3.9-1.9c1-1.3,1.5-3.1,1.5-5.4c0-2.1-0.5-3.8-1.5-5.1c-1-1.3-2.3-2-3.9-2
	c-1.6,0-2.9,0.6-3.9,1.9C754.9,605,754.4,606.8,754.4,609.2z"/>
<path d="M418.5,785.5c0-0.9-0.3-1.6-1-2c-0.7-0.5-1.8-0.9-3.5-1.3c-1.6-0.3-2.9-0.8-3.9-1.3c-1-0.5-1.7-1.1-2.1-1.8
	c-0.5-0.7-0.7-1.5-0.7-2.4c0-1.6,0.7-2.9,2-3.9c1.3-1.1,3-1.6,5.1-1.6c2.2,0,3.9,0.6,5.2,1.7c1.3,1.1,2,2.5,2,4.3h-3.3
	c0-0.9-0.4-1.7-1.1-2.3c-0.8-0.7-1.7-1-2.8-1c-1.2,0-2.1,0.3-2.8,0.8c-0.7,0.5-1,1.2-1,2c0,0.8,0.3,1.4,0.9,1.8
	c0.6,0.4,1.7,0.8,3.4,1.1c1.6,0.4,2.9,0.8,4,1.3c1,0.5,1.8,1.1,2.2,1.8c0.5,0.7,0.7,1.6,0.7,2.6c0,1.7-0.7,3.1-2,4.1
	c-1.4,1-3.1,1.5-5.3,1.5c-1.5,0-2.9-0.3-4-0.8c-1.2-0.5-2.1-1.3-2.8-2.2c-0.7-1-1-2-1-3.1h3.3c0.1,1.1,0.5,1.9,1.3,2.6
	c0.8,0.6,1.9,0.9,3.2,0.9c1.2,0,2.2-0.2,3-0.7C418.2,787,418.5,786.3,418.5,785.5z M437.8,788.6c-1.3,1.5-3.1,2.2-5.6,2.2
	c-2,0-3.6-0.6-4.6-1.8c-1.1-1.2-1.6-2.9-1.6-5.2v-12.4h3.3v12.3c0,2.9,1.2,4.3,3.5,4.3c2.5,0,4.1-0.9,5-2.8v-13.8h3.3v19h-3.1
	L437.8,788.6z M462,781.2c0,2.9-0.7,5.2-2,7s-3.1,2.6-5.4,2.6c-2.4,0-4.3-0.8-5.6-2.5l-0.2,2.2h-3v-27h3.3v10.1
	c1.3-1.6,3.1-2.4,5.4-2.4c2.3,0,4.1,0.9,5.4,2.6c1.3,1.7,2,4.1,2,7.2V781.2z M458.7,780.8c0-2.2-0.4-3.9-1.3-5.1
	c-0.9-1.2-2.1-1.8-3.7-1.8c-2.1,0-3.7,1-4.6,3v8.2c1,2,2.5,3,4.7,3c1.6,0,2.8-0.6,3.6-1.8C458.3,785.1,458.7,783.3,458.7,780.8z
	 M469.2,771.5l0.1,2.1c1.4-1.6,3.3-2.5,5.6-2.5c2.7,0,4.5,1,5.4,3.1c0.6-0.9,1.5-1.6,2.5-2.2c1-0.6,2.2-0.8,3.6-0.8
	c4.2,0,6.3,2.2,6.4,6.6v12.7h-3.3v-12.6c0-1.4-0.3-2.4-0.9-3c-0.6-0.7-1.7-1-3.1-1c-1.2,0-2.2,0.4-3,1.1c-0.8,0.7-1.3,1.7-1.4,2.9
	v12.6h-3.3V778c0-2.8-1.4-4.2-4.1-4.2c-2.1,0-3.6,0.9-4.4,2.7v13.9h-3.3v-19H469.2z M501.2,790.5H498v-19h3.3V790.5z M497.7,766.4
	c0-0.5,0.2-1,0.5-1.3c0.3-0.4,0.8-0.5,1.4-0.5c0.6,0,1.1,0.2,1.4,0.5s0.5,0.8,0.5,1.3c0,0.5-0.2,1-0.5,1.3c-0.3,0.4-0.8,0.5-1.4,0.5
	c-0.6,0-1.1-0.2-1.4-0.5C497.8,767.4,497.7,767,497.7,766.4z M510.8,766.9v4.6h3.6v2.5h-3.6v11.8c0,0.8,0.2,1.3,0.5,1.7
	c0.3,0.4,0.9,0.6,1.6,0.6c0.4,0,0.9-0.1,1.5-0.2v2.6c-0.9,0.2-1.7,0.3-2.5,0.3c-1.5,0-2.5-0.4-3.3-1.3c-0.7-0.9-1.1-2.1-1.1-3.7V774
	h-3.5v-2.5h3.5v-4.6H510.8z M522.6,766.9v4.6h3.6v2.5h-3.6v11.8c0,0.8,0.2,1.3,0.5,1.7c0.3,0.4,0.9,0.6,1.6,0.6
	c0.4,0,0.9-0.1,1.5-0.2v2.6c-0.9,0.2-1.7,0.3-2.5,0.3c-1.5,0-2.5-0.4-3.3-1.3c-0.7-0.9-1.1-2.1-1.1-3.7V774h-3.5v-2.5h3.5v-4.6
	H522.6z M537.9,790.8c-2.6,0-4.7-0.8-6.3-2.5c-1.6-1.7-2.4-4-2.4-6.8v-0.6c0-1.9,0.4-3.6,1.1-5c0.7-1.5,1.7-2.7,3-3.5
	c1.3-0.8,2.7-1.3,4.2-1.3c2.5,0,4.4,0.8,5.8,2.4c1.4,1.6,2.1,4,2.1,7v1.4h-12.9c0,1.9,0.6,3.4,1.6,4.5c1.1,1.2,2.4,1.7,4,1.7
	c1.1,0,2.1-0.2,2.9-0.7c0.8-0.5,1.5-1.1,2.1-1.9l2,1.6C543.5,789.6,541.1,790.8,537.9,790.8z M537.5,773.8c-1.3,0-2.4,0.5-3.3,1.4
	c-0.9,0.9-1.4,2.3-1.7,4h9.5V779c-0.1-1.7-0.5-2.9-1.3-3.8C539.9,774.3,538.8,773.8,537.5,773.8z M548.3,780.8c0-2.9,0.7-5.3,2.1-7
	c1.4-1.8,3.2-2.7,5.4-2.7c2.2,0,4,0.8,5.3,2.3v-9.9h3.3v27h-3l-0.2-2c-1.3,1.6-3.1,2.4-5.4,2.4c-2.2,0-4-0.9-5.4-2.7
	c-1.4-1.8-2.1-4.2-2.1-7.1V780.8z M551.5,781.2c0,2.2,0.4,3.8,1.3,5.1c0.9,1.2,2.1,1.8,3.7,1.8c2.1,0,3.6-0.9,4.5-2.8v-8.7
	c-1-1.8-2.5-2.7-4.5-2.7c-1.6,0-2.8,0.6-3.7,1.8C552,777,551.5,778.8,551.5,781.2z M590.1,790.5c-0.2-0.4-0.3-1-0.5-2
	c-1.5,1.6-3.3,2.3-5.4,2.3c-1.9,0-3.4-0.5-4.6-1.6c-1.2-1.1-1.8-2.4-1.8-4c0-2,0.8-3.5,2.2-4.6c1.5-1.1,3.6-1.7,6.4-1.7h3.2v-1.5
	c0-1.1-0.3-2-1-2.7c-0.7-0.7-1.7-1-3-1c-1.2,0-2.1,0.3-2.9,0.9c-0.8,0.6-1.2,1.3-1.2,2.1h-3.3c0-0.9,0.3-1.9,1-2.7
	c0.7-0.9,1.6-1.6,2.7-2.1c1.2-0.5,2.4-0.8,3.8-0.8c2.2,0,3.9,0.6,5.1,1.7c1.2,1.1,1.9,2.6,1.9,4.5v8.8c0,1.8,0.2,3.1,0.7,4.2v0.3
	H590.1z M584.7,788c1,0,2-0.3,2.9-0.8s1.6-1.2,2-2.1v-3.9H587c-4,0-6,1.2-6,3.5c0,1,0.3,1.8,1,2.4C582.7,787.7,583.6,788,584.7,788z
	 M609.6,788.6c-1.3,1.5-3.1,2.2-5.6,2.2c-2,0-3.6-0.6-4.6-1.8c-1.1-1.2-1.6-2.9-1.6-5.2v-12.4h3.3v12.3c0,2.9,1.2,4.3,3.5,4.3
	c2.5,0,4.1-0.9,5-2.8v-13.8h3.3v19h-3.1L609.6,788.6z M617,780.8c0-2.9,0.7-5.3,2.1-7c1.4-1.8,3.2-2.7,5.4-2.7c2.2,0,4,0.8,5.3,2.3
	v-9.9h3.3v27h-3l-0.2-2c-1.3,1.6-3.1,2.4-5.4,2.4c-2.2,0-4-0.9-5.4-2.7c-1.4-1.8-2.1-4.2-2.1-7.1V780.8z M620.2,781.2
	c0,2.2,0.4,3.8,1.3,5.1c0.9,1.2,2.1,1.8,3.7,1.8c2.1,0,3.6-0.9,4.5-2.8v-8.7c-1-1.8-2.5-2.7-4.5-2.7c-1.6,0-2.8,0.6-3.7,1.8
	C620.7,777,620.2,778.8,620.2,781.2z M641.6,790.5h-3.3v-19h3.3V790.5z M638.1,766.4c0-0.5,0.2-1,0.5-1.3c0.3-0.4,0.8-0.5,1.4-0.5
	c0.6,0,1.1,0.2,1.4,0.5s0.5,0.8,0.5,1.3c0,0.5-0.2,1-0.5,1.3c-0.3,0.4-0.8,0.5-1.4,0.5c-0.6,0-1.1-0.2-1.4-0.5
	C638.3,767.4,638.1,767,638.1,766.4z M646,780.8c0-1.9,0.4-3.5,1.1-5c0.7-1.5,1.8-2.6,3.1-3.5c1.3-0.8,2.8-1.2,4.5-1.2
	c2.6,0,4.7,0.9,6.3,2.7c1.6,1.8,2.4,4.2,2.4,7.2v0.2c0,1.9-0.4,3.5-1.1,5c-0.7,1.5-1.7,2.6-3,3.4c-1.3,0.8-2.8,1.2-4.5,1.2
	c-2.6,0-4.7-0.9-6.3-2.7c-1.6-1.8-2.4-4.2-2.4-7.1V780.8z M649.2,781.2c0,2.1,0.5,3.8,1.5,5.1c1,1.3,2.3,1.9,3.9,1.9
	c1.7,0,3-0.6,3.9-1.9c1-1.3,1.5-3.1,1.5-5.4c0-2.1-0.5-3.8-1.5-5.1c-1-1.3-2.3-1.9-3.9-1.9c-1.6,0-2.9,0.6-3.9,1.9
	C649.7,777,649.2,778.8,649.2,781.2z M683.1,781h-8.6v-2.7h8.6V781z M711.7,788.2c1.2,0,2.2-0.3,3-1.1c0.9-0.7,1.3-1.6,1.4-2.6h3.1
	c-0.1,1.1-0.4,2.1-1.1,3.1c-0.7,1-1.6,1.8-2.8,2.3c-1.1,0.6-2.4,0.9-3.7,0.9c-2.6,0-4.7-0.9-6.2-2.6c-1.5-1.7-2.3-4.1-2.3-7.1v-0.6
	c0-1.8,0.3-3.5,1-4.9c0.7-1.4,1.7-2.6,2.9-3.4c1.3-0.8,2.8-1.2,4.5-1.2c2.1,0,3.9,0.6,5.3,1.9c1.4,1.3,2.2,2.9,2.3,5h-3.1
	c-0.1-1.2-0.6-2.2-1.4-3c-0.8-0.8-1.9-1.2-3.1-1.2c-1.7,0-2.9,0.6-3.9,1.8c-0.9,1.2-1.4,2.9-1.4,5.2v0.6c0,2.2,0.5,3.9,1.4,5.1
	C708.8,787.6,710.1,788.2,711.7,788.2z M722.1,780.8c0-1.9,0.4-3.5,1.1-5c0.7-1.5,1.8-2.6,3.1-3.5c1.3-0.8,2.8-1.2,4.5-1.2
	c2.6,0,4.7,0.9,6.3,2.7c1.6,1.8,2.4,4.2,2.4,7.2v0.2c0,1.9-0.4,3.5-1.1,5c-0.7,1.5-1.7,2.6-3,3.4c-1.3,0.8-2.8,1.2-4.5,1.2
	c-2.6,0-4.7-0.9-6.3-2.7c-1.6-1.8-2.4-4.2-2.4-7.1V780.8z M725.4,781.2c0,2.1,0.5,3.8,1.5,5.1c1,1.3,2.3,1.9,3.9,1.9
	c1.7,0,3-0.6,3.9-1.9c1-1.3,1.5-3.1,1.5-5.4c0-2.1-0.5-3.8-1.5-5.1c-1-1.3-2.3-1.9-3.9-1.9c-1.6,0-2.9,0.6-3.9,1.9
	C725.9,777,725.4,778.8,725.4,781.2z M746.6,771.5l0.1,2.4c1.5-1.8,3.4-2.7,5.7-2.7c4,0,6,2.3,6.1,6.8v12.6h-3.2v-12.6
	c0-1.4-0.3-2.4-1-3c-0.6-0.7-1.6-1-2.9-1c-1.1,0-2,0.3-2.8,0.8c-0.8,0.6-1.4,1.3-1.9,2.2v13.6h-3.3v-19H746.6z M769.6,786.1
	l4.7-14.6h3.3l-6.8,19h-2.5l-6.9-19h3.3L769.6,786.1z M788.4,790.8c-2.6,0-4.7-0.8-6.3-2.5c-1.6-1.7-2.4-4-2.4-6.8v-0.6
	c0-1.9,0.4-3.6,1.1-5c0.7-1.5,1.7-2.7,3-3.5c1.3-0.8,2.7-1.3,4.2-1.3c2.5,0,4.4,0.8,5.8,2.4s2.1,4,2.1,7v1.4H783
	c0.1,1.9,0.6,3.4,1.6,4.5c1.1,1.2,2.4,1.7,4,1.7c1.2,0,2.1-0.2,2.9-0.7c0.8-0.5,1.5-1.1,2.1-1.9l2,1.6
	C794,789.6,791.6,790.8,788.4,790.8z M788,773.8c-1.3,0-2.4,0.5-3.3,1.4c-0.9,0.9-1.4,2.3-1.7,4h9.5V779c-0.1-1.7-0.5-2.9-1.3-3.8
	C790.5,774.3,789.4,773.8,788,773.8z M808.8,774.4c-0.5-0.1-1-0.1-1.6-0.1c-2.1,0-3.6,0.9-4.3,2.7v13.5h-3.2v-19h3.2l0.1,2.2
	c1.1-1.7,2.6-2.6,4.5-2.6c0.6,0,1.1,0.1,1.4,0.2V774.4z M822.9,785.5c0-0.9-0.3-1.6-1-2c-0.7-0.5-1.8-0.9-3.5-1.3
	c-1.6-0.3-2.9-0.8-3.9-1.3c-1-0.5-1.7-1.1-2.2-1.8c-0.4-0.7-0.7-1.5-0.7-2.4c0-1.6,0.7-2.9,2-3.9c1.3-1.1,3-1.6,5.1-1.6
	c2.2,0,3.9,0.6,5.2,1.7c1.3,1.1,2,2.5,2,4.3h-3.3c0-0.9-0.4-1.7-1.1-2.3c-0.8-0.7-1.7-1-2.8-1c-1.2,0-2.1,0.3-2.8,0.8
	c-0.7,0.5-1,1.2-1,2c0,0.8,0.3,1.4,0.9,1.8s1.7,0.8,3.4,1.1c1.6,0.4,3,0.8,4,1.3c1,0.5,1.8,1.1,2.2,1.8c0.5,0.7,0.7,1.6,0.7,2.6
	c0,1.7-0.7,3.1-2,4.1c-1.4,1-3.1,1.5-5.3,1.5c-1.5,0-2.9-0.3-4-0.8c-1.2-0.5-2.1-1.3-2.8-2.2c-0.7-1-1-2-1-3.1h3.2
	c0.1,1.1,0.5,1.9,1.3,2.6c0.8,0.6,1.9,0.9,3.2,0.9c1.2,0,2.2-0.2,3-0.7C822.5,787,822.9,786.3,822.9,785.5z M842.1,790.5
	c-0.2-0.4-0.3-1-0.4-2c-1.5,1.6-3.3,2.3-5.4,2.3c-1.9,0-3.4-0.5-4.6-1.6c-1.2-1.1-1.8-2.4-1.8-4c0-2,0.8-3.5,2.2-4.6
	c1.5-1.1,3.6-1.7,6.4-1.7h3.2v-1.5c0-1.1-0.3-2-1-2.7c-0.7-0.7-1.7-1-3-1c-1.2,0-2.1,0.3-2.9,0.9c-0.8,0.6-1.2,1.3-1.2,2.1h-3.3
	c0-0.9,0.3-1.9,1-2.7c0.7-0.9,1.6-1.6,2.8-2.1c1.2-0.5,2.4-0.8,3.8-0.8c2.2,0,3.9,0.6,5.1,1.7c1.2,1.1,1.9,2.6,1.9,4.5v8.8
	c0,1.8,0.2,3.1,0.7,4.2v0.3H842.1z M836.7,788c1,0,2-0.3,2.9-0.8c0.9-0.5,1.6-1.2,2-2.1v-3.9h-2.6c-4,0-6,1.2-6,3.5
	c0,1,0.3,1.8,1,2.4C834.8,787.7,835.7,788,836.7,788z M854.4,766.9v4.6h3.6v2.5h-3.6v11.8c0,0.8,0.2,1.3,0.5,1.7
	c0.3,0.4,0.8,0.6,1.6,0.6c0.4,0,0.9-0.1,1.5-0.2v2.6c-0.8,0.2-1.7,0.3-2.5,0.3c-1.5,0-2.6-0.4-3.3-1.3s-1.1-2.1-1.1-3.7V774h-3.5
	v-2.5h3.5v-4.6H854.4z M865.3,790.5H862v-19h3.2V790.5z M861.8,766.4c0-0.5,0.2-1,0.5-1.3c0.3-0.4,0.8-0.5,1.4-0.5
	c0.6,0,1.1,0.2,1.4,0.5c0.3,0.4,0.5,0.8,0.5,1.3c0,0.5-0.2,1-0.5,1.3c-0.3,0.4-0.8,0.5-1.4,0.5c-0.6,0-1.1-0.2-1.4-0.5
	C861.9,767.4,861.8,767,861.8,766.4z M869.6,780.8c0-1.9,0.4-3.5,1.1-5c0.7-1.5,1.8-2.6,3.1-3.5c1.3-0.8,2.8-1.2,4.5-1.2
	c2.6,0,4.7,0.9,6.3,2.7c1.6,1.8,2.4,4.2,2.4,7.2v0.2c0,1.9-0.4,3.5-1.1,5c-0.7,1.5-1.7,2.6-3,3.4c-1.3,0.8-2.8,1.2-4.5,1.2
	c-2.6,0-4.7-0.9-6.3-2.7c-1.6-1.8-2.4-4.2-2.4-7.1V780.8z M872.9,781.2c0,2.1,0.5,3.8,1.5,5.1c1,1.3,2.3,1.9,3.9,1.9
	c1.6,0,3-0.6,3.9-1.9c1-1.3,1.5-3.1,1.5-5.4c0-2.1-0.5-3.8-1.5-5.1c-1-1.3-2.3-1.9-3.9-1.9c-1.6,0-2.9,0.6-3.9,1.9
	C873.4,777,872.9,778.8,872.9,781.2z M894.1,771.5l0.1,2.4c1.5-1.8,3.3-2.7,5.7-2.7c4,0,6,2.3,6.1,6.8v12.6h-3.2v-12.6
	c0-1.4-0.3-2.4-0.9-3c-0.6-0.7-1.6-1-2.9-1c-1.1,0-2,0.3-2.8,0.8c-0.8,0.6-1.4,1.3-1.9,2.2v13.6H891v-19H894.1z"/>
<path d="M411.9,940.9v4.6h3.6v2.5h-3.6v11.8c0,0.8,0.2,1.3,0.5,1.7c0.3,0.4,0.9,0.6,1.6,0.6c0.4,0,0.9-0.1,1.5-0.2v2.6
	c-0.9,0.2-1.7,0.3-2.5,0.3c-1.5,0-2.5-0.4-3.3-1.3c-0.7-0.9-1.1-2.1-1.1-3.7V948h-3.5v-2.5h3.5v-4.6H411.9z M431,964.5
	c-0.2-0.4-0.3-1-0.5-2c-1.5,1.6-3.3,2.3-5.4,2.3c-1.9,0-3.4-0.5-4.6-1.6c-1.2-1.1-1.8-2.4-1.8-4c0-2,0.8-3.5,2.2-4.6
	c1.5-1.1,3.6-1.7,6.4-1.7h3.2v-1.5c0-1.1-0.3-2-1-2.7c-0.7-0.7-1.7-1-3-1c-1.2,0-2.1,0.3-2.9,0.9c-0.8,0.6-1.2,1.3-1.2,2.1h-3.3
	c0-0.9,0.3-1.9,1-2.7c0.7-0.9,1.6-1.6,2.7-2.1c1.2-0.5,2.4-0.8,3.8-0.8c2.2,0,3.9,0.6,5.2,1.7c1.2,1.1,1.9,2.6,1.9,4.5v8.8
	c0,1.8,0.2,3.1,0.7,4.2v0.3H431z M425.6,962c1,0,2-0.3,2.9-0.8s1.6-1.2,2-2.1v-3.9h-2.5c-4,0-6,1.2-6,3.5c0,1,0.3,1.8,1,2.4
	C423.6,961.7,424.5,962,425.6,962z M444.1,955.7l-2,2.1v6.7h-3.3v-27h3.3v16.3l1.7-2.1l5.9-6.3h4l-7.4,8l8.3,11.1h-3.8L444.1,955.7z
	 M464.6,964.8c-2.6,0-4.7-0.8-6.3-2.5c-1.6-1.7-2.4-4-2.4-6.8v-0.6c0-1.9,0.4-3.6,1.1-5c0.7-1.5,1.7-2.7,3-3.5
	c1.3-0.8,2.7-1.3,4.2-1.3c2.5,0,4.4,0.8,5.8,2.4c1.4,1.6,2.1,4,2.1,7v1.4h-12.9c0,1.9,0.6,3.4,1.6,4.5c1.1,1.2,2.4,1.7,4,1.7
	c1.1,0,2.1-0.2,2.9-0.7c0.8-0.5,1.5-1.1,2.1-1.9l2,1.6C470.2,963.6,467.8,964.8,464.6,964.8z M464.2,947.8c-1.3,0-2.4,0.5-3.3,1.4
	c-0.9,0.9-1.4,2.3-1.7,4h9.5V953c-0.1-1.7-0.5-2.9-1.3-3.8C466.6,948.3,465.6,947.8,464.2,947.8z M486.9,959.5c0-0.9-0.3-1.6-1-2
	c-0.7-0.5-1.8-0.9-3.5-1.3c-1.6-0.3-2.9-0.8-3.9-1.3c-1-0.5-1.7-1.1-2.1-1.8c-0.5-0.7-0.7-1.5-0.7-2.4c0-1.6,0.7-2.9,2-3.9
	c1.3-1.1,3-1.6,5.1-1.6c2.2,0,3.9,0.6,5.2,1.7c1.3,1.1,2,2.5,2,4.3h-3.3c0-0.9-0.4-1.7-1.1-2.3c-0.8-0.7-1.7-1-2.8-1
	c-1.2,0-2.1,0.3-2.8,0.8c-0.7,0.5-1,1.2-1,2c0,0.8,0.3,1.4,0.9,1.8c0.6,0.4,1.7,0.8,3.4,1.1c1.6,0.4,2.9,0.8,4,1.3
	c1,0.5,1.8,1.1,2.2,1.8c0.5,0.7,0.7,1.6,0.7,2.6c0,1.7-0.7,3.1-2,4.1c-1.4,1-3.1,1.5-5.3,1.5c-1.5,0-2.9-0.3-4-0.8
	c-1.2-0.5-2.1-1.3-2.8-2.2c-0.7-1-1-2-1-3.1h3.3c0.1,1.1,0.5,1.9,1.3,2.6c0.8,0.6,1.9,0.9,3.2,0.9c1.2,0,2.2-0.2,3-0.7
	C486.5,961,486.9,960.3,486.9,959.5z M509.5,959.7l4.4-14.3h3.5l-7.6,22c-1.2,3.2-3.1,4.7-5.6,4.7l-0.6-0.1l-1.2-0.2v-2.6l0.9,0.1
	c1.1,0,2-0.2,2.6-0.7c0.6-0.5,1.1-1.3,1.5-2.5l0.7-1.9l-6.8-18.8h3.5L509.5,959.7z M519.2,954.8c0-1.9,0.4-3.5,1.1-5
	c0.7-1.5,1.8-2.6,3.1-3.5c1.3-0.8,2.8-1.2,4.5-1.2c2.6,0,4.7,0.9,6.3,2.7c1.6,1.8,2.4,4.2,2.4,7.2v0.2c0,1.9-0.4,3.5-1.1,5
	c-0.7,1.5-1.7,2.6-3,3.4c-1.3,0.8-2.8,1.2-4.5,1.2c-2.6,0-4.7-0.9-6.3-2.7c-1.6-1.8-2.4-4.2-2.4-7.1V954.8z M522.5,955.2
	c0,2.1,0.5,3.8,1.5,5.1c1,1.3,2.3,1.9,3.9,1.9c1.7,0,3-0.6,3.9-1.9c1-1.3,1.5-3.1,1.5-5.4c0-2.1-0.5-3.8-1.5-5.1
	c-1-1.3-2.3-1.9-3.9-1.9c-1.6,0-2.9,0.6-3.9,1.9C523,951,522.5,952.8,522.5,955.2z M552.3,962.6c-1.3,1.5-3.1,2.2-5.6,2.2
	c-2,0-3.6-0.6-4.6-1.8c-1.1-1.2-1.6-2.9-1.6-5.2v-12.4h3.3v12.3c0,2.9,1.2,4.3,3.5,4.3c2.5,0,4.1-0.9,5-2.8v-13.8h3.3v19h-3.1
	L552.3,962.6z M572.6,947.8c1.4-1.8,3.3-2.7,5.6-2.7c4,0,6,2.3,6.1,6.8v12.6h-3.3v-12.6c0-1.4-0.3-2.4-1-3c-0.6-0.7-1.6-1-2.9-1
	c-1.1,0-2,0.3-2.8,0.8c-0.8,0.6-1.4,1.3-1.9,2.2v13.6h-3.3v-27h3.3V947.8z M588.4,954.8c0-1.9,0.4-3.5,1.1-5
	c0.7-1.5,1.8-2.6,3.1-3.5c1.3-0.8,2.8-1.2,4.5-1.2c2.6,0,4.7,0.9,6.3,2.7c1.6,1.8,2.4,4.2,2.4,7.2v0.2c0,1.9-0.4,3.5-1.1,5
	c-0.7,1.5-1.7,2.6-3,3.4c-1.3,0.8-2.8,1.2-4.5,1.2c-2.6,0-4.7-0.9-6.3-2.7c-1.6-1.8-2.4-4.2-2.4-7.1V954.8z M591.6,955.2
	c0,2.1,0.5,3.8,1.5,5.1c1,1.3,2.3,1.9,3.9,1.9c1.7,0,3-0.6,3.9-1.9c1-1.3,1.5-3.1,1.5-5.4c0-2.1-0.5-3.8-1.5-5.1
	c-1-1.3-2.3-1.9-3.9-1.9c-1.6,0-2.9,0.6-3.9,1.9C592.1,951,591.6,952.8,591.6,955.2z M612.8,945.5l0.1,2.1c1.4-1.6,3.3-2.5,5.6-2.5
	c2.7,0,4.5,1,5.4,3.1c0.6-0.9,1.5-1.6,2.5-2.2c1-0.6,2.2-0.8,3.6-0.8c4.2,0,6.3,2.2,6.4,6.6v12.7h-3.3v-12.6c0-1.4-0.3-2.4-0.9-3
	c-0.6-0.7-1.7-1-3.1-1c-1.2,0-2.2,0.4-3,1.1c-0.8,0.7-1.3,1.7-1.4,2.9v12.6h-3.3V952c0-2.8-1.4-4.2-4.1-4.2c-2.1,0-3.6,0.9-4.4,2.7
	v13.9h-3.3v-19H612.8z M649.2,964.8c-2.6,0-4.7-0.8-6.3-2.5c-1.6-1.7-2.4-4-2.4-6.8v-0.6c0-1.9,0.4-3.6,1.1-5c0.7-1.5,1.7-2.7,3-3.5
	c1.3-0.8,2.7-1.3,4.2-1.3c2.5,0,4.4,0.8,5.8,2.4c1.4,1.6,2.1,4,2.1,7v1.4h-12.9c0,1.9,0.6,3.4,1.6,4.5c1.1,1.2,2.4,1.7,4,1.7
	c1.1,0,2.1-0.2,2.9-0.7c0.8-0.5,1.5-1.1,2.1-1.9l2,1.6C654.8,963.6,652.4,964.8,649.2,964.8z M648.8,947.8c-1.3,0-2.4,0.5-3.3,1.4
	c-0.9,0.9-1.4,2.3-1.7,4h9.5V953c-0.1-1.7-0.5-2.9-1.3-3.8C651.2,948.3,650.2,947.8,648.8,947.8z"/>
<path d="M345.7,1124.5c0,2.5-0.4,4.7-1.3,6.6c-0.8,1.9-2,3.3-3.6,4.3c-1.5,1-3.4,1.5-5.4,1.5c-2,0-3.8-0.5-5.4-1.5
	c-1.6-1-2.8-2.4-3.6-4.2c-0.9-1.8-1.3-4-1.3-6.4v-1.8c0-2.5,0.4-4.6,1.3-6.5c0.9-1.9,2.1-3.3,3.6-4.3c1.6-1,3.4-1.5,5.4-1.5
	c2.1,0,3.9,0.5,5.4,1.5c1.6,1,2.8,2.4,3.6,4.3c0.8,1.9,1.3,4.1,1.3,6.6V1124.5z M342.3,1122.9c0-3-0.6-5.4-1.8-7
	c-1.2-1.6-2.9-2.4-5.1-2.4c-2.1,0-3.8,0.8-5,2.4c-1.2,1.6-1.8,3.9-1.9,6.8v1.9c0,2.9,0.6,5.3,1.8,6.9c1.2,1.7,2.9,2.5,5.1,2.5
	c2.2,0,3.9-0.8,5.1-2.4s1.8-3.9,1.8-6.8V1122.9z M357.8,1134.2c1.2,0,2.2-0.3,3-1.1c0.9-0.7,1.3-1.6,1.4-2.6h3.1
	c-0.1,1.1-0.4,2.1-1.1,3.1c-0.7,1-1.6,1.8-2.8,2.3c-1.1,0.6-2.4,0.9-3.7,0.9c-2.6,0-4.7-0.9-6.2-2.6c-1.5-1.7-2.3-4.1-2.3-7.1v-0.6
	c0-1.8,0.3-3.5,1-4.9c0.7-1.4,1.7-2.6,2.9-3.4c1.3-0.8,2.8-1.2,4.5-1.2c2.1,0,3.9,0.6,5.3,1.9c1.4,1.3,2.2,2.9,2.3,5h-3.1
	c-0.1-1.2-0.6-2.2-1.4-3c-0.8-0.8-1.9-1.2-3.1-1.2c-1.7,0-2.9,0.6-3.8,1.8c-0.9,1.2-1.4,2.9-1.4,5.2v0.6c0,2.2,0.5,3.9,1.4,5.1
	C354.9,1133.6,356.2,1134.2,357.8,1134.2z M373.5,1112.9v4.6h3.6v2.5h-3.6v11.8c0,0.8,0.2,1.3,0.5,1.7c0.3,0.4,0.9,0.6,1.6,0.6
	c0.4,0,0.9-0.1,1.5-0.2v2.6c-0.9,0.2-1.7,0.3-2.5,0.3c-1.5,0-2.5-0.4-3.3-1.3c-0.7-0.9-1.1-2.1-1.1-3.7V1120h-3.5v-2.5h3.5v-4.6
	H373.5z M379.6,1126.8c0-1.9,0.4-3.5,1.1-5c0.7-1.5,1.8-2.6,3.1-3.5c1.3-0.8,2.8-1.2,4.5-1.2c2.6,0,4.7,0.9,6.3,2.7
	c1.6,1.8,2.4,4.2,2.4,7.2v0.2c0,1.9-0.4,3.5-1.1,5c-0.7,1.5-1.7,2.6-3,3.4c-1.3,0.8-2.8,1.2-4.5,1.2c-2.6,0-4.7-0.9-6.3-2.7
	c-1.6-1.8-2.4-4.2-2.4-7.1V1126.8z M382.9,1127.2c0,2.1,0.5,3.8,1.5,5.1c1,1.3,2.3,1.9,3.9,1.9c1.7,0,3-0.6,3.9-1.9
	c1-1.3,1.5-3.1,1.5-5.4c0-2.1-0.5-3.8-1.5-5.1c-1-1.3-2.3-1.9-3.9-1.9c-1.6,0-2.9,0.6-3.9,1.9C383.4,1123,382.9,1124.8,382.9,1127.2
	z M417.1,1127.2c0,2.9-0.7,5.2-2,7s-3.1,2.6-5.4,2.6c-2.4,0-4.3-0.8-5.6-2.5l-0.2,2.2h-3v-27h3.3v10.1c1.3-1.6,3.1-2.4,5.4-2.4
	c2.3,0,4.1,0.9,5.4,2.6c1.3,1.7,2,4.1,2,7.2V1127.2z M413.9,1126.8c0-2.2-0.4-3.9-1.3-5.1c-0.9-1.2-2.1-1.8-3.7-1.8
	c-2.1,0-3.7,1-4.6,3v8.2c1,2,2.5,3,4.7,3c1.6,0,2.8-0.6,3.6-1.8C413.4,1131.1,413.9,1129.3,413.9,1126.8z M429.1,1136.8
	c-2.6,0-4.7-0.8-6.3-2.5c-1.6-1.7-2.4-4-2.4-6.8v-0.6c0-1.9,0.4-3.6,1.1-5c0.7-1.5,1.7-2.7,3-3.5c1.3-0.8,2.7-1.3,4.2-1.3
	c2.5,0,4.4,0.8,5.8,2.4c1.4,1.6,2.1,4,2.1,7v1.4h-12.9c0,1.9,0.6,3.4,1.6,4.5c1.1,1.2,2.4,1.7,4,1.7c1.1,0,2.1-0.2,2.9-0.7
	c0.8-0.5,1.5-1.1,2.1-1.9l2,1.6C434.7,1135.6,432.3,1136.8,429.1,1136.8z M428.7,1119.8c-1.3,0-2.4,0.5-3.3,1.4
	c-0.9,0.9-1.4,2.3-1.7,4h9.5v-0.2c-0.1-1.7-0.5-2.9-1.3-3.8C431.2,1120.3,430.1,1119.8,428.7,1119.8z M449.5,1120.4
	c-0.5-0.1-1-0.1-1.6-0.1c-2.1,0-3.6,0.9-4.3,2.7v13.5h-3.3v-19h3.2l0.1,2.2c1.1-1.7,2.6-2.6,4.5-2.6c0.6,0,1.1,0.1,1.4,0.2V1120.4z"
	/>
<path d="M345.6,1235.5h-3.4l-12.9-19.7v19.7H326v-25.6h3.4l12.9,19.8v-19.8h3.4V1235.5z M350.3,1225.8c0-1.9,0.4-3.5,1.1-5
	c0.7-1.5,1.8-2.6,3.1-3.5c1.3-0.8,2.8-1.2,4.5-1.2c2.6,0,4.7,0.9,6.3,2.7c1.6,1.8,2.4,4.2,2.4,7.2v0.2c0,1.9-0.4,3.5-1.1,5
	c-0.7,1.5-1.7,2.6-3,3.4c-1.3,0.8-2.8,1.2-4.5,1.2c-2.6,0-4.7-0.9-6.3-2.7c-1.6-1.8-2.4-4.2-2.4-7.1V1225.8z M353.5,1226.2
	c0,2.1,0.5,3.8,1.5,5.1c1,1.3,2.3,1.9,3.9,1.9c1.7,0,3-0.6,3.9-1.9c1-1.3,1.5-3.1,1.5-5.4c0-2.1-0.5-3.8-1.5-5.1
	c-1-1.3-2.3-1.9-3.9-1.9c-1.6,0-2.9,0.6-3.9,1.9C354,1222,353.5,1223.8,353.5,1226.2z M377.7,1231.1l4.7-14.6h3.3l-6.8,19h-2.5
	l-6.9-19h3.3L377.7,1231.1z M396.5,1235.8c-2.6,0-4.7-0.8-6.3-2.5c-1.6-1.7-2.4-4-2.4-6.8v-0.6c0-1.9,0.4-3.6,1.1-5
	c0.7-1.5,1.7-2.7,3-3.5c1.3-0.8,2.7-1.3,4.2-1.3c2.5,0,4.4,0.8,5.8,2.4c1.4,1.6,2.1,4,2.1,7v1.4H391c0,1.9,0.6,3.4,1.6,4.5
	c1.1,1.2,2.4,1.7,4,1.7c1.1,0,2.1-0.2,2.9-0.7c0.8-0.5,1.5-1.1,2.1-1.9l2,1.6C402,1234.6,399.6,1235.8,396.5,1235.8z M396.1,1218.8
	c-1.3,0-2.4,0.5-3.3,1.4c-0.9,0.9-1.4,2.3-1.7,4h9.5v-0.2c-0.1-1.7-0.5-2.9-1.3-3.8C398.5,1219.3,397.4,1218.8,396.1,1218.8z
	 M410.7,1216.5l0.1,2.1c1.4-1.6,3.3-2.5,5.6-2.5c2.7,0,4.5,1,5.4,3.1c0.6-0.9,1.5-1.6,2.5-2.2c1-0.6,2.2-0.8,3.6-0.8
	c4.2,0,6.3,2.2,6.4,6.6v12.7h-3.3v-12.6c0-1.4-0.3-2.4-0.9-3c-0.6-0.7-1.7-1-3.1-1c-1.2,0-2.2,0.4-3,1.1c-0.8,0.7-1.3,1.7-1.4,2.9
	v12.6h-3.3V1223c0-2.8-1.4-4.2-4.1-4.2c-2.1,0-3.6,0.9-4.4,2.7v13.9h-3.3v-19H410.7z M455.3,1226.2c0,2.9-0.7,5.2-2,7
	s-3.1,2.6-5.4,2.6c-2.4,0-4.3-0.8-5.6-2.5l-0.2,2.2h-3v-27h3.3v10.1c1.3-1.6,3.1-2.4,5.4-2.4c2.3,0,4.1,0.9,5.4,2.6
	c1.3,1.7,2,4.1,2,7.2V1226.2z M452.1,1225.8c0-2.2-0.4-3.9-1.3-5.1c-0.9-1.2-2.1-1.8-3.7-1.8c-2.1,0-3.7,1-4.6,3v8.2
	c1,2,2.5,3,4.7,3c1.6,0,2.8-0.6,3.6-1.8C451.6,1230.1,452.1,1228.3,452.1,1225.8z M467.3,1235.8c-2.6,0-4.7-0.8-6.3-2.5
	c-1.6-1.7-2.4-4-2.4-6.8v-0.6c0-1.9,0.4-3.6,1.1-5c0.7-1.5,1.7-2.7,3-3.5c1.3-0.8,2.7-1.3,4.2-1.3c2.5,0,4.4,0.8,5.8,2.4
	c1.4,1.6,2.1,4,2.1,7v1.4h-12.9c0,1.9,0.6,3.4,1.6,4.5c1.1,1.2,2.4,1.7,4,1.7c1.1,0,2.1-0.2,2.9-0.7c0.8-0.5,1.5-1.1,2.1-1.9l2,1.6
	C472.9,1234.6,470.5,1235.8,467.3,1235.8z M466.9,1218.8c-1.3,0-2.4,0.5-3.3,1.4c-0.9,0.9-1.4,2.3-1.7,4h9.5v-0.2
	c-0.1-1.7-0.5-2.9-1.3-3.8C469.4,1219.3,468.3,1218.8,466.9,1218.8z M487.7,1219.4c-0.5-0.1-1-0.1-1.6-0.1c-2.1,0-3.6,0.9-4.3,2.7
	v13.5h-3.3v-19h3.2l0.1,2.2c1.1-1.7,2.6-2.6,4.5-2.6c0.6,0,1.1,0.1,1.4,0.2V1219.4z"/>
<path d="M326,1329.5v-25.6h7.2c2.2,0,4.2,0.5,5.9,1.5c1.7,1,3,2.4,4,4.2c0.9,1.8,1.4,3.9,1.4,6.3v1.6c0,2.4-0.5,4.5-1.4,6.3
	c-0.9,1.8-2.3,3.2-4,4.2c-1.7,1-3.7,1.5-6,1.5H326z M329.3,1306.7v20.1h3.5c2.6,0,4.6-0.8,6.1-2.4c1.5-1.6,2.2-3.9,2.2-6.9v-1.5
	c0-2.9-0.7-5.2-2.1-6.8c-1.4-1.6-3.3-2.4-5.8-2.5H329.3z M357,1329.8c-2.6,0-4.7-0.8-6.3-2.5c-1.6-1.7-2.4-4-2.4-6.8v-0.6
	c0-1.9,0.4-3.6,1.1-5c0.7-1.5,1.7-2.7,3-3.5c1.3-0.8,2.7-1.3,4.2-1.3c2.5,0,4.4,0.8,5.8,2.4c1.4,1.6,2.1,4,2.1,7v1.4h-12.9
	c0,1.9,0.6,3.4,1.6,4.5c1.1,1.2,2.4,1.7,4,1.7c1.1,0,2.1-0.2,2.9-0.7c0.8-0.5,1.5-1.1,2.1-1.9l2,1.6
	C362.6,1328.6,360.2,1329.8,357,1329.8z M356.6,1312.8c-1.3,0-2.4,0.5-3.3,1.4c-0.9,0.9-1.4,2.3-1.7,4h9.5v-0.2
	c-0.1-1.7-0.5-2.9-1.3-3.8C359,1313.3,357.9,1312.8,356.6,1312.8z M375.8,1327.2c1.2,0,2.2-0.3,3-1.1c0.9-0.7,1.3-1.6,1.4-2.6h3.1
	c-0.1,1.1-0.4,2.1-1.1,3.1c-0.7,1-1.6,1.8-2.8,2.3c-1.1,0.6-2.4,0.9-3.7,0.9c-2.6,0-4.7-0.9-6.2-2.6c-1.5-1.7-2.3-4.1-2.3-7.1v-0.6
	c0-1.8,0.3-3.5,1-4.9c0.7-1.4,1.7-2.6,2.9-3.4c1.3-0.8,2.8-1.2,4.5-1.2c2.1,0,3.9,0.6,5.3,1.9c1.4,1.3,2.2,2.9,2.3,5h-3.1
	c-0.1-1.2-0.6-2.2-1.4-3c-0.8-0.8-1.9-1.2-3.1-1.2c-1.7,0-2.9,0.6-3.8,1.8c-0.9,1.2-1.4,2.9-1.4,5.2v0.6c0,2.2,0.5,3.9,1.4,5.1
	C372.8,1326.6,374.1,1327.2,375.8,1327.2z M394.9,1329.8c-2.6,0-4.7-0.8-6.3-2.5c-1.6-1.7-2.4-4-2.4-6.8v-0.6c0-1.9,0.4-3.6,1.1-5
	c0.7-1.5,1.7-2.7,3-3.5c1.3-0.8,2.7-1.3,4.2-1.3c2.5,0,4.4,0.8,5.8,2.4c1.4,1.6,2.1,4,2.1,7v1.4h-12.9c0,1.9,0.6,3.4,1.6,4.5
	c1.1,1.2,2.4,1.7,4,1.7c1.1,0,2.1-0.2,2.9-0.7c0.8-0.5,1.5-1.1,2.1-1.9l2,1.6C400.5,1328.6,398.1,1329.8,394.9,1329.8z
	 M394.5,1312.8c-1.3,0-2.4,0.5-3.3,1.4c-0.9,0.9-1.4,2.3-1.7,4h9.5v-0.2c-0.1-1.7-0.5-2.9-1.3-3.8
	C396.9,1313.3,395.9,1312.8,394.5,1312.8z M409.2,1310.5l0.1,2.1c1.4-1.6,3.3-2.5,5.6-2.5c2.7,0,4.5,1,5.4,3.1
	c0.6-0.9,1.5-1.6,2.5-2.2c1-0.6,2.2-0.8,3.6-0.8c4.2,0,6.3,2.2,6.4,6.6v12.7h-3.3v-12.6c0-1.4-0.3-2.4-0.9-3c-0.6-0.7-1.7-1-3.1-1
	c-1.2,0-2.2,0.4-3,1.1c-0.8,0.7-1.3,1.7-1.4,2.9v12.6h-3.3V1317c0-2.8-1.4-4.2-4.1-4.2c-2.1,0-3.6,0.9-4.4,2.7v13.9h-3.3v-19H409.2z
	 M453.8,1320.2c0,2.9-0.7,5.2-2,7s-3.1,2.6-5.4,2.6c-2.4,0-4.3-0.8-5.6-2.5l-0.2,2.2h-3v-27h3.3v10.1c1.3-1.6,3.1-2.4,5.4-2.4
	c2.3,0,4.1,0.9,5.4,2.6c1.3,1.7,2,4.1,2,7.2V1320.2z M450.5,1319.8c0-2.2-0.4-3.9-1.3-5.1c-0.9-1.2-2.1-1.8-3.7-1.8
	c-2.1,0-3.7,1-4.6,3v8.2c1,2,2.5,3,4.7,3c1.6,0,2.8-0.6,3.6-1.8C450.1,1324.1,450.5,1322.3,450.5,1319.8z M465.8,1329.8
	c-2.6,0-4.7-0.8-6.3-2.5c-1.6-1.7-2.4-4-2.4-6.8v-0.6c0-1.9,0.4-3.6,1.1-5c0.7-1.5,1.7-2.7,3-3.5c1.3-0.8,2.7-1.3,4.2-1.3
	c2.5,0,4.4,0.8,5.8,2.4c1.4,1.6,2.1,4,2.1,7v1.4h-12.9c0,1.9,0.6,3.4,1.6,4.5c1.1,1.2,2.4,1.7,4,1.7c1.1,0,2.1-0.2,2.9-0.7
	c0.8-0.5,1.5-1.1,2.1-1.9l2,1.6C471.4,1328.6,469,1329.8,465.8,1329.8z M465.4,1312.8c-1.3,0-2.4,0.5-3.3,1.4
	c-0.9,0.9-1.4,2.3-1.7,4h9.5v-0.2c-0.1-1.7-0.5-2.9-1.3-3.8C467.8,1313.3,466.7,1312.8,465.4,1312.8z M486.2,1313.4
	c-0.5-0.1-1-0.1-1.6-0.1c-2.1,0-3.6,0.9-4.3,2.7v13.5H477v-19h3.2l0.1,2.2c1.1-1.7,2.6-2.6,4.5-2.6c0.6,0,1.1,0.1,1.4,0.2V1313.4z"
	/>
<path d="M336.7,1396.9h3.4v18.1c0,2.4-0.7,4.4-2.2,5.8c-1.5,1.4-3.4,2.1-5.9,2.1c-2.5,0-4.5-0.7-5.9-1.9c-1.4-1.3-2.1-3.1-2.1-5.5
	h3.4c0,1.5,0.4,2.6,1.2,3.4c0.8,0.8,2,1.2,3.5,1.2c1.4,0,2.5-0.4,3.4-1.3c0.9-0.9,1.3-2.1,1.3-3.7V1396.9z M357.1,1422.5
	c-0.2-0.4-0.3-1-0.5-2c-1.5,1.6-3.3,2.3-5.4,2.3c-1.9,0-3.4-0.5-4.6-1.6c-1.2-1.1-1.8-2.4-1.8-4c0-2,0.8-3.5,2.2-4.6
	c1.5-1.1,3.6-1.7,6.4-1.7h3.2v-1.5c0-1.1-0.3-2-1-2.7c-0.7-0.7-1.7-1-3-1c-1.2,0-2.1,0.3-2.9,0.9c-0.8,0.6-1.2,1.3-1.2,2.1h-3.3
	c0-0.9,0.3-1.9,1-2.7c0.7-0.9,1.6-1.6,2.7-2.1c1.2-0.5,2.4-0.8,3.8-0.8c2.2,0,3.9,0.6,5.2,1.7c1.2,1.1,1.9,2.6,1.9,4.5v8.8
	c0,1.8,0.2,3.1,0.7,4.2v0.3H357.1z M351.7,1420c1,0,2-0.3,2.9-0.8s1.6-1.2,2-2.1v-3.9H354c-4,0-6,1.2-6,3.5c0,1,0.3,1.8,1,2.4
	C349.7,1419.7,350.6,1420,351.7,1420z M368,1403.5l0.1,2.4c1.5-1.8,3.4-2.7,5.7-2.7c4,0,6,2.3,6.1,6.8v12.6h-3.3v-12.6
	c0-1.4-0.3-2.4-0.9-3c-0.6-0.7-1.6-1-2.9-1c-1.1,0-2,0.3-2.8,0.8c-0.8,0.6-1.4,1.3-1.9,2.2v13.6h-3.3v-19H368z M396.5,1420.6
	c-1.3,1.5-3.1,2.2-5.6,2.2c-2,0-3.6-0.6-4.6-1.8c-1.1-1.2-1.6-2.9-1.6-5.2v-12.4h3.3v12.3c0,2.9,1.2,4.3,3.5,4.3
	c2.5,0,4.1-0.9,5-2.8v-13.8h3.3v19h-3.1L396.5,1420.6z M416.4,1422.5c-0.2-0.4-0.3-1-0.5-2c-1.5,1.6-3.3,2.3-5.4,2.3
	c-1.9,0-3.4-0.5-4.6-1.6c-1.2-1.1-1.8-2.4-1.8-4c0-2,0.8-3.5,2.2-4.6c1.5-1.1,3.6-1.7,6.4-1.7h3.2v-1.5c0-1.1-0.3-2-1-2.7
	c-0.7-0.7-1.7-1-3-1c-1.2,0-2.1,0.3-2.9,0.9c-0.8,0.6-1.2,1.3-1.2,2.1h-3.3c0-0.9,0.3-1.9,1-2.7c0.7-0.9,1.6-1.6,2.7-2.1
	c1.2-0.5,2.4-0.8,3.8-0.8c2.2,0,3.9,0.6,5.2,1.7c1.2,1.1,1.9,2.6,1.9,4.5v8.8c0,1.8,0.2,3.1,0.7,4.2v0.3H416.4z M411,1420
	c1,0,2-0.3,2.9-0.8s1.6-1.2,2-2.1v-3.9h-2.5c-4,0-6,1.2-6,3.5c0,1,0.3,1.8,1,2.4C409,1419.7,409.9,1420,411,1420z M433.4,1406.4
	c-0.5-0.1-1-0.1-1.6-0.1c-2.1,0-3.6,0.9-4.3,2.7v13.5h-3.3v-19h3.2l0.1,2.2c1.1-1.7,2.6-2.6,4.5-2.6c0.6,0,1.1,0.1,1.4,0.2V1406.4z
	 M443,1417.7l4.4-14.3h3.5l-7.6,22c-1.2,3.2-3.1,4.7-5.6,4.7l-0.6-0.1l-1.2-0.2v-2.6l0.9,0.1c1.1,0,2-0.2,2.6-0.7
	c0.6-0.5,1.1-1.3,1.5-2.5l0.7-1.9l-6.8-18.8h3.6L443,1417.7z"/>
<path d="M408,454.5v-25.6h8.4c2.8,0,4.9,0.6,6.3,1.7c1.4,1.1,2.1,2.8,2.1,5.1c0,1.2-0.3,2.3-1,3.2c-0.7,0.9-1.6,1.6-2.8,2.1
	c1.4,0.4,2.5,1.1,3.3,2.2c0.8,1.1,1.2,2.4,1.2,3.9c0,2.3-0.7,4.1-2.2,5.4c-1.5,1.3-3.6,2-6.3,2H408z M411.3,442.5v9.2h5.6
	c1.6,0,2.8-0.4,3.7-1.2c0.9-0.8,1.4-1.9,1.4-3.4c0-3.1-1.7-4.6-5-4.6H411.3z M411.3,439.8h5.1c1.5,0,2.7-0.4,3.5-1.1
	c0.9-0.7,1.3-1.7,1.3-3c0-1.4-0.4-2.4-1.2-3.1c-0.8-0.6-2.1-1-3.7-1h-5V439.8z M441.6,452.6c-1.3,1.5-3.1,2.2-5.6,2.2
	c-2,0-3.6-0.6-4.6-1.8c-1.1-1.2-1.6-2.9-1.6-5.2v-12.4h3.3v12.3c0,2.9,1.2,4.3,3.5,4.3c2.5,0,4.1-0.9,5-2.8v-13.8h3.3v19h-3.1
	L441.6,452.6z M458.9,438.4c-0.5-0.1-1-0.1-1.6-0.1c-2.1,0-3.6,0.9-4.3,2.7v13.5h-3.3v-19h3.2l0.1,2.2c1.1-1.7,2.6-2.5,4.5-2.5
	c0.6,0,1.1,0.1,1.4,0.2V438.4z M469.5,454.9c-2.6,0-4.7-0.8-6.3-2.5c-1.6-1.7-2.4-4-2.4-6.8v-0.6c0-1.9,0.4-3.6,1.1-5
	c0.7-1.5,1.7-2.6,3-3.5c1.3-0.8,2.7-1.3,4.2-1.3c2.5,0,4.4,0.8,5.8,2.4c1.4,1.6,2.1,4,2.1,7v1.4H464c0,1.9,0.6,3.4,1.6,4.6
	c1.1,1.1,2.4,1.7,4,1.7c1.1,0,2.1-0.2,2.9-0.7s1.5-1.1,2.1-1.9l2,1.5C475.1,453.6,472.7,454.9,469.5,454.9z M469.1,437.8
	c-1.3,0-2.4,0.5-3.3,1.4c-0.9,0.9-1.4,2.3-1.7,4h9.5V443c-0.1-1.7-0.5-2.9-1.3-3.8C471.5,438.3,470.4,437.8,469.1,437.8z
	 M492.4,454.5c-0.2-0.4-0.3-1-0.5-2c-1.5,1.6-3.3,2.4-5.4,2.4c-1.9,0-3.4-0.5-4.6-1.6c-1.2-1.1-1.8-2.4-1.8-4c0-2,0.8-3.5,2.2-4.6
	c1.5-1.1,3.6-1.7,6.4-1.7h3.2v-1.5c0-1.1-0.3-2-1-2.7c-0.7-0.7-1.7-1-3-1c-1.2,0-2.1,0.3-2.9,0.9c-0.8,0.6-1.2,1.3-1.2,2.1h-3.3
	c0-0.9,0.3-1.9,1-2.7c0.7-0.9,1.6-1.6,2.7-2.1c1.2-0.5,2.4-0.8,3.8-0.8c2.2,0,3.9,0.6,5.2,1.7c1.2,1.1,1.9,2.6,1.9,4.5v8.8
	c0,1.7,0.2,3.1,0.7,4.2v0.3H492.4z M487,452c1,0,2-0.3,2.9-0.8c0.9-0.5,1.6-1.2,2-2.1v-3.9h-2.5c-4,0-6,1.2-6,3.5c0,1,0.3,1.8,1,2.4
	C485.1,451.7,486,452,487,452z M512,452.6c-1.3,1.5-3.1,2.2-5.6,2.2c-2,0-3.6-0.6-4.6-1.8c-1.1-1.2-1.6-2.9-1.6-5.2v-12.4h3.3v12.3
	c0,2.9,1.2,4.3,3.5,4.3c2.5,0,4.1-0.9,5-2.8v-13.8h3.3v19h-3.1L512,452.6z M548.4,446.4c-0.3,2.7-1.3,4.8-3,6.3
	c-1.7,1.5-3.9,2.2-6.7,2.2c-3,0-5.4-1.1-7.3-3.3c-1.8-2.2-2.7-5.1-2.7-8.7v-2.5c0-2.4,0.4-4.5,1.3-6.3c0.9-1.8,2.1-3.2,3.6-4.1
	c1.6-1,3.4-1.5,5.4-1.5c2.7,0,4.9,0.8,6.5,2.3c1.6,1.5,2.6,3.6,2.9,6.3H545c-0.3-2-0.9-3.5-1.9-4.4c-1-0.9-2.3-1.4-4.1-1.4
	c-2.2,0-3.8,0.8-5.1,2.4c-1.2,1.6-1.8,3.9-1.8,6.8v2.5c0,2.8,0.6,5,1.7,6.6c1.2,1.6,2.8,2.5,4.9,2.5c1.9,0,3.3-0.4,4.3-1.3
	c1-0.9,1.7-2.3,2-4.4H548.4z M555.8,437.8c1.4-1.8,3.3-2.7,5.6-2.7c4,0,6,2.3,6.1,6.8v12.6h-3.3v-12.6c0-1.4-0.3-2.4-1-3
	c-0.6-0.7-1.6-1-2.9-1c-1.1,0-2,0.3-2.8,0.8c-0.8,0.6-1.4,1.3-1.9,2.2v13.6h-3.3v-27h3.3V437.8z M575.9,454.5h-3.3v-19h3.3V454.5z
	 M572.4,430.4c0-0.5,0.2-1,0.5-1.3c0.3-0.4,0.8-0.5,1.4-0.5c0.6,0,1.1,0.2,1.4,0.5c0.3,0.4,0.5,0.8,0.5,1.3c0,0.5-0.2,1-0.5,1.3
	c-0.3,0.4-0.8,0.5-1.4,0.5c-0.6,0-1.1-0.2-1.4-0.5C572.5,431.4,572.4,431,572.4,430.4z M589,454.9c-2.6,0-4.7-0.8-6.3-2.5
	c-1.6-1.7-2.4-4-2.4-6.8v-0.6c0-1.9,0.4-3.6,1.1-5c0.7-1.5,1.7-2.6,3-3.5c1.3-0.8,2.7-1.3,4.2-1.3c2.5,0,4.4,0.8,5.8,2.4
	c1.4,1.6,2.1,4,2.1,7v1.4h-12.9c0,1.9,0.6,3.4,1.6,4.6c1.1,1.1,2.4,1.7,4,1.7c1.1,0,2.1-0.2,2.9-0.7s1.5-1.1,2.1-1.9l2,1.5
	C594.6,453.6,592.2,454.9,589,454.9z M588.6,437.8c-1.3,0-2.4,0.5-3.3,1.4c-0.9,0.9-1.4,2.3-1.7,4h9.5V443c-0.1-1.7-0.5-2.9-1.3-3.8
	C591,438.3,589.9,437.8,588.6,437.8z M601.8,454.5V438h-3v-2.5h3v-2c0-2,0.5-3.6,1.6-4.7c1.1-1.1,2.6-1.7,4.6-1.7
	c0.8,0,1.5,0.1,2.2,0.3l-0.2,2.6c-0.6-0.1-1.1-0.2-1.8-0.2c-1.1,0-1.9,0.3-2.4,0.9c-0.6,0.6-0.9,1.5-0.9,2.6v2h4.1v2.5H605v16.5
	H601.8z"/>
<path class="st3" d="M2736.5,2350.4l-3.1,3.2v8.6h-3.4v-25.6h3.4v12.7l11.4-12.7h4.1l-10.1,11.3l10.9,14.3h-4.1L2736.5,2350.4z
	 M2772.2,2362.3h-3.4v-11.8h-12.9v11.8h-3.4v-25.6h3.4v11h12.9v-11h3.4V2362.3z"/>
<circle class="st0" cx="2982.5" cy="1126.8" r="48"/>
<path class="st3" d="M2966.5,1128.4l-3.1,3.2v8.7h-3.4v-25.6h3.4v12.7l11.4-12.7h4.1l-10.1,11.3l10.9,14.3h-4.1L2966.5,1128.4z
	 M3002.2,1140.3h-3.4v-11.8h-12.9v11.8h-3.4v-25.6h3.4v11h12.9v-11h3.4V1140.3z"/>
<path class="st3" d="M2565.1,2354.6h-10.7l-2.4,6.7h-3.5l9.8-25.6h2.9l9.8,25.6h-3.5L2565.1,2354.6z M2555.4,2351.8h8.7l-4.4-12
	L2555.4,2351.8z M2594.1,2361.3h-3.4v-11.8h-12.9v11.8h-3.4v-25.6h3.4v11h12.9v-11h3.4V2361.3z"/>
<path class="st0" d="M2150.5,1185.8c0,25.9-21.3,47-47.5,47s-47.5-21.1-47.5-47c0-26,21.3-47,47.5-47S2150.5,1159.8,2150.5,1185.8z"
	/>
<path class="st3" d="M2093.1,1192.6h-10.7l-2.4,6.7h-3.5l9.8-25.6h2.9l9.8,25.6h-3.5L2093.1,1192.6z M2083.4,1189.8h8.7l-4.4-12
	L2083.4,1189.8z M2122.1,1199.3h-3.4v-11.8h-12.9v11.8h-3.4v-25.6h3.4v11h12.9v-11h3.4V1199.3z"/>
<path class="st3" d="M2917.7,2350.3c0,2.5-0.4,4.7-1.3,6.6c-0.8,1.9-2,3.3-3.6,4.3c-1.6,1-3.4,1.5-5.4,1.5c-2,0-3.8-0.5-5.4-1.5
	s-2.8-2.4-3.6-4.2c-0.8-1.8-1.3-4-1.3-6.4v-1.9c0-2.5,0.4-4.6,1.3-6.5c0.8-1.9,2.1-3.3,3.6-4.3c1.6-1,3.4-1.5,5.4-1.5
	c2,0,3.8,0.5,5.4,1.5c1.6,1,2.8,2.4,3.6,4.3c0.9,1.9,1.3,4.1,1.3,6.6V2350.3z M2914.3,2348.6c0-3-0.6-5.4-1.8-7
	c-1.2-1.6-2.9-2.4-5.1-2.4c-2.1,0-3.8,0.8-5.1,2.4c-1.2,1.6-1.8,3.9-1.9,6.8v1.9c0,2.9,0.6,5.2,1.9,6.9c1.2,1.7,2.9,2.5,5.1,2.5
	c2.2,0,3.9-0.8,5.1-2.4c1.2-1.6,1.8-3.9,1.8-6.8V2348.6z M2933.4,2336.7h3.4v18.1c0,2.4-0.7,4.4-2.2,5.8c-1.5,1.4-3.4,2.1-5.9,2.1
	c-2.5,0-4.5-0.7-5.9-2c-1.4-1.3-2.1-3.1-2.1-5.5h3.4c0,1.5,0.4,2.6,1.2,3.4c0.8,0.8,2,1.2,3.5,1.2c1.4,0,2.5-0.4,3.4-1.3
	c0.9-0.9,1.3-2.1,1.3-3.7V2336.7z"/>
<path id="OJ-dispatch" class="st0" d="M3838.5,1260.8c0,25.9-22.6,47-50.5,47s-50.5-21.1-50.5-47c0-25.9,22.6-47,50.5-47
	S3838.5,1234.8,3838.5,1260.8z"/>
<path class="st3" d="M3787.7,1261.3c0,2.5-0.4,4.7-1.3,6.6c-0.8,1.9-2,3.3-3.6,4.3c-1.6,1-3.4,1.5-5.4,1.5c-2,0-3.8-0.5-5.4-1.5
	s-2.8-2.4-3.6-4.2c-0.8-1.8-1.3-4-1.3-6.4v-1.8c0-2.5,0.4-4.6,1.3-6.5c0.8-1.9,2.1-3.3,3.6-4.3c1.6-1,3.4-1.5,5.4-1.5
	c2,0,3.8,0.5,5.4,1.5c1.6,1,2.8,2.4,3.6,4.3c0.9,1.9,1.3,4.1,1.3,6.6V1261.3z M3784.3,1259.7c0-3-0.6-5.4-1.8-7
	c-1.2-1.6-2.9-2.5-5.1-2.5c-2.1,0-3.8,0.8-5.1,2.5c-1.2,1.6-1.8,3.9-1.9,6.8v1.9c0,2.9,0.6,5.2,1.9,6.9c1.2,1.7,2.9,2.5,5.1,2.5
	c2.2,0,3.9-0.8,5.1-2.4c1.2-1.6,1.8-3.9,1.8-6.8V1259.7z M3803.4,1247.7h3.4v18.1c0,2.4-0.7,4.4-2.2,5.8c-1.5,1.4-3.4,2.1-5.9,2.1
	c-2.5,0-4.5-0.7-5.9-1.9c-1.4-1.3-2.1-3.1-2.1-5.5h3.4c0,1.5,0.4,2.6,1.2,3.4c0.8,0.8,2,1.2,3.5,1.2c1.4,0,2.5-0.4,3.4-1.3
	c0.9-0.9,1.3-2.1,1.3-3.7V1247.7z"/>
<path class="st3" d="M2329.3,2503.7l8.4,20.9l8.4-20.9h4.4v25.6h-3.4v-10l0.3-10.8l-8.4,20.7h-2.6l-8.4-20.7l0.3,10.7v10h-3.4v-25.6
	H2329.3z M2362.9,2517.4l-3.1,3.2v8.6h-3.4v-25.6h3.4v12.7l11.4-12.7h4.1l-10.1,11.3l10.9,14.3h-4.1L2362.9,2517.4z"/>
<path class="st0" d="M2400.5,2517.3c0,26.2-22.4,47.5-50,47.5s-50-21.3-50-47.5s22.4-47.5,50-47.5S2400.5,2491.1,2400.5,2517.3z"/>
<path class="st3" d="M2329.3,2503.7l8.4,20.9l8.4-20.9h4.4v25.6h-3.4v-10l0.3-10.8l-8.4,20.7h-2.6l-8.4-20.7l0.3,10.7v10h-3.4v-25.6
	H2329.3z M2362.9,2517.4l-3.1,3.2v8.6h-3.4v-25.6h3.4v12.7l11.4-12.7h4.1l-10.1,11.3l10.9,14.3h-4.1L2362.9,2517.4z"/>
<path class="st0" d="M1307.5,3489.3c0,26.2-22.4,47.5-50,47.5s-50-21.3-50-47.5s22.4-47.5,50-47.5S1307.5,3463.1,1307.5,3489.3z"/>
<path class="st3" d="M1236.3,3475.7l8.4,20.9l8.4-20.9h4.4v25.6h-3.4v-10l0.3-10.8l-8.4,20.7h-2.6l-8.4-20.7l0.3,10.7v10h-3.4v-25.6
	H1236.3z M1269.9,3489.4l-3.1,3.2v8.6h-3.4v-25.6h3.4v12.7l11.4-12.7h4.1l-10.1,11.3l10.9,14.3h-4.1L1269.9,3489.4z"/>
<path class="st3" d="M2827.3,2504.7l8.4,20.9l8.4-20.9h4.4v25.6h-3.4v-10l0.3-10.8l-8.4,20.7h-2.6l-8.4-20.7l0.3,10.7v10h-3.4v-25.6
	H2827.3z M2863.8,2519.9h-6v10.4h-3.4v-25.6h8.5c2.9,0,5.1,0.7,6.6,2c1.6,1.3,2.3,3.2,2.3,5.7c0,1.6-0.4,3-1.3,4.2
	c-0.9,1.2-2.1,2.1-3.6,2.6l6,10.9v0.2h-3.6L2863.8,2519.9z M2857.8,2517.2h5.2c1.7,0,3-0.4,4-1.3c1-0.9,1.5-2,1.5-3.5
	c0-1.6-0.5-2.8-1.4-3.6c-0.9-0.9-2.3-1.3-4.1-1.3h-5.2V2517.2z"/>
<path class="st3" d="M2666.3,2504.7l8.4,20.9l8.4-20.9h4.4v25.6h-3.4v-10l0.3-10.8l-8.4,20.7h-2.6l-8.4-20.7l0.3,10.7v10h-3.4v-25.6
	H2666.3z M2696.8,2527.5h12.1v2.8h-15.5v-25.6h3.4V2527.5z"/>
<path class="st0" d="M3344.5,3307.8c0,25.9-21.3,47-47.5,47s-47.5-21.1-47.5-47s21.3-47,47.5-47S3344.5,3281.8,3344.5,3307.8z"/>
<path class="st3" d="M3278.3,3294.7l8.4,20.9l8.4-20.9h4.4v25.6h-3.4v-10l0.3-10.8l-8.4,20.7h-2.6l-8.4-20.7l0.3,10.7v10h-3.4v-25.6
	H3278.3z M3308.8,3317.5h12.1v2.8h-15.5v-25.6h3.4V3317.5z"/>
<path class="st3" d="M2502,2530.3v-25.6h8.4c2.8,0,4.9,0.6,6.3,1.7c1.4,1.2,2.1,2.9,2.1,5.1c0,1.2-0.3,2.2-1,3.2
	c-0.7,0.9-1.6,1.6-2.8,2.1c1.4,0.4,2.5,1.1,3.3,2.2c0.8,1.1,1.2,2.4,1.2,3.9c0,2.3-0.7,4.1-2.2,5.4s-3.6,2-6.3,2H2502z
	 M2505.4,2518.3v9.2h5.6c1.6,0,2.8-0.4,3.7-1.2c0.9-0.8,1.4-1.9,1.4-3.4c0-3.1-1.7-4.6-5-4.6H2505.4z M2505.4,2515.6h5.1
	c1.5,0,2.7-0.4,3.5-1.1c0.9-0.7,1.3-1.7,1.3-3c0-1.4-0.4-2.4-1.2-3.1c-0.8-0.6-2.1-1-3.7-1h-5V2515.6z M2527.8,2527.5h12.1v2.8
	h-15.5v-25.6h3.4V2527.5z"/>
<path class="st0" d="M2750.5,3713.8c0,25.9-21.3,47-47.5,47s-47.5-21.1-47.5-47s21.3-47,47.5-47S2750.5,3687.8,2750.5,3713.8z"/>
<path class="st3" d="M2685,3726.3v-25.6h8.4c2.8,0,4.9,0.6,6.3,1.7c1.4,1.2,2.1,2.9,2.1,5.1c0,1.2-0.3,2.2-1,3.2
	c-0.7,0.9-1.6,1.6-2.8,2.1c1.4,0.4,2.5,1.1,3.3,2.2c0.8,1.1,1.2,2.4,1.2,3.9c0,2.3-0.7,4.1-2.2,5.4s-3.6,2-6.3,2H2685z
	 M2688.4,3714.3v9.2h5.6c1.6,0,2.8-0.4,3.7-1.2c0.9-0.8,1.4-1.9,1.4-3.4c0-3.1-1.7-4.6-5-4.6H2688.4z M2688.4,3711.6h5.1
	c1.5,0,2.7-0.4,3.5-1.1c0.9-0.7,1.3-1.7,1.3-3c0-1.4-0.4-2.4-1.2-3.1c-0.8-0.6-2.1-1-3.7-1h-5V3711.6z M2710.8,3723.5h12.1v2.8
	h-15.5v-25.6h3.4V3723.5z"/>
<path class="st4" d="M1443.5,2273.3c0,36.7-29.1,66.5-65,66.5s-65-29.8-65-66.5s29.1-66.5,65-66.5S1443.5,2236.5,1443.5,2273.3z"/>
<path class="st4" d="M1583.5,1669.3c0,36.7-29.1,66.5-65,66.5s-65-29.8-65-66.5s29.1-66.5,65-66.5S1583.5,1632.5,1583.5,1669.3z"/>
<path class="st4" d="M2089.5,995.3c0,36.7-29.1,66.5-65,66.5s-65-29.8-65-66.5s29.1-66.5,65-66.5S2089.5,958.5,2089.5,995.3z"/>
<path id="self" class="st5" d="M3918.5,747c0,36.7-29.1,66.5-65,66.5s-65-29.8-65-66.5s29.1-66.5,65-66.5S3918.5,710.3,3918.5,747z"
	/>
<path id="KH-october" class="st4" d="M3052.5,928.3c0,36.7-29.1,66.5-65,66.5s-65-29.8-65-66.5s29.1-66.5,65-66.5
	S3052.5,891.5,3052.5,928.3z"/>
<path id="OJ-october" class="st4" d="M3983.5,1107.3c0,36.7-29.1,66.5-65,66.5s-65-29.8-65-66.5s29.1-66.5,65-66.5
	S3983.5,1070.5,3983.5,1107.3z"/>
<path class="st4" d="M1177.5,3342.3c0,36.7-29.1,66.5-65,66.5s-65-29.8-65-66.5s29.1-66.5,65-66.5S1177.5,3305.5,1177.5,3342.3z"/>
<path class="st4" d="M3296.5,3486.3c0,36.7-29.1,66.5-65,66.5s-65-29.8-65-66.5s29.1-66.5,65-66.5S3296.5,3449.5,3296.5,3486.3z"/>
<path class="st4" d="M2572.5,3607.3c0,36.7-29.1,66.5-65,66.5s-65-29.8-65-66.5s29.1-66.5,65-66.5S2572.5,3570.5,2572.5,3607.3z"/>
<path class="st4" d="M2394.5,3539.3c0,36.7-29.1,66.5-65,66.5s-65-29.8-65-66.5s29.1-66.5,65-66.5S2394.5,3502.5,2394.5,3539.3z"/>
<path class="st4" d="M2411.5,3741.3c0,36.7-29.1,66.5-65,66.5s-65-29.8-65-66.5s29.1-66.5,65-66.5S2411.5,3704.5,2411.5,3741.3z"/>
<path class="st6" d="M1406.4,1510.2c12-17.2,15.7-40.2,7.8-61.7c-7.9-21.6-25.4-36.7-45.7-42.2c7.4-10.5,17.8-19,30.8-23.7
	c34-12.4,71.8,5.7,84.5,40.5c12.7,34.8-4.6,73-38.6,85.4C1432.3,1513.2,1418.9,1513.6,1406.4,1510.2z M1406.4,1510.2
	c-7.4,10.5-17.8,19-30.8,23.7c-34,12.4-71.8-5.7-84.5-40.5c-12.7-34.8,4.6-73,38.6-85.4c12.9-4.7,26.3-5,38.8-1.7
	c-12,17.2-15.7,40.1-7.8,61.7C1368.6,1489.6,1386.1,1504.8,1406.4,1510.2z"/>
<defs>
	<filter id="Adobe_OpacityMaskFilter" filterUnits="userSpaceOnUse" x="1286" y="1377.7" width="202.9" height="161">
		<feColorMatrix  type="matrix" values="1 0 0 0 0  0 1 0 0 0  0 0 1 0 0  0 0 0 1 0"/>
	</filter>
</defs>
<mask maskUnits="userSpaceOnUse" x="1286" y="1377.7" width="202.9" height="161" id="path-62-inside-1_1_">
	<path class="st7" d="M1406.4,1510.2c12-17.2,15.7-40.2,7.8-61.7c-7.9-21.6-25.4-36.7-45.7-42.2c7.4-10.5,17.8-19,30.8-23.7
		c34-12.4,71.8,5.7,84.5,40.5c12.7,34.8-4.6,73-38.6,85.4C1432.3,1513.2,1418.9,1513.6,1406.4,1510.2z M1406.4,1510.2
		c-7.4,10.5-17.8,19-30.8,23.7c-34,12.4-71.8-5.7-84.5-40.5c-12.7-34.8,4.6-73,38.6-85.4c12.9-4.7,26.3-5,38.8-1.7
		c-12,17.2-15.7,40.1-7.8,61.7C1368.6,1489.6,1386.1,1504.8,1406.4,1510.2z"/>
</mask>
<path class="st8" d="M1413.3,1448.8c7.8,21.2,4.1,43.8-7.7,60.8l1.6,1.2c12.2-17.5,15.9-40.7,8-62.6L1413.3,1448.8z M1368.3,1407.3
	c20,5.4,37.3,20.3,45,41.6l1.9-0.7c-8-21.9-25.8-37.3-46.4-42.8L1368.3,1407.3z M1369.4,1406.9c7.2-10.4,17.6-18.7,30.3-23.3
	l-0.7-1.9c-13.1,4.8-23.8,13.3-31.2,24L1369.4,1406.9z M1399.7,1383.6c33.4-12.2,70.7,5.6,83.2,39.9l1.9-0.7
	c-12.9-35.3-51.2-53.7-85.8-41.1L1399.7,1383.6z M1482.9,1423.5c12.5,34.3-4.5,71.9-38,84.1l0.7,1.9c34.5-12.6,52-51.4,39.2-86.7
	L1482.9,1423.5z M1444.9,1507.6c-12.7,4.6-25.9,4.9-38.2,1.7l-0.5,1.9c12.6,3.4,26.3,3.1,39.4-1.7L1444.9,1507.6z M1405.6,1509.6
	c-7.2,10.4-17.6,18.7-30.3,23.3l0.7,1.9c13.1-4.8,23.8-13.3,31.2-24L1405.6,1509.6z M1375.3,1532.9c-33.4,12.2-70.7-5.6-83.2-39.9
	l-1.9,0.7c12.9,35.3,51.2,53.7,85.8,41.1L1375.3,1532.9z M1292.1,1493c-12.5-34.3,4.5-71.9,38-84.1l-0.7-1.9
	c-34.5,12.6-52,51.4-39.2,86.7L1292.1,1493z M1330.1,1408.9c12.7-4.6,25.9-4.9,38.2-1.6l0.5-1.9c-12.6-3.4-26.3-3.1-39.4,1.7
	L1330.1,1408.9z M1361.7,1467.7c-7.8-21.3-4.1-43.8,7.7-60.8l-1.6-1.1c-12.2,17.5-15.9,40.7-7.9,62.6L1361.7,1467.7z M1406.7,1509.2
	c-20-5.4-37.3-20.3-45-41.6l-1.9,0.7c8,21.9,25.8,37.3,46.4,42.8L1406.7,1509.2z"/>
<path class="st6" d="M1442.8,3688.9c21-1.4,41.1-12.9,53-32.6c11.9-19.7,12.7-42.8,4.2-62.1c12.8-0.9,26,2,37.7,9.1
	c31,18.7,40.6,59.5,21.4,91.2c-19.1,31.7-59.7,42.2-90.7,23.5C1456.7,3711,1448,3700.7,1442.8,3688.9z M1442.8,3688.9
	c-12.8,0.9-26-2-37.7-9.1c-31-18.7-40.6-59.5-21.4-91.2c19.1-31.7,59.7-42.2,90.7-23.5c11.8,7.1,20.4,17.4,25.6,29.1
	c-21,1.4-41.1,12.9-53,32.6C1435.1,3646.5,1434.3,3669.7,1442.8,3688.9z"/>
<defs>
	<filter id="Adobe_OpacityMaskFilter_1_" filterUnits="userSpaceOnUse" x="1372.8" y="3554.9" width="197.2" height="173.5">
		<feColorMatrix  type="matrix" values="1 0 0 0 0  0 1 0 0 0  0 0 1 0 0  0 0 0 1 0"/>
	</filter>
</defs>
<mask maskUnits="userSpaceOnUse" x="1372.8" y="3554.9" width="197.2" height="173.5" id="path-64-inside-2_1_">
	<path class="st9" d="M1442.8,3688.9c21-1.4,41.1-12.9,53-32.6c11.9-19.7,12.7-42.8,4.2-62.1c12.8-0.9,26,2,37.7,9.1
		c31,18.7,40.6,59.5,21.4,91.2c-19.1,31.7-59.7,42.2-90.7,23.5C1456.7,3711,1448,3700.7,1442.8,3688.9z M1442.8,3688.9
		c-12.8,0.9-26-2-37.7-9.1c-31-18.7-40.6-59.5-21.4-91.2c19.1-31.7,59.7-42.2,90.7-23.5c11.8,7.1,20.4,17.4,25.6,29.1
		c-21,1.4-41.1,12.9-53,32.6C1435.1,3646.5,1434.3,3669.7,1442.8,3688.9z"/>
</mask>
<path class="st10" d="M1494.9,3655.8c-11.7,19.4-31.5,30.7-52.2,32.1l0.1,2c21.3-1.5,41.7-13.1,53.8-33.1L1494.9,3655.8z
	 M1499,3594.7c8.4,18.9,7.6,41.8-4.1,61.2l1.7,1c12-19.9,12.9-43.5,4.2-63L1499,3594.7z M1500,3595.3c12.6-0.9,25.6,2,37.1,9l1-1.7
	c-11.9-7.2-25.3-10.1-38.3-9.2L1500,3595.3z M1537.2,3604.2c30.5,18.4,40,58.6,21.1,89.8l1.7,1c19.4-32.1,9.7-73.6-21.8-92.6
	L1537.2,3604.2z M1558.3,3694.1c-18.9,31.2-58.9,41.6-89.3,23.2l-1,1.7c31.5,19,72.7,8.3,92.1-23.8L1558.3,3694.1z M1468.9,3717.2
	c-11.6-7-20.1-17.1-25.2-28.7l-1.8,0.8c5.3,11.9,14.1,22.4,26,29.6L1468.9,3717.2z M1442.7,3687.9c-12.6,0.9-25.6-2-37.1-9l-1,1.7
	c11.9,7.2,25.3,10.1,38.3,9.2L1442.7,3687.9z M1405.6,3679c-30.5-18.4-40-58.6-21.1-89.8l-1.7-1c-19.4,32.1-9.7,73.6,21.8,92.6
	L1405.6,3679z M1384.5,3589.1c18.8-31.2,58.8-41.6,89.3-23.2l1-1.7c-31.5-19-72.7-8.3-92.1,23.8L1384.5,3589.1z M1473.8,3566
	c11.6,7,20.1,17.1,25.2,28.7l1.8-0.8c-5.3-12-14.1-22.4-26-29.6L1473.8,3566z M1447.8,3627.4c11.7-19.4,31.5-30.7,52.2-32.1l-0.1-2
	c-21.3,1.5-41.7,13.1-53.8,33.1L1447.8,3627.4z M1443.7,3688.5c-8.4-18.9-7.6-41.8,4.1-61.2l-1.7-1c-12,19.9-12.9,43.5-4.2,63
	L1443.7,3688.5z"/>
<path class="st6" d="M3523.6,3413.5c-5.9-20.2-21.5-37.3-43.3-44.7c-21.8-7.3-44.6-3.1-61.5,9.3c-3.6-12.3-3.7-25.8,0.7-38.8
	c11.6-34.3,49.3-52.5,84.4-40.7c35.1,11.8,54.1,49.2,42.6,83.5C3542.1,3395.1,3534,3405.9,3523.6,3413.5z M3523.6,3413.5
	c3.6,12.3,3.7,25.8-0.7,38.8c-11.5,34.3-49.3,52.5-84.4,40.7c-35.1-11.8-54.1-49.2-42.6-83.5c4.4-13,12.6-23.7,22.9-31.3
	c5.9,20.2,21.5,37.3,43.3,44.7C3483.9,3430.1,3506.7,3425.9,3523.6,3413.5z"/>
<defs>
	<filter id="Adobe_OpacityMaskFilter_2_" filterUnits="userSpaceOnUse" x="3391.5" y="3294.1" width="159.4" height="203.5">
		<feColorMatrix  type="matrix" values="1 0 0 0 0  0 1 0 0 0  0 0 1 0 0  0 0 0 1 0"/>
	</filter>
</defs>
<mask maskUnits="userSpaceOnUse" x="3391.5" y="3294.1" width="159.4" height="203.5" id="path-66-inside-3_1_">
	<path class="st11" d="M3523.6,3413.5c-5.9-20.2-21.5-37.3-43.3-44.7c-21.8-7.3-44.6-3.1-61.5,9.3c-3.6-12.3-3.7-25.8,0.7-38.8
		c11.6-34.3,49.3-52.5,84.4-40.7c35.1,11.8,54.1,49.2,42.6,83.5C3542.1,3395.1,3534,3405.9,3523.6,3413.5z M3523.6,3413.5
		c3.6,12.3,3.7,25.8-0.7,38.8c-11.5,34.3-49.3,52.5-84.4,40.7c-35.1-11.8-54.1-49.2-42.6-83.5c4.4-13,12.6-23.7,22.9-31.3
		c5.9,20.2,21.5,37.3,43.3,44.7C3483.9,3430.1,3506.7,3425.9,3523.6,3413.5z"/>
</mask>
<path class="st12" d="M3480,3369.7c21.4,7.2,36.8,24.1,42.6,44l1.9-0.6c-6-20.5-21.9-37.9-43.9-45.3L3480,3369.7z M3419.4,3378.9
	c16.7-12.3,39.2-16.4,60.6-9.2l0.6-1.9c-22.1-7.4-45.2-3.2-62.4,9.5L3419.4,3378.9z M3419.8,3377.9c-3.6-12.2-3.6-25.4,0.7-38.2
	l-1.9-0.6c-4.5,13.2-4.4,26.9-0.7,39.4L3419.8,3377.9z M3420.5,3339.7c11.4-33.7,48.6-51.7,83.1-40l0.6-1.9
	c-35.6-12-73.9,6.5-85.7,41.3L3420.5,3339.7z M3503.6,3299.6c34.6,11.6,53.3,48.5,41.9,82.2l1.9,0.6c11.7-34.8-7.6-72.8-43.2-84.7
	L3503.6,3299.6z M3545.6,3381.8c-4.3,12.8-12.4,23.3-22.6,30.8l1.2,1.6c10.5-7.7,18.8-18.6,23.3-31.8L3545.6,3381.8z M3522.7,3413.8
	c3.6,12.1,3.6,25.4-0.7,38.2l1.9,0.6c4.4-13.2,4.4-26.9,0.7-39.4L3522.7,3413.8z M3521.9,3451.9c-11.4,33.7-48.6,51.7-83.1,40
	l-0.6,1.9c35.6,12,73.9-6.5,85.7-41.3L3521.9,3451.9z M3438.8,3492c-34.6-11.6-53.3-48.5-41.9-82.2l-1.9-0.6
	c-11.7,34.8,7.6,72.8,43.2,84.7L3438.8,3492z M3396.9,3409.8c4.3-12.8,12.3-23.3,22.6-30.8l-1.2-1.6c-10.5,7.7-18.8,18.6-23.3,31.8
	L3396.9,3409.8z M3462.4,3421.9c-21.4-7.2-36.8-24.1-42.7-44l-1.9,0.6c6,20.5,21.9,37.9,43.9,45.3L3462.4,3421.9z M3523,3412.7
	c-16.7,12.3-39.2,16.4-60.6,9.2l-0.6,1.9c22.1,7.4,45.2,3.2,62.4-9.5L3523,3412.7z"/>
<path class="st13" d="M1688.5,1359.3c0,36.7-29.1,66.5-65,66.5s-65-29.8-65-66.5s29.1-66.5,65-66.5S1688.5,1322.5,1688.5,1359.3z"/>
<path class="st13" d="M1337.5,3752.3c0,36.7-29.1,66.5-65,66.5s-65-29.8-65-66.5s29.1-66.5,65-66.5S1337.5,3715.5,1337.5,3752.3z"/>
<path class="st13" d="M2689.5,4073.3c0,36.7-29.1,66.5-65,66.5s-65-29.8-65-66.5c0-36.7,29.1-66.5,65-66.5
	S2689.5,4036.5,2689.5,4073.3z"/>
<path class="st13" d="M2452.5,4006.3c0,36.7-29.1,66.5-65,66.5s-65-29.8-65-66.5c0-36.7,29.1-66.5,65-66.5
	S2452.5,3969.5,2452.5,4006.3z"/>
<path class="st14" d="M1127.5,3604.3c0,36.7-29.1,66.5-65,66.5s-65-29.8-65-66.5s29.1-66.5,65-66.5S1127.5,3567.5,1127.5,3604.3z"/>
<path class="st15" d="M1294.5,2431.3c0,36.7-29.1,66.5-65,66.5s-65-29.8-65-66.5s29.1-66.5,65-66.5S1294.5,2394.5,1294.5,2431.3z"/>
<path class="st15" d="M3220.5,1099.3c0,36.7-29.1,66.5-65,66.5s-65-29.8-65-66.5s29.1-66.5,65-66.5S3220.5,1062.5,3220.5,1099.3z"/>
<path class="st15" d="M2629.5,3851.3c0,36.7-29.1,66.5-65,66.5s-65-29.8-65-66.5c0-36.7,29.1-66.5,65-66.5
	S2629.5,3814.5,2629.5,3851.3z"/>
<path class="st15" d="M2884.5,3568.3c0,36.7-29.1,66.5-65,66.5s-65-29.8-65-66.5s29.1-66.5,65-66.5S2884.5,3531.5,2884.5,3568.3z"/>
<path class="st15" d="M2895.5,3808.3c0,36.7-29.1,66.5-65,66.5s-65-29.8-65-66.5c0-36.7,29.1-66.5,65-66.5
	S2895.5,3771.5,2895.5,3808.3z"/>
<circle class="st0" cx="3591.5" cy="2976.8" r="47"/>
<path class="st3" d="M3570.3,2963.7l8.4,20.9l8.4-20.9h4.4v25.6h-3.4v-10l0.3-10.8l-8.4,20.7h-2.6l-8.4-20.7l0.3,10.7v10h-3.4v-25.6
	H3570.3z M3606.8,2978.9h-6v10.4h-3.4v-25.6h8.5c2.9,0,5.1,0.7,6.6,2c1.6,1.3,2.3,3.2,2.3,5.7c0,1.6-0.4,3-1.3,4.2
	c-0.9,1.2-2.1,2.1-3.6,2.6l6,10.9v0.2h-3.6L3606.8,2978.9z M3600.8,2976.2h5.2c1.7,0,3-0.4,4-1.3c1-0.9,1.5-2,1.5-3.5
	c0-1.6-0.5-2.8-1.4-3.6c-0.9-0.9-2.3-1.3-4.1-1.3h-5.2V2976.2z"/>
<path class="st2" d="M2862,2563.8v95.5l729.5,317"/>
<circle class="st16" cx="260.5" cy="1126" r="32.5"/>
<circle class="st6" cx="260.5" cy="1225" r="32.5"/>
<circle class="st17" cx="260.5" cy="1319" r="32.5"/>
<circle class="st18" cx="260.5" cy="1412" r="32.5"/>
<path class="st2" d="M2252,2297.8v-312.5h-377l-438,438 M2414.5,2310.8v-439L1839,1551.3h-152.5 M2577.5,2310.8v-904l-439-206.5"/>
<polyline class="st2" points="2754.5,2304.8 2754.5,1422.8 2954.5,1155.8 "/>
<path id="OJ-story" class="st2" d="M2921,2304.8c0-107.9,0-215.8,0-323.7c0-35.5-13.3-100.2,0-133.6c5.8-14.5,27.6-28.9,39-40
	c177.3-171.8,354.5-343.6,531.8-515.4c59.3-57.5,168.6-28.3,247.7-28.3"/>
<path class="st2" d="M2349.5,2564.8v496.5L1298,3473.8 M2522,2564.8v833l160,277.5"/>
<path class="st2" d="M2680.5,2557.8v501.5l573,241"/>
<path class="st2" d="M268.4,897.1c2.8-5.3,10.5-5.3,13.3,0l11.9,22.5c1.2,2.3,3.5,4,6.1,4.4l25.1,4.3c5.9,1,8.3,8.3,4.1,12.6
	L311,959.3c-1.8,1.9-2.7,4.5-2.3,7.1l3.6,25.2c0.9,6-5.3,10.5-10.7,7.8l-22.8-11.2c-2.4-1.2-5.1-1.2-7.5,0l-22.8,11.2
	c-5.4,2.7-11.6-1.8-10.7-7.8l3.6-25.2c0.4-2.6-0.5-5.2-2.3-7.1L221.3,941c-4.2-4.3-1.8-11.6,4.1-12.6l25.1-4.3
	c2.6-0.5,4.8-2.1,6.1-4.4L268.4,897.1z"/>
<path class="st2" d="M2219.4,977.9c2.8-5.3,10.4-5.3,13.3,0l11.9,22.5c1.2,2.3,3.5,4,6.1,4.4l25.1,4.3c5.9,1,8.3,8.3,4.1,12.6
	L2262,1040c-1.8,1.9-2.7,4.5-2.3,7.1l3.6,25.2c0.8,6-5.3,10.5-10.7,7.8l-22.8-11.2c-2.4-1.2-5.1-1.2-7.5,0l-22.8,11.2
	c-5.4,2.7-11.6-1.8-10.7-7.8l3.6-25.2c0.4-2.6-0.5-5.2-2.3-7.1l-17.7-18.2c-4.2-4.3-1.8-11.6,4.1-12.6l25.1-4.3
	c2.6-0.4,4.8-2.1,6.1-4.4L2219.4,977.9z"/>
<path class="st2" d="M1750.4,1663.9c2.8-5.3,10.4-5.3,13.3,0l11.9,22.5c1.2,2.3,3.5,4,6.1,4.4l25.1,4.3c5.9,1,8.3,8.3,4.1,12.6
	L1793,1726c-1.8,1.9-2.7,4.5-2.3,7.1l3.6,25.2c0.8,6-5.3,10.5-10.7,7.8l-22.8-11.2c-2.4-1.2-5.1-1.2-7.5,0l-22.8,11.2
	c-5.4,2.7-11.6-1.8-10.7-7.8l3.6-25.2c0.4-2.6-0.5-5.2-2.3-7.1l-17.7-18.2c-4.2-4.3-1.8-11.6,4.1-12.6l25.1-4.3
	c2.6-0.4,4.8-2.1,6.1-4.4L1750.4,1663.9z"/>
<path class="st2" d="M1319.4,2571.9c2.8-5.3,10.4-5.3,13.3,0l11.9,22.5c1.2,2.3,3.5,4,6.1,4.4l25.1,4.3c5.9,1,8.3,8.3,4.1,12.6
	L1362,2634c-1.8,1.9-2.7,4.5-2.3,7.1l3.6,25.2c0.9,6-5.3,10.5-10.7,7.8l-22.8-11.2c-2.4-1.2-5.1-1.2-7.5,0l-22.8,11.2
	c-5.4,2.7-11.6-1.8-10.7-7.8l3.6-25.2c0.4-2.6-0.5-5.2-2.3-7.1l-17.7-18.2c-4.2-4.3-1.8-11.6,4.1-12.6l25.1-4.3
	c2.6-0.5,4.8-2.1,6.1-4.4L1319.4,2571.9z"/>
<path class="st2" d="M2820.4,964.9c2.8-5.3,10.4-5.3,13.3,0l11.9,22.5c1.2,2.3,3.5,4,6.1,4.4l25.1,4.3c5.9,1,8.3,8.3,4.1,12.6
	L2863,1027c-1.8,1.9-2.7,4.5-2.3,7.1l3.6,25.2c0.8,6-5.3,10.5-10.7,7.8l-22.8-11.2c-2.4-1.2-5.1-1.2-7.5,0l-22.8,11.2
	c-5.4,2.7-11.6-1.8-10.7-7.8l3.6-25.2c0.4-2.6-0.5-5.2-2.3-7.1l-17.7-18.2c-4.2-4.3-1.8-11.6,4.1-12.6l25.1-4.3
	c2.6-0.4,4.8-2.1,6.1-4.4L2820.4,964.9z"/>
<path class="st2" d="M3961.4,1293.9c2.8-5.3,10.4-5.3,13.3,0l11.9,22.5c1.2,2.3,3.5,4,6.1,4.4l25.1,4.3c5.9,1,8.3,8.3,4.1,12.6
	L4004,1356c-1.8,1.9-2.7,4.5-2.3,7.1l3.6,25.2c0.9,6-5.3,10.5-10.7,7.8l-22.8-11.2c-2.4-1.2-5.1-1.2-7.5,0l-22.8,11.2
	c-5.4,2.7-11.6-1.8-10.7-7.8l3.6-25.2c0.4-2.6-0.5-5.2-2.3-7.1l-17.7-18.2c-4.2-4.3-1.8-11.6,4.1-12.6l25.1-4.3
	c2.6-0.4,4.8-2.1,6.1-4.4L3961.4,1293.9z"/>
<path class="st2" d="M3758.4,2833.9c2.8-5.3,10.4-5.3,13.3,0l11.9,22.5c1.2,2.3,3.5,4,6.1,4.4l25.1,4.3c5.9,1,8.3,8.3,4.1,12.6
	L3801,2896c-1.8,1.9-2.7,4.5-2.3,7.1l3.6,25.2c0.8,6-5.3,10.5-10.7,7.8l-22.8-11.2c-2.4-1.2-5.1-1.2-7.5,0l-22.8,11.2
	c-5.4,2.7-11.6-1.8-10.7-7.8l3.6-25.2c0.4-2.6-0.5-5.2-2.3-7.1l-17.7-18.2c-4.2-4.3-1.8-11.6,4.1-12.6l25.1-4.3
	c2.6-0.5,4.8-2.1,6.1-4.4L3758.4,2833.9z"/>
<path class="st2" d="M3383.4,3570.9c2.8-5.3,10.4-5.3,13.3,0l11.9,22.5c1.2,2.3,3.5,4,6.1,4.4l25.1,4.3c5.9,1,8.3,8.3,4.1,12.6
	L3426,3633c-1.8,1.9-2.7,4.5-2.3,7.1l3.6,25.2c0.8,6-5.3,10.5-10.7,7.8l-22.8-11.2c-2.4-1.2-5.1-1.2-7.5,0l-22.8,11.2
	c-5.4,2.7-11.6-1.8-10.7-7.8l3.6-25.2c0.4-2.6-0.5-5.2-2.3-7.1l-17.7-18.2c-4.2-4.3-1.8-11.6,4.1-12.6l25.1-4.3
	c2.6-0.5,4.8-2.1,6.1-4.4L3383.4,3570.9z"/>
<path class="st2" d="M2840.4,3957.9c2.8-5.3,10.4-5.3,13.3,0l11.9,22.5c1.2,2.3,3.5,4,6.1,4.4l25.1,4.3c5.9,1,8.3,8.3,4.1,12.6
	L2883,4020c-1.8,1.9-2.7,4.5-2.3,7.1l3.6,25.2c0.8,6-5.3,10.5-10.7,7.8l-22.8-11.2c-2.4-1.2-5.1-1.2-7.5,0l-22.8,11.2
	c-5.4,2.7-11.6-1.8-10.7-7.8l3.6-25.2c0.4-2.6-0.5-5.2-2.3-7.1l-17.7-18.2c-4.2-4.3-1.8-11.6,4.1-12.6l25.1-4.3
	c2.6-0.5,4.8-2.1,6.1-4.4L2840.4,3957.9z"/>
<path class="st2" d="M1058.4,3765.9c2.8-5.3,10.4-5.3,13.3,0l11.9,22.5c1.2,2.3,3.5,4,6.1,4.4l25.1,4.3c5.9,1,8.3,8.3,4.1,12.6
	L1101,3828c-1.8,1.9-2.7,4.5-2.3,7.1l3.6,25.2c0.9,6-5.3,10.5-10.7,7.8l-22.8-11.2c-2.4-1.2-5.1-1.2-7.5,0l-22.8,11.2
	c-5.4,2.7-11.6-1.8-10.7-7.8l3.6-25.2c0.4-2.6-0.5-5.2-2.3-7.1l-17.7-18.2c-4.2-4.3-1.8-11.6,4.1-12.6l25.1-4.3
	c2.6-0.5,4.8-2.1,6.1-4.4L1058.4,3765.9z"/>
<path class="st19" d="M4271,2397.4c0-12.5,0-24.9,0-37.4"/>
<path id="homepath1" class="st19" d="M4202.9,2305.1c0,2.3,38.2-35.7,44.5-46.7c12.4-21.7,9.9-39.6,9.9-67
	c0-67.7-15-122.2-49.1-179.8c-28.8-48.6-74-89.9-106.8-136.7c-64.4-92.1-13-189,38.4-274.7c19.5-32.5,31.7-99.1,13.7-135
	c-14.2-28.5-33.4-49.3-58.2-69.2c-27.4-21.9-57.5-22.6-90-34.6"/>
<path class="st19" d="M3802.8,2897.9c50.1,29.3,110.4,39,168,32.1c51.9-6.2,105.1-13.7,155.9-26.1c42.4-10.3,91-15.8,123.2-48
	c30.2-30.2,27.2-57.9,27.2-98.2c0-21.3-9.3-72.7-27.2-87c-7.6-6-16-23.4-24.4-31.8c-11.8-11.8-17.3-25.3-27.4-37.3
	c-14.7-17.4-19.8-61.4-19.8-84c0-27.2,7.6-54.2,18.7-79c6.4-14.4,22.3-43.8,1.1-54.3"/>
<path id="OJ-october-path" class="st19" d="M3899.1,1055.4c-11.2-33.5-21.1-78.2-60.4-92.7c-74.6-27.6-189.6-0.7-262.7,25.4
	c-33.7,12-65.7,7.7-100.2,2.4c-30.9-4.8-54-33.1-81.1-45.8c-37.6-17.6-83.4-27.1-123.6-12.9c-50.6,17.9-70.5,62.7-93.6,107.4"/>
<path id="KH-october-path" class="st19" d="M2962.1,861.6c-44.9-130-133.5-296.1-257.3-366.8c-119.2-68.1-252.3-134.1-392.5-128.3
	c-57,2.3-118.4,15.7-167.5,44.9c-70.9,42.1-121.6,108.5-178.3,166.6c-53.9,55.3-102.1,115.8-156.8,170.5
	c-48.5,48.5-118.7,74.8-180.1,102.3c-46.7,20.9-98.6,31.3-146,50.9c-43.5,17.9-101.3,26.1-136.7,59.5
	c-49.7,46.9-95.2,104.5-102.3,175.9c-7,69.8-5.3,130.1,22.4,196c7.2,17.1,31.8,70,47.3,77.8"/>
<path class="st19" d="M2014.3,926.2c-54.1-70.1-94-154-175-198.6c-23.1-12.7-47.7-29.8-72.7-38.3c-26.8-9.1-59.2-7.3-87.4-9.6
	c-109.4-8.8-233.9,13.3-324.3,77.2c-113.1,79.9-191.2,185.3-262.1,302.8c-56.2,93.2-105.9,208.5-123.3,316.5
	c-21.1,131.3-23.5,266.4-32.6,399.1c-12.1,174.7-81.8,320.5-169.6,467.9c-48,80.7-80.3,168.2-87.4,262.7
	c-6.6,89.3-14.4,198.5,17.7,283.9c23,61.2,53.7,109.9,100.8,157.1c63.2,63.2,163.6,54.9,239.9,93c32.2,16.1,73.8,67.7,81.7,102.9
	c9.2,41.3,37.4,94.8,16.5,136.7"/>
<g>
	<line class="st20" x1="2480.8" y1="2480.8" x2="2519.2" y2="2519.2"/>
	<line class="st20" x1="2480.8" y1="2519.2" x2="2519.2" y2="2480.8"/>
</g>
</svg>
