<svg width="273" height="119" viewBox="0 0 273 119" fill="none" xmlns="http://www.w3.org/2000/svg">
<g filter="url(#filter0_d)">
<mask id="path-1-inside-1" fill="white">
<path fill-rule="evenodd" clip-rule="evenodd" d="M148.215 -1H-1V99H240.83C234.578 98.1914 225.824 94.4717 240.83 86.062C259.588 75.5499 254.312 65.3073 240.83 63.4205C235.289 62.645 231.134 63.6908 227.104 64.7052C221.329 66.1589 215.809 67.5482 206.832 63.4205C203.889 62.0671 200.509 60.6434 197.012 59.1706C182.402 53.0171 165.76 46.008 170.49 39.7008C170.49 28.5733 162.033 26.2465 155.541 24.4603C151.497 23.3476 148.215 22.4447 148.215 19.7547V-1Z"/>
</mask>
<path fill-rule="evenodd" clip-rule="evenodd" d="M148.215 -1H-1V99H240.83C234.578 98.1914 225.824 94.4717 240.83 86.062C259.588 75.5499 254.312 65.3073 240.83 63.4205C235.289 62.645 231.134 63.6908 227.104 64.7052C221.329 66.1589 215.809 67.5482 206.832 63.4205C203.889 62.0671 200.509 60.6434 197.012 59.1706C182.402 53.0171 165.76 46.008 170.49 39.7008C170.49 28.5733 162.033 26.2465 155.541 24.4603C151.497 23.3476 148.215 22.4447 148.215 19.7547V-1Z" fill="#F5F5F5"/>
<path d="M-1 -1V-1.5H-1.5V-1H-1ZM148.215 -1H148.715V-1.5H148.215V-1ZM-1 99H-1.5V99.5H-1V99ZM240.83 99V99.5L240.894 98.5041L240.83 99ZM240.83 86.062L240.586 85.6258L240.83 86.062ZM240.83 63.4205L240.761 63.9157L240.83 63.4205ZM227.104 64.7052L226.982 64.2203L227.104 64.7052ZM206.832 63.4205L206.624 63.8748L206.832 63.4205ZM197.012 59.1706L197.206 58.7098L197.012 59.1706ZM170.49 39.7008L170.89 40.0008L170.99 39.8675V39.7008H170.49ZM155.541 24.4603L155.409 24.9424V24.9424L155.541 24.4603ZM-1 -0.5H148.215V-1.5H-1V-0.5ZM-0.5 99V-1H-1.5V99H-0.5ZM240.83 98.5H-1V99.5H240.83V98.5ZM240.586 85.6258C236.815 87.7391 234.478 89.5881 233.225 91.2122C231.956 92.8559 231.749 94.3457 232.416 95.614C233.047 96.816 234.398 97.677 235.895 98.2833C237.411 98.8978 239.175 99.29 240.766 99.4959L240.894 98.5041C239.36 98.3056 237.685 97.9297 236.27 97.3565C234.836 96.7752 233.764 96.029 233.301 95.1488C232.873 94.3349 232.901 93.2674 234.016 91.8232C235.146 90.3593 237.343 88.5897 241.075 86.4982L240.586 85.6258ZM240.761 63.9157C244.08 64.3801 246.861 65.3549 248.88 66.6927C250.897 68.0295 252.125 69.7065 252.426 71.5859C252.728 73.464 252.121 75.6518 250.246 78.0465C248.368 80.4442 245.242 83.0165 240.586 85.6258L241.075 86.4982C245.797 83.8515 249.046 81.2014 251.033 78.663C253.023 76.1217 253.772 73.66 253.414 71.4275C253.056 69.1964 251.61 67.3021 249.432 65.8591C247.256 64.4173 244.322 63.4043 240.9 62.9253L240.761 63.9157ZM227.226 65.1901C231.254 64.1764 235.325 63.1549 240.761 63.9157L240.9 62.9253C235.254 62.1352 231.015 63.2052 226.982 64.2203L227.226 65.1901ZM206.624 63.8748C211.171 65.9658 214.867 66.6693 218.171 66.6559C221.464 66.6425 224.344 65.9154 227.226 65.1901L226.982 64.2203C224.088 64.9487 221.321 65.6431 218.167 65.6559C215.023 65.6687 211.471 65.003 207.041 62.9662L206.624 63.8748ZM196.818 59.6314C200.317 61.105 203.689 62.5254 206.624 63.8748L207.041 62.9662C204.089 61.6088 200.701 60.1817 197.206 58.7098L196.818 59.6314ZM170.09 39.4008C169.439 40.2682 169.137 41.178 169.173 42.115C169.208 43.0435 169.574 43.9488 170.172 44.821C171.357 46.552 173.527 48.2568 176.237 49.9195C181.672 53.2537 189.526 56.56 196.818 59.6314L197.206 58.7098C189.888 55.6277 182.116 52.3527 176.76 49.0672C174.075 47.42 172.058 45.8054 170.997 44.2559C170.471 43.488 170.198 42.7628 170.172 42.0767C170.146 41.3992 170.358 40.7102 170.89 40.0008L170.09 39.4008ZM155.409 24.9424C158.672 25.8404 162.313 26.8483 165.15 28.9775C167.947 31.0768 169.99 34.2908 169.99 39.7008H170.99C170.99 33.9833 168.804 30.4702 165.75 28.1777C162.736 25.915 158.902 24.8665 155.674 23.9782L155.409 24.9424ZM147.715 19.7547C147.715 21.3659 148.725 22.3992 150.128 23.141C151.513 23.8734 153.406 24.3914 155.409 24.9424L155.674 23.9782C153.632 23.4165 151.862 22.9267 150.595 22.257C149.347 21.5967 148.715 20.8334 148.715 19.7547H147.715ZM147.715 -1V19.7547H148.715V-1H147.715Z" fill="#111111" mask="url(#path-1-inside-1)"/>
</g>
<defs>
<filter id="filter0_d" x="-21" y="-21" width="294" height="140" filterUnits="userSpaceOnUse" color-interpolation-filters="sRGB">
<feFlood flood-opacity="0" result="BackgroundImageFix"/>
<feColorMatrix in="SourceAlpha" type="matrix" values="0 0 0 0 0 0 0 0 0 0 0 0 0 0 0 0 0 0 127 0"/>
<feOffset/>
<feGaussianBlur stdDeviation="10"/>
<feColorMatrix type="matrix" values="0 0 0 0 0.278056 0 0 0 0 0.5135 0 0 0 0 0.866667 0 0 0 0.22 0"/>
<feBlend mode="normal" in2="BackgroundImageFix" result="effect1_dropShadow"/>
<feBlend mode="normal" in="SourceGraphic" in2="effect1_dropShadow" result="shape"/>
</filter>
</defs>
</svg>
